<svg width="16" height="16" viewBox="0 0 16 16" fill="none" xmlns="http://www.w3.org/2000/svg">
<path fill-rule="evenodd" clip-rule="evenodd" d="M0.723792 8.66029L13.6276 8.66029L7.602 14.747C7.319 15.034 7.319 15.4986 7.602 15.7849C7.88501 16.0718 8.34317 16.0718 8.62545 15.7849L15.791 8.51937C16.0697 8.23679 16.0697 7.76412 15.791 7.48155L8.62545 0.215327C8.34244 -0.0716521 7.88428 -0.0716522 7.602 0.215327C7.319 0.502305 7.319 0.966905 7.602 1.25315L13.6276 7.19237L0.723792 7.19237C0.324258 7.19237 7.4125e-07 7.52118 7.05831e-07 7.92633C6.70412e-07 8.33147 0.324258 8.66029 0.723792 8.66029Z" fill="#E74300"/>
</svg>
