<svg width="14" height="23" viewBox="0 0 14 23" fill="none" xmlns="http://www.w3.org/2000/svg">
<path d="M9.85534 7.75748C10.7629 7.75748 11.6427 7.75748 12.524 7.75748C12.7366 7.73521 12.9517 7.76909 13.1448 7.85522C13.3378 7.94134 13.5011 8.07626 13.6162 8.24474C13.753 8.46348 13.8301 8.71029 13.8408 8.96343C13.8639 10.1004 13.8547 11.2388 13.8485 12.3758C13.8581 12.5338 13.8318 12.692 13.7715 12.8399C13.7113 12.9878 13.6183 13.1221 13.4987 13.2342C13.3791 13.3462 13.2355 13.4333 13.0774 13.49C12.9192 13.5467 12.75 13.5717 12.5809 13.5631C11.7642 13.5703 10.9474 13.5631 10.1291 13.5631H9.83375V13.8635C9.83375 16.4748 9.83375 19.0864 9.83375 21.6986C9.84073 21.9147 9.80259 22.13 9.72146 22.3325C9.63267 22.5398 9.47624 22.7157 9.2744 22.8352C9.07255 22.9547 8.83562 23.0116 8.59713 22.998C7.31533 22.998 6.03353 22.998 4.75173 22.998C4.59096 23.006 4.43006 22.9834 4.27894 22.9315C4.12783 22.8796 3.98959 22.7995 3.87262 22.6961C3.75566 22.5927 3.66253 22.4682 3.59868 22.3301C3.53482 22.1919 3.50163 22.0431 3.50123 21.8926C3.50123 21.8035 3.50123 21.7129 3.50123 21.6238C3.50123 19.0423 3.50123 16.4609 3.50123 13.8793V13.5645H3.22127C2.57986 13.5645 1.93998 13.5645 1.29857 13.5645C1.12559 13.5777 0.951588 13.5555 0.788604 13.4998C0.62562 13.4441 0.477576 13.356 0.354495 13.2417C0.231413 13.1274 0.136259 12.9896 0.0756654 12.8376C0.0150716 12.6856 -0.00963663 12.5231 0.00337639 12.3614C0.00337639 11.224 0.00337639 10.0865 0.00337639 8.94904C-0.00915957 8.79119 0.0148115 8.63269 0.0736 8.48424C0.132389 8.3358 0.224686 8.20095 0.344168 8.08876C0.463649 7.97656 0.607504 7.88965 0.766073 7.83399C0.924641 7.77833 1.09429 7.75514 1.26327 7.76608C1.91237 7.76608 2.56147 7.76608 3.21057 7.76608H3.50123C3.50123 7.64678 3.50123 7.55196 3.50123 7.4571C3.49217 6.53805 3.53575 5.61915 3.63191 4.70446C3.81307 3.42109 4.48155 2.24126 5.51537 1.37965C6.54919 0.518037 7.87958 0.0319523 9.26464 0.0100013C10.4659 0.0100013 11.6688 0.0258728 12.8701 0C13.1172 0.00893079 13.3548 0.0912289 13.5485 0.234942C13.7421 0.378656 13.8817 0.576346 13.9469 0.799225C13.9783 0.930402 13.9943 1.06433 13.9946 1.19875C13.9946 2.22408 13.9946 3.24943 13.9946 4.27476C14.0115 4.44204 13.9886 4.61079 13.9276 4.76886C13.8666 4.92692 13.7691 5.07041 13.6418 5.18909C13.5145 5.30776 13.3606 5.39862 13.1913 5.45526C13.0221 5.5119 12.8416 5.53289 12.6626 5.51667C11.9489 5.51667 11.2367 5.52391 10.5245 5.52966C10.4524 5.52937 10.3804 5.53464 10.3092 5.54545C9.95231 5.60582 9.87076 5.67194 9.86154 6.01691C9.84308 6.58324 9.85534 7.15666 9.85534 7.75748ZM1.45235 12.2133H1.7432C2.51997 12.2133 3.29826 12.2133 4.07503 12.2133C4.18976 12.2039 4.30517 12.2179 4.41357 12.2542C4.52197 12.2905 4.62075 12.3485 4.70292 12.4239C4.78508 12.4993 4.84872 12.5905 4.88955 12.6911C4.93038 12.7917 4.9475 12.8994 4.9395 13.0068C4.9395 13.0743 4.9395 13.1419 4.9395 13.2094V21.6368H8.38327V21.3378C8.38327 18.5991 8.38327 15.8601 8.38327 13.1205C8.38327 12.4866 8.67245 12.2133 9.34462 12.2133H12.3903V9.11292H12.1181C11.1721 9.11292 10.2277 9.11292 9.28172 9.11292C9.17111 9.12644 9.05853 9.11769 8.95182 9.0873C8.84511 9.05691 8.7466 9.00563 8.66285 8.93676C8.57911 8.86789 8.51209 8.783 8.46626 8.68795C8.42044 8.59291 8.39688 8.48988 8.39717 8.38564C8.38178 7.53327 8.36805 6.67796 8.43265 5.82847C8.42835 5.41642 8.59621 5.01914 8.90075 4.72113C9.20529 4.42312 9.62234 4.24796 10.063 4.233C10.7598 4.15538 11.4688 4.18273 12.1718 4.16404C12.2902 4.16404 12.4072 4.16404 12.5349 4.16404V1.33824C12.5103 1.32811 12.4844 1.32084 12.4579 1.31666C11.4243 1.31666 10.3906 1.29648 9.35852 1.33386C8.30651 1.34792 7.29333 1.7072 6.49606 2.34872C6.01429 2.75295 5.6284 3.247 5.36347 3.79908C5.09854 4.35116 4.96045 4.949 4.9579 5.55404C4.91329 6.42797 4.93942 7.30481 4.9348 8.18017C4.9348 8.83561 4.63937 9.11289 3.94566 9.11433H1.44615L1.45235 12.2133Z" fill="#666666"/>
</svg>
