<svg width="51" height="51" viewBox="0 0 51 51" fill="none" xmlns="http://www.w3.org/2000/svg">
<path d="M29.9789 21.2496L29.7197 24.699H26.3567V36.2532H21.9305V24.699H19.6895V21.2496H21.9305V18.663V17.916C21.9305 17.916 21.7721 14.0976 26.3567 13.8912C28.5845 13.7916 30.4403 14.2938 30.4403 14.2938L29.9693 17.685C29.9693 17.685 26.3567 16.5654 26.3567 18.7476V21.249H29.9789V21.2496Z" fill="black"/>
<path d="M25.0644 50.13C11.2446 50.13 0 38.8854 0 25.0644C0 11.2434 11.2446 0 25.0644 0C38.8854 0 50.13 11.2434 50.13 25.0644C50.13 38.8854 38.8854 50.13 25.0644 50.13ZM25.0644 3.4434C13.1424 3.4434 3.4434 13.1424 3.4434 25.0644C3.4434 36.9864 13.1424 46.686 25.0644 46.686C36.9876 46.686 46.686 36.9864 46.686 25.0644C46.686 13.1424 36.9876 3.4434 25.0644 3.4434Z" fill="black"/>
</svg>
