<svg width="52" height="52" viewBox="0 0 52 52" fill="none" xmlns="http://www.w3.org/2000/svg">
<path d="M30.9134 22.1847L30.6542 25.6341H27.2912V37.1883H22.865V25.6341H20.624V22.1847H22.865V19.5981V18.8511C22.865 18.8511 22.7066 15.0327 27.2912 14.8263C29.519 14.7267 31.3748 15.2289 31.3748 15.2289L30.9038 18.6201C30.9038 18.6201 27.2912 17.5005 27.2912 19.6827V22.1841H30.9134V22.1847Z" fill="#3B589D"/>
<path d="M25.999 51.0651C12.1792 51.0651 0.93457 39.8205 0.93457 25.9995C0.93457 12.1785 12.1792 0.935059 25.999 0.935059C39.82 0.935059 51.0646 12.1785 51.0646 25.9995C51.0646 39.8205 39.82 51.0651 25.999 51.0651ZM25.999 4.37846C14.077 4.37846 4.37797 14.0775 4.37797 25.9995C4.37797 37.9215 14.077 47.6211 25.999 47.6211C37.9222 47.6211 47.6206 37.9215 47.6206 25.9995C47.6206 14.0775 37.9222 4.37846 25.999 4.37846Z" fill="#3B589D"/>
</svg>
