<svg width="51" height="51" viewBox="0 0 51 51" fill="none" xmlns="http://www.w3.org/2000/svg">
<path d="M25.1308 0.0649414C11.3098 0.0649414 0.0664062 11.3089 0.0664062 25.1293C0.0664062 38.9503 11.3098 50.1955 25.1308 50.1955C38.9518 50.1955 50.197 38.9503 50.197 25.1293C50.197 11.3089 38.9518 0.0649414 25.1308 0.0649414ZM25.1308 46.7515C13.2088 46.7515 3.51041 37.0519 3.51041 25.1293C3.51041 13.2073 13.2088 3.50894 25.1308 3.50894C37.0534 3.50894 46.753 13.2073 46.753 25.1293C46.753 37.0519 37.0534 46.7515 25.1308 46.7515Z" fill="black"/>
<path d="M19.9381 21.4417H15.8887V34.4683H19.9381V21.4417Z" fill="black"/>
<path d="M17.9389 15.7927C16.6315 15.7927 15.7812 16.6723 15.7812 17.8171C15.7812 18.9367 16.6068 19.8421 17.886 19.8421C19.2438 19.8421 20.07 18.9367 20.07 17.8171C20.043 16.6717 19.2439 15.7927 17.9389 15.7927Z" fill="black"/>
<path d="M29.8167 21.1472C27.6351 21.1472 26.3295 22.3994 25.7955 23.2502H25.7145L25.5279 21.4412H22.0137C22.0653 22.6118 22.1193 23.972 22.1193 25.5968V34.4678H26.1687V26.9552C26.1687 26.5826 26.1945 26.2094 26.3025 25.9424C26.5947 25.1972 27.2607 24.4244 28.3797 24.4244C29.8449 24.4244 30.4323 25.5704 30.4323 27.2492V34.4678H34.4811V26.7698C34.4805 22.9328 32.4837 21.1472 29.8167 21.1472Z" fill="black"/>
</svg>
