<svg width="51" height="51" viewBox="0 0 51 51" fill="none" xmlns="http://www.w3.org/2000/svg">
<path d="M25.0644 0C11.2434 0 0 11.244 0 25.0644C0 38.8854 11.2434 50.1306 25.0644 50.1306C38.8854 50.1306 50.1306 38.8854 50.1306 25.0644C50.1306 11.244 38.8854 0 25.0644 0ZM25.0644 46.6866C13.1424 46.6866 3.444 36.987 3.444 25.0644C3.444 13.1424 13.1424 3.444 25.0644 3.444C36.987 3.444 46.6866 13.1424 46.6866 25.0644C46.6866 36.987 36.987 46.6866 25.0644 46.6866Z" fill="#1276BA"/>
<path d="M19.8717 21.3768H15.8223V34.4034H19.8717V21.3768Z" fill="#1276BA"/>
<path d="M17.8724 15.7278C16.565 15.7278 15.7148 16.6074 15.7148 17.7522C15.7148 18.8718 16.5404 19.7772 17.8196 19.7772C19.1774 19.7772 20.0036 18.8718 20.0036 17.7522C19.9766 16.6068 19.1774 15.7278 17.8724 15.7278Z" fill="#1276BA"/>
<path d="M29.7512 21.0822C27.5696 21.0822 26.264 22.3344 25.73 23.1852H25.649L25.4624 21.3762H21.9482C21.9998 22.5468 22.0538 23.907 22.0538 25.5318V34.4028H26.1032V26.8902C26.1032 26.5176 26.129 26.1444 26.237 25.8774C26.5292 25.1322 27.1952 24.3594 28.3142 24.3594C29.7794 24.3594 30.3668 25.5054 30.3668 27.1842V34.4028H34.4156V26.7048C34.415 22.8678 32.4182 21.0822 29.7512 21.0822Z" fill="#1276BA"/>
</svg>
