<svg width="24" height="24" viewBox="0 0 24 24" fill="none" xmlns="http://www.w3.org/2000/svg">
<path d="M23.4411 5.90434V17.5317C23.428 17.6137 23.4089 17.6929 23.4001 17.7749C23.3431 18.4063 23.1797 19.0235 22.9166 19.6004C22.4375 20.7559 21.6202 21.7395 20.5719 22.4219C19.5236 23.1044 18.2934 23.4538 17.0429 23.4244C13.4958 23.4669 9.94875 23.4362 6.40167 23.4347C5.30482 23.4541 4.22324 23.1755 3.27213 22.6289C2.25878 22.0799 1.4175 21.2607 0.841749 20.2623C0.266002 19.264 -0.0216312 18.1255 0.0107723 16.9735C-0.00827438 13.4718 0.00198153 9.97009 0.0107723 6.46843C0.00327647 6.02585 0.0435576 5.58389 0.130914 5.14995C0.347586 3.95579 0.907943 2.85078 1.74333 1.97038C2.57871 1.08997 3.65281 0.472336 4.83397 0.193336C5.18414 0.0951719 5.55191 0.0630006 5.91086 0H17.5381C17.7857 0.0380934 18.0363 0.0615054 18.2809 0.115715C19.4776 0.334255 20.5848 0.896345 21.4673 1.73358C22.3498 2.57082 22.9695 3.64701 23.2507 4.83053C23.3444 5.17923 23.3781 5.54978 23.4411 5.90434ZM22.0683 11.718C22.0683 9.97157 22.0683 8.22524 22.0683 6.4788C22.0729 6.08261 22.0341 5.68703 21.9525 5.29929C21.7141 4.17306 21.0905 3.16525 20.189 2.44934C19.2875 1.73343 18.1646 1.35423 17.0136 1.37714C13.4895 1.37714 9.96582 1.37714 6.44267 1.37714C6.06158 1.37268 5.68122 1.41102 5.30868 1.49142C4.18258 1.73008 3.1749 2.35378 2.45903 3.25523C1.74317 4.15668 1.3639 5.27944 1.38652 6.43033C1.38652 9.95446 1.38652 13.4782 1.38652 17.0014C1.38262 17.3748 1.41847 17.7474 1.49347 18.1133C1.72722 19.2365 2.34365 20.2439 3.23747 20.9632C4.13129 21.6826 5.24707 22.0693 6.39434 22.0574C9.94874 22.0662 13.5032 22.0574 17.0576 22.0574C17.7698 22.0704 18.4754 21.9201 19.1205 21.618C20.0172 21.2306 20.7772 20.5832 21.3022 19.7594C21.8271 18.9356 22.093 17.9733 22.0654 16.9969C22.0859 15.2417 22.0668 13.4791 22.0668 11.718H22.0683Z" fill="#666666"/>
<path d="M11.7316 5.97192C12.8678 5.97366 13.978 6.31235 14.9218 6.94504C15.8655 7.57773 16.6005 8.47598 17.0337 9.52637C17.4669 10.5768 17.5789 11.7319 17.3555 12.846C17.1321 13.96 16.5834 14.9828 15.7788 15.785C14.9741 16.5872 13.9497 17.1328 12.835 17.3528C11.7203 17.5728 10.5653 17.4573 9.51629 17.0209C8.46724 16.5844 7.57116 15.8466 6.94136 14.901C6.31156 13.9553 5.9763 12.8442 5.97803 11.708C5.98577 10.186 6.59502 8.72889 7.67285 7.65436C8.75068 6.57982 10.2096 5.975 11.7316 5.97192ZM11.7184 7.20401C10.8261 7.20488 9.95408 7.47043 9.21256 7.9668C8.47105 8.46318 7.89336 9.16816 7.55249 9.9928C7.21161 10.8175 7.12288 11.7246 7.29749 12.5997C7.47211 13.4748 7.9022 14.2785 8.53347 14.9092C9.16475 15.5398 9.96883 15.9691 10.8441 16.1429C11.7193 16.3166 12.6264 16.227 13.4507 15.8853C14.2751 15.5437 14.9796 14.9653 15.4752 14.2233C15.9709 13.4813 16.2354 12.609 16.2354 11.7167C16.2312 10.5205 15.7538 9.37441 14.9075 8.52893C14.0612 7.68344 12.9147 7.2071 11.7184 7.20401Z" fill="#666666"/>
<path d="M19.2157 5.00048C19.216 4.80277 19.1575 4.6094 19.0477 4.44498C18.938 4.28055 18.7818 4.15243 18.5991 4.07691C18.4164 4.00138 18.2154 3.98182 18.0215 4.02075C17.8277 4.05968 17.6498 4.15542 17.5104 4.29564C17.371 4.43585 17.2764 4.61433 17.2386 4.8084C17.2008 5.00246 17.2216 5.20327 17.2982 5.38554C17.3748 5.56781 17.5037 5.72332 17.6688 5.83213C17.8339 5.94094 18.0276 5.99812 18.2253 5.99667C18.4862 5.98782 18.7339 5.87989 18.9179 5.69477C19.1019 5.50966 19.2084 5.2614 19.2157 5.00048Z" fill="#666666"/>
</svg>
