<svg width="11" height="7" viewBox="0 0 11 7" fill="none" xmlns="http://www.w3.org/2000/svg">
<path d="M5.25298 5.89448L1.10173 1.61235C0.965798 1.47205 0.966027 1.2449 1.10243 1.10484C1.23882 0.964886 1.45976 0.965248 1.5958 1.10556L5.49997 5.13281L9.40413 1.10542C9.54018 0.965121 9.76098 0.96476 9.89739 1.1047C9.96576 1.17491 9.99995 1.26689 9.99995 1.35888C9.99995 1.45063 9.96599 1.54225 9.89809 1.61233L5.74694 5.89448C5.68159 5.96205 5.59264 5.99997 5.49997 5.99997C5.4073 5.99997 5.31846 5.96194 5.25298 5.89448Z" fill="white"/>
<path fill-rule="evenodd" clip-rule="evenodd" d="M4.89398 6.2425L0.742727 1.96037C0.418594 1.62583 0.41909 1.08985 0.744227 0.755995C1.07737 0.414134 1.62281 0.415113 1.95478 0.757528L5.49996 4.41446L9.04512 0.757401C9.3771 0.415066 9.92227 0.413907 10.2554 0.755689C10.4196 0.92427 10.4999 1.14374 10.4999 1.35888C10.4999 1.57335 10.4203 1.79189 10.2572 1.96025L6.10634 6.24208M9.40413 1.10542C9.54018 0.965121 9.76098 0.96476 9.89739 1.1047C9.96576 1.17491 9.99995 1.26689 9.99995 1.35888C9.99995 1.45063 9.96599 1.54225 9.89809 1.61233L5.74694 5.89448C5.68159 5.96205 5.59264 5.99997 5.49997 5.99997C5.4073 5.99997 5.31846 5.96194 5.25298 5.89448L1.10173 1.61235C0.965798 1.47205 0.966027 1.2449 1.10243 1.10484C1.23882 0.964886 1.45976 0.965248 1.5958 1.10556L5.49997 5.13281L9.40413 1.10542ZM6.10634 6.24208C5.94805 6.40552 5.72972 6.49997 5.49997 6.49997C5.26943 6.49997 5.05175 6.40506 4.89398 6.2425" fill="white"/>
</svg>
