<svg width="21" height="24" viewBox="0 0 21 24" fill="none" xmlns="http://www.w3.org/2000/svg">
<path d="M3.15561 0C3.53918 0.115614 3.91254 0.262696 4.27198 0.439611C4.80567 0.763213 5.21423 1.25786 5.43128 1.84304C5.64833 2.42822 5.66099 3.06947 5.46741 3.66283C5.31605 4.13776 5.04075 4.5638 4.66974 4.8967C4.29873 5.22961 3.84549 5.45745 3.35699 5.55666C2.86849 5.65586 2.36227 5.62279 1.89079 5.46097C1.41931 5.29916 0.999601 5.0144 0.674971 4.63612C0.350342 4.25785 0.13274 3.79982 0.0443502 3.30924C-0.0440391 2.81867 0.000216367 2.31333 0.172406 1.84554C0.344596 1.37775 0.638372 0.96452 1.02373 0.648327C1.40908 0.332135 1.87197 0.124566 2.36438 0.0470373C2.4007 0.0378115 2.43606 0.0250514 2.4699 0.00894244L3.15561 0ZM4.21904 2.79255C4.21817 2.51076 4.13386 2.23563 3.97652 2.00186C3.81919 1.76809 3.59589 1.58633 3.33517 1.47944C3.07445 1.37254 2.78791 1.34542 2.51175 1.40146C2.23559 1.4575 1.98226 1.59414 1.78383 1.79421C1.5854 1.99428 1.45093 2.24874 1.39716 2.52535C1.3434 2.80196 1.3729 3.08822 1.48194 3.34805C1.59098 3.60789 1.77448 3.82953 2.00954 3.98493C2.2446 4.14034 2.52078 4.22264 2.80256 4.22119C2.98953 4.2212 3.1744 4.18404 3.34697 4.11209C3.51955 4.04014 3.67609 3.93479 3.80769 3.80197C3.93929 3.66915 4.04353 3.51145 4.11388 3.33821C4.18422 3.16498 4.21935 2.97952 4.21761 2.79255H4.21904Z" fill="#666666"/>
<path d="M12.7901 8.02008C13.0304 7.93071 13.25 7.82955 13.4815 7.76361C14.4638 7.43936 15.5212 7.41983 16.5148 7.70746C17.5084 7.99508 18.3919 8.57657 19.0491 9.3754C19.856 10.2373 20.4169 11.2998 20.6737 12.4521C20.7974 13.0103 20.8623 13.5798 20.8673 14.1516C20.8863 16.991 20.8762 19.8291 20.8762 22.6685C20.8921 22.7754 20.8826 22.8845 20.8487 22.9871C20.8147 23.0896 20.7571 23.1826 20.6805 23.2589C20.604 23.3352 20.5107 23.3926 20.408 23.4261C20.3053 23.4597 20.1961 23.4686 20.0893 23.4522H16.4483C15.8227 23.4522 15.5898 23.2238 15.5898 22.6011C15.5898 19.7246 15.5898 16.8475 15.5898 13.97C15.6139 13.694 15.5578 13.4168 15.4278 13.1722C15.2978 12.9275 15.0994 12.7258 14.8572 12.5913C14.6366 12.4686 14.387 12.4076 14.1347 12.4148C13.8824 12.4219 13.6369 12.497 13.4236 12.6319C13.2103 12.7668 13.037 12.9566 12.9224 13.1815C12.8079 13.4064 12.7563 13.6581 12.7726 13.9099C12.7594 14.704 12.7726 15.4967 12.7726 16.2908C12.7726 18.3976 12.7726 20.504 12.7726 22.6099C12.7726 23.2135 12.5291 23.4567 11.9298 23.4567H8.10604C7.98678 23.4729 7.86525 23.4613 7.7512 23.4229C7.63715 23.3845 7.53369 23.3202 7.44859 23.2351C7.36348 23.15 7.29923 23.0464 7.2608 22.9323C7.22236 22.8183 7.21059 22.6969 7.22681 22.5777C7.22681 17.6695 7.22681 12.7617 7.22681 7.85447C7.22681 7.24791 7.51103 6.96362 8.12785 6.96362H11.8361C12.5042 6.96362 12.7636 7.2172 12.7797 7.88237C12.7812 7.91021 12.7813 7.95415 12.7901 8.02008ZM11.4026 22.0647V14.0155C11.4026 13.9012 11.4024 13.7869 11.4112 13.6726C11.4326 13.2075 11.5714 12.7552 11.8139 12.3577C12.0565 11.9603 12.3952 11.6305 12.799 11.3987C13.2029 11.1669 13.6588 11.0407 14.1243 11.0317C14.5898 11.0228 15.05 11.1313 15.4624 11.3474C15.9387 11.5835 16.3352 11.9539 16.6031 12.413C16.8711 12.872 16.9988 13.3995 16.9701 13.9303C16.9701 16.5402 16.9701 19.1501 16.9701 21.76V22.0531H19.4973C19.4973 21.9916 19.4973 21.9462 19.4973 21.9066C19.4973 19.3046 19.4973 16.7025 19.4973 14.1004C19.509 12.664 18.9654 11.2786 17.9796 10.2339C17.6178 9.80747 17.1666 9.46578 16.6582 9.23286C16.1499 8.99994 15.5967 8.88143 15.0375 8.88589C14.1847 8.89034 13.3584 9.18314 12.6932 9.71664C12.5691 9.82873 12.4259 9.9171 12.27 9.97741C12.1628 10.0078 12.0498 10.0117 11.9409 9.98849C11.832 9.96525 11.7301 9.91569 11.6447 9.84416C11.5593 9.77264 11.4929 9.68121 11.4509 9.57804C11.4089 9.47487 11.3928 9.363 11.404 9.25217C11.3938 8.95036 11.404 8.64712 11.404 8.34237H8.6204V22.0663L11.4026 22.0647Z" fill="#666666"/>
<path d="M0.0230017 15.1816C0.0230017 12.7626 0.0230017 10.3466 0.0230017 7.92621C0.0276276 7.70084 0.0833507 7.47942 0.185754 7.2786C0.244654 7.17426 0.331372 7.08856 0.4365 7.03107C0.541629 6.97359 0.660976 6.94673 0.780606 6.95345C2.12266 6.95345 3.46622 6.94613 4.80828 6.95345C5.00176 6.95549 5.18728 7.03012 5.32838 7.16253C5.46947 7.29493 5.55587 7.47535 5.57018 7.66831C5.57502 7.74442 5.57502 7.82077 5.57018 7.89688C5.57018 12.764 5.57018 17.6318 5.57018 22.4999C5.59848 22.7063 5.54847 22.9158 5.42996 23.0872C5.31146 23.2586 5.13303 23.3794 4.9299 23.4258C4.83314 23.4422 4.73502 23.4487 4.63695 23.4449H0.951943C0.823938 23.4641 0.693172 23.4528 0.570279 23.4122C0.447387 23.3716 0.335795 23.3027 0.244417 23.211C0.153038 23.1193 0.0843394 23.0076 0.0441059 22.8846C0.00387234 22.7616 -0.00656873 22.6307 0.0129862 22.5028C0.0149397 20.0628 0.0181179 17.6225 0.0230017 15.1816ZM4.19733 22.0676V8.34382H1.41337V22.0676H4.19733Z" fill="#666666"/>
</svg>
