<svg width="158" height="67" viewBox="0 0 158 67" fill="none" xmlns="http://www.w3.org/2000/svg">
<path fill-rule="evenodd" clip-rule="evenodd" d="M19.8564 11.4652V41.4161L0 52.8813V0L19.8564 11.4652Z" fill="white"/>
<path fill-rule="evenodd" clip-rule="evenodd" d="M43.8047 52.9436V29.9508L23.9482 18.4856V41.4784L43.8047 52.9436Z" fill="white"/>
<path fill-rule="evenodd" clip-rule="evenodd" d="M21.8504 44.9885L2.03552 56.433L21.892 66.922L41.7069 56.4538L21.8504 44.9885Z" fill="white"/>
<path d="M67.5244 43.0985C67.0882 42.6416 66.569 42.2677 65.9666 41.9562C65.3643 41.6446 64.6996 41.3746 63.9727 41.1461C65.1358 40.6892 66.0497 40.0037 66.7559 39.0898C67.4621 38.1967 67.8152 37.1167 67.8152 35.8704C67.8152 35.1019 67.6698 34.375 67.3582 33.6688C67.0467 32.9626 66.6521 32.3395 66.1328 31.7995C65.6135 31.2594 65.032 30.8232 64.3673 30.4909C63.7027 30.1586 62.9757 29.9924 62.228 29.9924H50.8458V52.9021H61.1895C62.3526 52.9021 63.4327 52.736 64.3673 52.4244C65.3228 52.1128 66.1328 51.6767 66.7975 51.1366C67.4621 50.5966 67.9814 49.9735 68.3552 49.2673C68.7291 48.5611 68.8953 47.8342 68.8953 47.0657C68.8953 46.1518 68.7706 45.3625 68.5422 44.7186C68.2929 44.0955 67.9606 43.5347 67.5244 43.0985ZM54.8753 33.8765H60.8779C61.3556 33.8765 61.771 33.9596 62.1241 34.1465C62.4772 34.3127 62.7472 34.5411 62.9549 34.8319C63.1626 35.1019 63.3288 35.4343 63.4119 35.7874C63.5157 36.1405 63.5573 36.4935 63.5573 36.8466C63.5573 37.2205 63.495 37.5736 63.3911 37.9059C63.2873 38.259 63.1211 38.5498 62.8926 38.8198C62.6641 39.0691 62.3734 39.2768 62.041 39.4429C61.7087 39.5883 61.3141 39.6714 60.8779 39.6714H54.8753V33.8765ZM63.7442 48.1457C63.2665 48.7273 62.5811 49.0181 61.6879 49.0181H54.9168V43.2024H61.8956C62.2695 43.2024 62.6226 43.2855 62.9549 43.4516C63.2665 43.6178 63.5365 43.8463 63.765 44.1163C63.9935 44.3863 64.1596 44.7186 64.2842 45.0717C64.4089 45.4248 64.4712 45.7987 64.4712 46.1725C64.4504 46.9203 64.2219 47.5849 63.7442 48.1457Z" fill="white"/>
<path d="M78.6365 29.9924L69.5183 52.9021H74.4201L76.2687 48.1249L85.0338 48.1042L86.8823 52.9229H91.7841L82.7282 30.0132H78.6365V29.9924ZM77.0164 45.0717L80.6512 34.8319L84.2029 45.0717H77.0164Z" fill="white"/>
<path d="M110.477 41.977C109.792 41.4785 109.024 41.0838 108.151 40.7515C107.279 40.4192 106.386 40.1284 105.472 39.8792C104.558 39.6092 103.665 39.3807 102.792 39.1522C101.92 38.9237 101.131 38.6745 100.466 38.3837C99.7808 38.1137 99.2407 37.7814 98.8045 37.4075C98.3891 37.0336 98.1607 36.5767 98.1607 36.0159C98.1607 35.7043 98.2437 35.4135 98.4099 35.102C98.5761 34.8112 98.8461 34.5412 99.1784 34.3127C99.5315 34.0842 99.9677 33.8973 100.508 33.7519C101.048 33.6065 101.692 33.5442 102.439 33.5442C103.519 33.5442 104.371 33.6896 105.036 34.0012C105.68 34.3127 106.199 34.645 106.573 35.0189C106.947 35.3928 107.196 35.7459 107.341 36.099C107.487 36.4521 107.57 36.639 107.611 36.7013L112.388 36.099C112.222 35.2058 111.848 34.3958 111.308 33.6273C110.768 32.8588 110.062 32.2149 109.19 31.6749C108.317 31.1349 107.32 30.6987 106.178 30.3871C105.036 30.0756 103.769 29.9302 102.377 29.9302C101.172 29.9302 100.009 30.0756 98.8876 30.3871C97.766 30.6779 96.7898 31.1141 95.9382 31.6749C95.0867 32.2357 94.4012 32.9003 93.882 33.6688C93.3627 34.4373 93.1135 35.3305 93.1135 36.3067C93.1135 37.3244 93.3212 38.1968 93.7366 38.903C94.152 39.6092 94.692 40.2115 95.3774 40.6892C96.0629 41.1669 96.8314 41.5616 97.7037 41.8939C98.5761 42.2054 99.4692 42.4755 100.383 42.7247C101.297 42.9532 102.19 43.1609 103.062 43.3686C103.935 43.5555 104.724 43.784 105.389 44.054C106.074 44.3033 106.614 44.6356 107.03 45.0094C107.445 45.3833 107.653 45.861 107.653 46.4426C107.653 46.8995 107.507 47.315 107.217 47.6888C106.926 48.0627 106.552 48.3742 106.095 48.6235C105.638 48.8727 105.119 49.0597 104.516 49.2051C103.935 49.3297 103.332 49.4128 102.751 49.4128C102.107 49.4128 101.463 49.3297 100.819 49.1635C100.175 48.9974 99.6146 48.7689 99.0953 48.4366C98.5761 48.125 98.1607 47.7304 97.8076 47.2942C97.4545 46.858 97.2468 46.3387 97.1637 45.7572L92.345 46.3388C92.4488 47.398 92.8019 48.3535 93.4043 49.1843C94.0274 50.0359 94.7959 50.7421 95.7513 51.3444C96.7067 51.9467 97.7868 52.4037 98.9915 52.7152C99.7392 52.9229 100.508 53.0476 101.297 53.1307L100.175 54.7092L100.736 55.3531C101.089 55.2077 101.359 55.1454 101.775 55.1454C102.419 55.1454 102.917 55.4777 102.917 56.0385C102.917 56.6616 102.502 56.9524 101.692 56.9524C100.965 56.9524 100.113 56.7031 99.5523 56.4539L98.9915 57.7624C100.051 58.1778 100.861 58.3648 102.149 58.3648C104.329 58.3648 105.555 57.4509 105.555 55.8308C105.555 54.5015 104.641 53.733 103.208 53.733C102.917 53.733 102.439 53.7953 102.128 53.9199L102.065 53.8576L102.585 53.1722C102.647 53.1722 102.709 53.1722 102.751 53.1722C104.558 53.1722 106.095 52.9437 107.341 52.4868C108.608 52.0298 109.626 51.469 110.436 50.8044C111.225 50.1397 111.807 49.392 112.16 48.5819C112.513 47.7719 112.7 47.0242 112.7 46.2972C112.7 45.321 112.492 44.4694 112.056 43.784C111.724 43.057 111.163 42.4547 110.477 41.977Z" fill="white"/>
<path d="M122.607 29.9924L113.489 52.9021H118.391L120.24 48.1249L129.005 48.1042L130.853 52.9229H135.755L126.699 29.9924H122.607ZM120.987 45.0717L124.622 34.8319L128.174 45.0717H120.987Z" fill="white"/>
<path d="M148.466 40.2322L157.398 29.9924H151.582L142.464 40.8346V29.9924H138.123V52.9021H142.464V46.0479L145.289 43.0777L152.434 52.9021H158L148.466 40.2322Z" fill="white"/>
<path d="M57.5339 63.4325V66.8389H56.2254V65.9873C56.1631 66.0911 56.0592 66.2158 55.9346 66.3196C55.81 66.4235 55.6646 66.5273 55.4776 66.6104C55.3115 66.6935 55.1038 66.7558 54.8961 66.8181C54.6676 66.8804 54.4391 66.9012 54.1899 66.9012C53.7329 66.9012 53.2968 66.8181 52.8814 66.6727C52.4659 66.5273 52.1129 66.2988 51.8013 66.0081C51.4897 65.7173 51.2405 65.3642 51.0743 64.928C50.8874 64.4918 50.8043 63.9933 50.8043 63.4325C50.8043 62.9548 50.8874 62.4979 51.0328 62.0617C51.1782 61.6463 51.4067 61.2724 51.6974 60.9609C51.9882 60.6493 52.3413 60.4001 52.7775 60.2131C53.1929 60.0262 53.6706 59.9431 54.2107 59.9431C54.6676 59.9431 55.083 60.0054 55.4569 60.13C55.8307 60.2547 56.1631 60.4208 56.4331 60.6493C56.7031 60.8778 56.9523 61.1478 57.1185 61.4801C57.3054 61.8124 57.4301 62.1655 57.4924 62.5602L56.2461 62.7056C56.2046 62.4563 56.1215 62.2279 56.0177 62.0201C55.9138 61.8124 55.7684 61.6255 55.623 61.4801C55.4569 61.3347 55.2699 61.2101 55.0622 61.127C54.8545 61.0439 54.6053 61.0024 54.3353 61.0024C54.003 61.0024 53.7122 61.0647 53.4422 61.1893C53.1721 61.314 52.9644 61.4801 52.7775 61.7086C52.5906 61.9163 52.4659 62.1863 52.3621 62.4771C52.2582 62.7679 52.2167 63.0794 52.2167 63.4325C52.2167 63.8272 52.279 64.1803 52.3829 64.471C52.4867 64.7618 52.6529 65.0318 52.8398 65.2188C53.0267 65.4265 53.2552 65.5719 53.5045 65.6757C53.7537 65.7796 54.0237 65.8419 54.3145 65.8419C54.7299 65.8419 55.1038 65.7173 55.4153 65.4888C55.7269 65.2603 55.9761 64.928 56.1215 64.4918H54.6261V63.4325H57.5339Z" fill="white"/>
<path d="M65.8004 66.8388H64.1596L62.6849 64.5541H61.314V66.8388H60.0055V59.9639H63.038C63.3911 59.9639 63.7234 60.0262 64.0142 60.1508C64.305 60.2754 64.5542 60.4416 64.7619 60.6493C64.9696 60.857 65.1358 61.1062 65.2396 61.3762C65.3642 61.667 65.4058 61.9578 65.4058 62.2901C65.4058 62.5186 65.3642 62.7471 65.3019 62.9548C65.2396 63.1625 65.1358 63.3702 65.0111 63.5364C64.8865 63.7025 64.7411 63.8687 64.575 64.0141C64.4088 64.1595 64.2219 64.2633 64.0142 64.3464L65.8004 66.8388ZM61.3348 63.4948H62.9341C63.121 63.4948 63.2664 63.4533 63.4118 63.3702C63.5572 63.2871 63.6611 63.204 63.7649 63.0794C63.8688 62.9548 63.9311 62.8302 63.9726 62.6848C64.0142 62.5394 64.0557 62.394 64.0557 62.2486C64.0557 62.1032 64.0349 61.9578 63.9726 61.8124C63.9103 61.667 63.8272 61.5424 63.7234 61.4178C63.6195 61.2932 63.4949 61.2101 63.3495 61.127C63.2041 61.0647 63.038 61.0231 62.851 61.0231H61.3348V63.4948Z" fill="white"/>
<path d="M71.637 59.9226C72.177 59.9226 72.6755 60.0057 73.1117 60.1926C73.5478 60.3796 73.9009 60.6288 74.2125 60.9404C74.5033 61.2519 74.7317 61.6258 74.8979 62.0412C75.0641 62.4566 75.1264 62.9135 75.1264 63.412C75.1264 63.9313 75.0433 64.409 74.8771 64.8452C74.711 65.2814 74.4617 65.6345 74.1502 65.946C73.8386 66.2576 73.4648 66.486 73.0493 66.6522C72.6132 66.8184 72.1562 66.9014 71.637 66.9014C71.0554 66.9014 70.5569 66.8184 70.1207 66.6314C69.6845 66.4445 69.3314 66.1953 69.0199 65.8837C68.7291 65.5721 68.5006 65.1983 68.3552 64.7829C68.2099 64.3675 68.1268 63.9105 68.1268 63.412C68.1268 62.9343 68.2099 62.4774 68.376 62.0412C68.5422 61.6258 68.7707 61.2519 69.0614 60.9404C69.373 60.6288 69.7261 60.3796 70.1623 60.1926C70.5984 60.0265 71.0969 59.9226 71.637 59.9226ZM71.637 65.8422C71.9693 65.8422 72.2601 65.7798 72.5093 65.6552C72.7586 65.5306 72.9663 65.3644 73.1532 65.136C73.3194 64.9283 73.4648 64.6582 73.5478 64.3675C73.6309 64.0767 73.6932 63.7651 73.6932 63.4328C73.6932 63.1005 73.6517 62.7889 73.5686 62.4981C73.4855 62.2073 73.3609 61.9581 73.174 61.7296C73.0078 61.5012 72.8001 61.335 72.5301 61.2104C72.2808 61.0857 71.9693 61.0234 71.637 61.0234C71.3046 61.0234 71.0346 61.0857 70.7646 61.2104C70.5154 61.335 70.2869 61.5012 70.1207 61.7296C69.9338 61.9373 69.8092 62.2073 69.7053 62.4981C69.6015 62.7889 69.5599 63.1212 69.5599 63.4536C69.5599 63.7859 69.6015 64.1182 69.7053 64.409C69.8092 64.6998 69.9338 64.949 70.1207 65.1775C70.3077 65.3852 70.5154 65.5514 70.7854 65.676C71.0346 65.7798 71.3254 65.8422 71.637 65.8422Z" fill="white"/>
<path d="M83.6006 59.9846V63.4948C83.6006 63.9725 83.5383 64.4087 83.3929 64.8241C83.2475 65.2395 83.0606 65.5926 82.7698 65.9042C82.4998 66.2157 82.1467 66.465 81.7521 66.6311C81.3367 66.8181 80.8797 66.9012 80.3397 66.9012C79.7996 66.9012 79.3219 66.8181 78.9065 66.6311C78.4911 66.4442 78.1588 66.2157 77.8888 65.9042C77.6188 65.5926 77.4111 65.2395 77.2864 64.8241C77.1618 64.4087 77.0787 63.9725 77.0787 63.4948V59.9846H78.408V63.4948C78.408 63.8272 78.4496 64.1387 78.5534 64.4087C78.6365 64.6787 78.7819 64.9072 78.9481 65.0941C79.1142 65.2811 79.3219 65.4265 79.5504 65.5303C79.7789 65.6342 80.0489 65.6757 80.3189 65.6757C80.6305 65.6757 80.9005 65.6134 81.129 65.5095C81.3574 65.4057 81.5651 65.2603 81.7313 65.0526C81.8975 64.8657 82.0221 64.6164 82.1052 64.3672C82.1882 64.0972 82.2298 63.8064 82.2298 63.4741V59.9639H83.6006V59.9846Z" fill="white"/>
<path d="M86.3631 66.8391V59.9849H89.3956C89.7487 59.9849 90.081 60.0472 90.3718 60.1718C90.6626 60.2964 90.9118 60.4626 91.1195 60.6703C91.3272 60.878 91.4934 61.1272 91.5972 61.3973C91.7218 61.688 91.7634 61.9788 91.7634 62.3111C91.7634 62.6435 91.7011 62.9343 91.5765 63.2043C91.4518 63.4743 91.2857 63.7235 91.078 63.9312C90.8703 64.1389 90.621 64.2843 90.3302 64.4089C90.0395 64.5336 89.7487 64.5751 89.4163 64.5751H87.6301V66.8598H86.3631V66.8391ZM87.6716 63.4951H89.2709C89.4579 63.4951 89.6033 63.4535 89.7487 63.3704C89.8941 63.2874 89.9979 63.1835 90.1018 63.0796C90.2056 62.9758 90.2679 62.8304 90.3095 62.685C90.351 62.5396 90.3925 62.3942 90.3925 62.2488C90.3925 62.1034 90.3718 61.958 90.3095 61.8127C90.2472 61.6673 90.1641 61.5426 90.0602 61.418C89.9564 61.2934 89.8317 61.2103 89.6864 61.1272C89.541 61.0442 89.3748 61.0234 89.1879 61.0234H87.6716V63.4951Z" fill="white"/>
</svg>
