<svg width="158" height="67" viewBox="0 0 158 67" fill="none" xmlns="http://www.w3.org/2000/svg">
<path fill-rule="evenodd" clip-rule="evenodd" d="M19.8564 11.4652V41.4161L0 52.8813V0L19.8564 11.4652Z" fill="#E74300"/>
<path fill-rule="evenodd" clip-rule="evenodd" d="M43.8047 52.9436V29.9508L23.9482 18.4856V41.4784L43.8047 52.9436Z" fill="#00935F"/>
<path fill-rule="evenodd" clip-rule="evenodd" d="M21.8501 44.9885L2.03516 56.433L21.8916 66.922L41.7065 56.4538L21.8501 44.9885Z" fill="#53524A"/>
<path d="M67.5243 43.0985C67.0881 42.6416 66.5689 42.2677 65.9665 41.9562C65.3642 41.6446 64.6995 41.3746 63.9726 41.1461C65.1357 40.6892 66.0496 40.0037 66.7558 39.0898C67.462 38.1967 67.8151 37.1167 67.8151 35.8704C67.8151 35.1019 67.6697 34.375 67.3581 33.6688C67.0466 32.9626 66.6519 32.3395 66.1327 31.7995C65.6134 31.2594 65.0318 30.8232 64.3672 30.4909C63.7025 30.1586 62.9756 29.9924 62.2279 29.9924H50.8457V52.9021H61.1893C62.3525 52.9021 63.4325 52.736 64.3672 52.4244C65.3226 52.1128 66.1327 51.6767 66.7973 51.1366C67.462 50.5966 67.9812 49.9735 68.3551 49.2673C68.729 48.5611 68.8951 47.8342 68.8951 47.0657C68.8951 46.1518 68.7705 45.3625 68.542 44.7186C68.2928 44.0955 67.9605 43.5347 67.5243 43.0985ZM54.8752 33.8765H60.8778C61.3555 33.8765 61.7709 33.9596 62.124 34.1465C62.4771 34.3127 62.7471 34.5411 62.9548 34.8319C63.1625 35.1019 63.3287 35.4343 63.4118 35.7874C63.5156 36.1405 63.5572 36.4935 63.5572 36.8466C63.5572 37.2205 63.4948 37.5736 63.391 37.9059C63.2871 38.259 63.121 38.5498 62.8925 38.8198C62.664 39.0691 62.3732 39.2768 62.0409 39.4429C61.7086 39.5883 61.314 39.6714 60.8778 39.6714H54.8752V33.8765ZM63.7441 48.1457C63.2664 48.7273 62.5809 49.0181 61.6878 49.0181H54.9167V43.2024H61.8955C62.2694 43.2024 62.6225 43.2855 62.9548 43.4516C63.2664 43.6178 63.5364 43.8463 63.7649 44.1163C63.9933 44.3863 64.1595 44.7186 64.2841 45.0717C64.4087 45.4248 64.471 45.7987 64.471 46.1725C64.4503 46.9203 64.2218 47.5849 63.7441 48.1457Z" fill="#53524A"/>
<path d="M78.6367 29.9924L69.5186 52.9021H74.4204L76.2689 48.1249L85.034 48.1042L86.8826 52.9229H91.7844L82.7285 30.0132H78.6367V29.9924ZM77.0166 45.0717L80.6515 34.8319L84.2032 45.0717H77.0166Z" fill="#53524A"/>
<path d="M110.477 41.977C109.792 41.4785 109.023 41.0838 108.151 40.7515C107.279 40.4192 106.385 40.1284 105.472 39.8792C104.558 39.6092 103.665 39.3807 102.792 39.1522C101.92 38.9237 101.131 38.6745 100.466 38.3837C99.7805 38.1137 99.2405 37.7814 98.8043 37.4075C98.3889 37.0336 98.1604 36.5767 98.1604 36.0159C98.1604 35.7043 98.2435 35.4135 98.4097 35.102C98.5758 34.8112 98.8458 34.5412 99.1782 34.3127C99.5313 34.0842 99.9674 33.8973 100.507 33.7519C101.047 33.6065 101.691 33.5442 102.439 33.5442C103.519 33.5442 104.371 33.6896 105.035 34.0012C105.679 34.3127 106.199 34.645 106.572 35.0189C106.946 35.3928 107.196 35.7459 107.341 36.099C107.486 36.4521 107.569 36.639 107.611 36.7013L112.388 36.099C112.222 35.2058 111.848 34.3958 111.308 33.6273C110.768 32.8588 110.062 32.2149 109.189 31.6749C108.317 31.1349 107.32 30.6987 106.178 30.3871C105.035 30.0756 103.768 29.9302 102.377 29.9302C101.172 29.9302 100.009 30.0756 98.8874 30.3871C97.7658 30.6779 96.7896 31.1141 95.938 31.6749C95.0864 32.2357 94.401 32.9003 93.8817 33.6688C93.3625 34.4373 93.1132 35.3305 93.1132 36.3067C93.1132 37.3244 93.3209 38.1968 93.7363 38.903C94.1517 39.6092 94.6918 40.2115 95.3772 40.6892C96.0626 41.1669 96.8311 41.5616 97.7035 41.8939C98.5758 42.2054 99.469 42.4755 100.383 42.7247C101.297 42.9532 102.19 43.1609 103.062 43.3686C103.935 43.5555 104.724 43.784 105.389 44.054C106.074 44.3033 106.614 44.6356 107.029 45.0094C107.445 45.3833 107.652 45.861 107.652 46.4426C107.652 46.8995 107.507 47.315 107.216 47.6888C106.926 48.0627 106.552 48.3742 106.095 48.6235C105.638 48.8727 105.118 49.0597 104.516 49.2051C103.935 49.3297 103.332 49.4128 102.751 49.4128C102.107 49.4128 101.463 49.3297 100.819 49.1635C100.175 48.9974 99.6143 48.7689 99.0951 48.4366C98.5758 48.125 98.1604 47.7304 97.8073 47.2942C97.4542 46.858 97.2465 46.3387 97.1634 45.7572L92.3447 46.3388C92.4486 47.398 92.8017 48.3535 93.404 49.1843C94.0271 50.0359 94.7956 50.7421 95.7511 51.3444C96.7065 51.9467 97.7866 52.4037 98.9912 52.7152C99.739 52.9229 100.507 53.0476 101.297 53.1307L100.175 54.7092L100.736 55.3531C101.089 55.2077 101.359 55.1454 101.774 55.1454C102.418 55.1454 102.917 55.4777 102.917 56.0385C102.917 56.6616 102.501 56.9524 101.691 56.9524C100.964 56.9524 100.113 56.7031 99.552 56.4539L98.9912 57.7624C100.051 58.1778 100.861 58.3648 102.148 58.3648C104.329 58.3648 105.555 57.4509 105.555 55.8308C105.555 54.5015 104.641 53.733 103.208 53.733C102.917 53.733 102.439 53.7953 102.128 53.9199L102.065 53.8576L102.585 53.1722C102.647 53.1722 102.709 53.1722 102.751 53.1722C104.558 53.1722 106.095 52.9437 107.341 52.4868C108.608 52.0298 109.626 51.469 110.436 50.8044C111.225 50.1397 111.807 49.392 112.16 48.5819C112.513 47.7719 112.7 47.0242 112.7 46.2972C112.7 45.321 112.492 44.4694 112.056 43.784C111.723 43.057 111.163 42.4547 110.477 41.977Z" fill="#53524A"/>
<path d="M122.607 29.9924L113.489 52.9021H118.391L120.24 48.1249L129.005 48.1042L130.853 52.9229H135.755L126.699 29.9924H122.607ZM120.987 45.0717L124.622 34.8319L128.174 45.0717H120.987Z" fill="#53524A"/>
<path d="M148.467 40.2322L157.398 29.9924H151.582L142.464 40.8346V29.9924H138.123V52.9021H142.464V46.0479L145.289 43.0777L152.434 52.9021H158L148.467 40.2322Z" fill="#53524A"/>
<path d="M57.5343 63.4325V66.8389H56.2257V65.9873C56.1634 66.0911 56.0596 66.2158 55.935 66.3196C55.8103 66.4235 55.6649 66.5273 55.478 66.6104C55.3119 66.6935 55.1041 66.7558 54.8964 66.8181C54.668 66.8804 54.4395 66.9012 54.1903 66.9012C53.7333 66.9012 53.2971 66.8181 52.8817 66.6727C52.4663 66.5273 52.1132 66.2988 51.8017 66.0081C51.4901 65.7173 51.2409 65.3642 51.0747 64.928C50.8878 64.4918 50.8047 63.9933 50.8047 63.4325C50.8047 62.9548 50.8878 62.4979 51.0332 62.0617C51.1786 61.6463 51.407 61.2724 51.6978 60.9609C51.9886 60.6493 52.3417 60.4001 52.7779 60.2131C53.1933 60.0262 53.671 59.9431 54.211 59.9431C54.668 59.9431 55.0834 60.0054 55.4572 60.13C55.8311 60.2547 56.1634 60.4208 56.4335 60.6493C56.7035 60.8778 56.9527 61.1478 57.1189 61.4801C57.3058 61.8124 57.4304 62.1655 57.4927 62.5602L56.2465 62.7056C56.205 62.4563 56.1219 62.2279 56.018 62.0201C55.9142 61.8124 55.7688 61.6255 55.6234 61.4801C55.4572 61.3347 55.2703 61.2101 55.0626 61.127C54.8549 61.0439 54.6057 61.0024 54.3356 61.0024C54.0033 61.0024 53.7125 61.0647 53.4425 61.1893C53.1725 61.314 52.9648 61.4801 52.7779 61.7086C52.5909 61.9163 52.4663 62.1863 52.3625 62.4771C52.2586 62.7679 52.2171 63.0794 52.2171 63.4325C52.2171 63.8272 52.2794 64.1803 52.3832 64.471C52.4871 64.7618 52.6532 65.0318 52.8402 65.2188C53.0271 65.4265 53.2556 65.5719 53.5048 65.6757C53.7541 65.7796 54.0241 65.8419 54.3149 65.8419C54.7303 65.8419 55.1041 65.7173 55.4157 65.4888C55.7273 65.2603 55.9765 64.928 56.1219 64.4918H54.6264V63.4325H57.5343Z" fill="#53524A"/>
<path d="M65.8008 66.8388H64.1599L62.6852 64.5541H61.3144V66.8388H60.0059V59.9639H63.0383C63.3914 59.9639 63.7238 60.0262 64.0145 60.1508C64.3053 60.2754 64.5546 60.4416 64.7623 60.6493C64.97 60.857 65.1361 61.1062 65.24 61.3762C65.3646 61.667 65.4061 61.9578 65.4061 62.2901C65.4061 62.5186 65.3646 62.7471 65.3023 62.9548C65.24 63.1625 65.1361 63.3702 65.0115 63.5364C64.8869 63.7025 64.7415 63.8687 64.5753 64.0141C64.4092 64.1595 64.2222 64.2633 64.0145 64.3464L65.8008 66.8388ZM61.3352 63.4948H62.9345C63.1214 63.4948 63.2668 63.4533 63.4122 63.3702C63.5576 63.2871 63.6614 63.204 63.7653 63.0794C63.8691 62.9548 63.9315 62.8302 63.973 62.6848C64.0145 62.5394 64.0561 62.394 64.0561 62.2486C64.0561 62.1032 64.0353 61.9578 63.973 61.8124C63.9107 61.667 63.8276 61.5424 63.7237 61.4178C63.6199 61.2932 63.4953 61.2101 63.3499 61.127C63.2045 61.0647 63.0383 61.0231 62.8514 61.0231H61.3352V63.4948Z" fill="#53524A"/>
<path d="M71.6371 59.9226C72.1772 59.9226 72.6757 60.0057 73.1118 60.1926C73.548 60.3796 73.9011 60.6288 74.2127 60.9404C74.5034 61.2519 74.7319 61.6258 74.8981 62.0412C75.0642 62.4566 75.1266 62.9135 75.1266 63.412C75.1266 63.9313 75.0435 64.409 74.8773 64.8452C74.7112 65.2814 74.4619 65.6345 74.1504 65.946C73.8388 66.2576 73.4649 66.486 73.0495 66.6522C72.6134 66.8184 72.1564 66.9014 71.6371 66.9014C71.0556 66.9014 70.5571 66.8184 70.1209 66.6314C69.6847 66.4445 69.3316 66.1953 69.0201 65.8837C68.7293 65.5721 68.5008 65.1983 68.3554 64.7829C68.21 64.3675 68.127 63.9105 68.127 63.412C68.127 62.9343 68.21 62.4774 68.3762 62.0412C68.5424 61.6258 68.7708 61.2519 69.0616 60.9404C69.3732 60.6288 69.7263 60.3796 70.1624 60.1926C70.5986 60.0265 71.0971 59.9226 71.6371 59.9226ZM71.6371 65.8422C71.9695 65.8422 72.2603 65.7798 72.5095 65.6552C72.7587 65.5306 72.9664 65.3644 73.1534 65.136C73.3195 64.9283 73.4649 64.6582 73.548 64.3675C73.6311 64.0767 73.6934 63.7651 73.6934 63.4328C73.6934 63.1005 73.6519 62.7889 73.5688 62.4981C73.4857 62.2073 73.3611 61.9581 73.1741 61.7296C73.008 61.5012 72.8003 61.335 72.5303 61.2104C72.281 61.0857 71.9695 61.0234 71.6371 61.0234C71.3048 61.0234 71.0348 61.0857 70.7648 61.2104C70.5155 61.335 70.2871 61.5012 70.1209 61.7296C69.934 61.9373 69.8094 62.2073 69.7055 62.4981C69.6016 62.7889 69.5601 63.1212 69.5601 63.4536C69.5601 63.7859 69.6016 64.1182 69.7055 64.409C69.8094 64.6998 69.934 64.949 70.1209 65.1775C70.3078 65.3852 70.5155 65.5514 70.7856 65.676C71.0348 65.7798 71.3256 65.8422 71.6371 65.8422Z" fill="#53524A"/>
<path d="M83.601 59.9846V63.4948C83.601 63.9725 83.5387 64.4087 83.3933 64.8241C83.2479 65.2395 83.061 65.5926 82.7702 65.9042C82.5002 66.2157 82.1471 66.465 81.7524 66.6311C81.337 66.8181 80.8801 66.9012 80.34 66.9012C79.8 66.9012 79.3223 66.8181 78.9069 66.6311C78.4915 66.4442 78.1592 66.2157 77.8891 65.9042C77.6191 65.5926 77.4114 65.2395 77.2868 64.8241C77.1622 64.4087 77.0791 63.9725 77.0791 63.4948V59.9846H78.4084V63.4948C78.4084 63.8272 78.4499 64.1387 78.5538 64.4087C78.6369 64.6787 78.7823 64.9072 78.9484 65.0941C79.1146 65.2811 79.3223 65.4265 79.5508 65.5303C79.7792 65.6342 80.0493 65.6757 80.3193 65.6757C80.6308 65.6757 80.9008 65.6134 81.1293 65.5095C81.3578 65.4057 81.5655 65.2603 81.7317 65.0526C81.8978 64.8657 82.0224 64.6164 82.1055 64.3672C82.1886 64.0972 82.2301 63.8064 82.2301 63.4741V59.9639H83.601V59.9846Z" fill="#53524A"/>
<path d="M86.3633 66.8391V59.9849H89.3958C89.7488 59.9849 90.0812 60.0472 90.372 60.1718C90.6627 60.2964 90.912 60.4626 91.1197 60.6703C91.3274 60.878 91.4936 61.1272 91.5974 61.3973C91.722 61.688 91.7636 61.9788 91.7636 62.3111C91.7636 62.6435 91.7013 62.9343 91.5766 63.2043C91.452 63.4743 91.2859 63.7235 91.0782 63.9312C90.8704 64.1389 90.6212 64.2843 90.3304 64.4089C90.0396 64.5336 89.7488 64.5751 89.4165 64.5751H87.6303V66.8598H86.3633V66.8391ZM87.6718 63.4951H89.2711C89.4581 63.4951 89.6035 63.4535 89.7489 63.3704C89.8942 63.2874 89.9981 63.1835 90.1019 63.0796C90.2058 62.9758 90.2681 62.8304 90.3096 62.685C90.3512 62.5396 90.3927 62.3942 90.3927 62.2488C90.3927 62.1034 90.372 61.958 90.3096 61.8127C90.2473 61.6673 90.1643 61.5426 90.0604 61.418C89.9566 61.2934 89.8319 61.2103 89.6865 61.1272C89.5411 61.0442 89.375 61.0234 89.188 61.0234H87.6718V63.4951Z" fill="#53524A"/>
</svg>
