<svg width="149" height="45" viewBox="0 0 149 45" fill="none" xmlns="http://www.w3.org/2000/svg">
<path d="M0 22.3002H4.84926L7.8295 27.2176L10.8097 22.3002H15.659V36.2901H11.0257V29.3544L7.82557 34.3311H7.74704L4.54692 29.3544V36.2901H0V22.3002Z" fill="#E62825"/>
<path d="M22.0908 22.2014H26.7006L32.5629 36.2901H27.5173L26.783 34.41H21.9141L21.1995 36.2901H16.2324L22.0908 22.2014ZM25.6286 31.0923L24.3564 27.6955L23.0842 31.0923H25.6286Z" fill="#E62825"/>
<path d="M36.4775 29.1767L31.9659 22.3002H37.251L39.2574 25.6377L41.2835 22.3002H46.4705L41.9628 29.1135L46.6707 36.2901H41.3856L39.1789 32.6524L36.9526 36.2901H31.7656L36.4775 29.1767Z" fill="#E62825"/>
<path d="M45.8735 29.3346V29.2952C45.8735 25.1163 49.109 22 53.2633 22C56.322 22 58.3874 23.5009 59.5614 25.6377L55.7252 27.8969C55.2108 26.8977 54.4726 26.1986 53.2004 26.1986C51.6298 26.1986 50.5972 27.577 50.5972 29.2557V29.2952C50.5972 31.116 51.6691 32.3917 53.2004 32.3917C54.5119 32.3917 55.2462 31.6729 55.8234 30.6341L59.6557 32.8104C58.4855 34.888 56.538 36.5864 53.0787 36.5864C49.2307 36.5903 45.8735 33.6715 45.8735 29.3346Z" fill="#E62825"/>
<path d="M60.5552 22.3002H67.3481C69.81 22.3002 71.3806 22.9203 72.3544 23.8998C73.1868 24.7411 73.6266 25.7799 73.6266 27.2176V27.2571C73.6266 29.2951 72.5743 30.7131 70.8859 31.5346L74.1253 36.2901H68.8205L66.1976 32.293H65.2042V36.2901H60.5552V22.3002ZM67.2106 28.9555C68.3219 28.9555 68.9972 28.4539 68.9972 27.5968V27.5573C68.9972 26.6567 68.3022 26.2183 67.2303 26.2183H65.2042V28.9555H67.2106Z" fill="#E62825"/>
<path d="M74.7573 22.3002H86.6194V26.1354H79.3278V27.5533H86.1246V30.9303H79.3278V32.451H86.7175V36.2901H74.7573V22.3002Z" fill="#E62825"/>
<path d="M92.8193 22.2014H97.4291L103.291 36.2901H98.2419L97.5076 34.41H92.6387L91.9241 36.2901H86.957L92.8193 22.2014ZM96.3532 31.0923L95.081 27.6955L93.8088 31.0923H96.3532Z" fill="#E62825"/>
<path d="M105.631 26.2578H101.54V22.3002H114.376V26.2578H110.284V36.2901H105.635V26.2578H105.631Z" fill="#E62825"/>
<path d="M115.467 22.3002H120.116V36.2901H115.467V22.3002Z" fill="#E62825"/>
<path d="M120.729 22.3002H125.936L128.637 30.1522L131.338 22.3002H136.463L130.82 36.3889H126.371L120.729 22.3002Z" fill="#E62825"/>
<path d="M137.04 22.3002H148.902V26.1354H141.611V27.5533H148.407V30.9303H141.611V32.451H149V36.2901H137.04V22.3002Z" fill="#E62825"/>
<path d="M74.8867 39.3789H75.2087V39.7344H74.8867V39.3789ZM74.9181 40.4374H75.1773V43.1351H74.9181V40.4374Z" fill="black"/>
<path d="M76.1904 40.4373H76.4496V40.939C76.6263 40.623 76.9286 40.3741 77.4194 40.3741C78.0987 40.3741 78.4914 40.8402 78.4914 41.484V43.135H78.2322V41.5314C78.2322 40.9745 77.922 40.6111 77.3802 40.6111C76.854 40.6111 76.4496 41.014 76.4496 41.5749V43.135H76.1904V40.4373Z" fill="black"/>
<path d="M79.5591 42.4438V40.6743H79.1704V40.4373H79.5591V39.5763H79.8183V40.4373H80.7607V40.6743H79.8183V42.4162C79.8183 42.8032 80.046 42.9415 80.3562 42.9415C80.4897 42.9415 80.5997 42.9138 80.7489 42.8467V43.0916C80.6114 43.1548 80.4819 43.1863 80.313 43.1863C79.8968 43.1863 79.5591 42.9573 79.5591 42.4438Z" fill="black"/>
<path d="M81.2632 41.7921V41.7802C81.2632 40.9982 81.809 40.3741 82.5354 40.3741C83.2853 40.3741 83.7683 40.9903 83.7683 41.7881C83.7683 41.8355 83.7683 41.8513 83.7644 41.8948H81.538C81.5852 42.5662 82.0642 42.9573 82.5903 42.9573C83.0066 42.9573 83.2893 42.7716 83.5091 42.5346L83.6898 42.6926C83.4149 42.9889 83.0969 43.2022 82.5786 43.2022C81.8718 43.2022 81.2632 42.6373 81.2632 41.7921ZM83.4856 41.6618C83.4502 41.1167 83.1401 40.6151 82.5236 40.6151C81.9935 40.6151 81.5812 41.0653 81.5341 41.6618H83.4856Z" fill="black"/>
<path d="M84.4674 43.5813L84.6205 43.372C84.9425 43.6208 85.3116 43.7512 85.7043 43.7512C86.3207 43.7512 86.7566 43.3957 86.7566 42.7045V42.3135C86.5249 42.6452 86.1676 42.9375 85.6375 42.9375C84.9896 42.9375 84.3496 42.4399 84.3496 41.6657V41.6539C84.3496 40.8758 84.9936 40.3741 85.6375 40.3741C86.1754 40.3741 86.5367 40.6585 86.7566 40.9785V40.4373H87.0157V42.7203C87.0157 43.1113 86.8901 43.4194 86.6741 43.6366C86.4424 43.8697 86.0969 43.996 85.7003 43.996C85.2527 43.996 84.8365 43.8578 84.4674 43.5813ZM86.7723 41.6618V41.6499C86.7723 41.0259 86.2186 40.623 85.6611 40.623C85.0996 40.623 84.6245 41.014 84.6245 41.646V41.6578C84.6245 42.2661 85.1074 42.6887 85.6611 42.6887C86.2186 42.6887 86.7723 42.274 86.7723 41.6618Z" fill="black"/>
<path d="M87.9937 40.4373H88.2528V41.2036C88.4648 40.7217 88.9125 40.3741 89.4425 40.3939V40.6782H89.4151C88.7947 40.6782 88.2528 41.1483 88.2528 42.0291V43.135H87.9937V40.4373Z" fill="black"/>
<path d="M89.7485 42.353V42.3411C89.7485 41.7803 90.2276 41.4643 90.9226 41.4643C91.2956 41.4643 91.5548 41.5117 91.81 41.5788V41.4643C91.81 40.9192 91.4801 40.6388 90.9265 40.6388C90.6006 40.6388 90.3336 40.7296 90.0862 40.856L89.992 40.627C90.2865 40.4887 90.577 40.3939 90.9461 40.3939C91.3074 40.3939 91.5979 40.4927 91.7943 40.6902C91.971 40.8718 92.0691 41.1207 92.0691 41.4524V43.135H91.8178V42.6848C91.6333 42.9454 91.3034 43.1982 90.793 43.1982C90.2825 43.2022 89.7485 42.9138 89.7485 42.353ZM91.8139 42.1279V41.8198C91.5862 41.7605 91.2877 41.6973 90.9029 41.6973C90.3336 41.6973 90.0195 41.9501 90.0195 42.3293V42.3411C90.0195 42.7322 90.3886 42.9612 90.7969 42.9612C91.3466 42.9573 91.8139 42.6216 91.8139 42.1279Z" fill="black"/>
<path d="M93.106 42.4438V40.6743H92.7173V40.4373H93.106V39.5763H93.3652V40.4373H94.3075V40.6743H93.3652V42.4162C93.3652 42.8032 93.5929 42.9415 93.9031 42.9415C94.0366 42.9415 94.1465 42.9138 94.2957 42.8467V43.0916C94.1583 43.1548 94.0287 43.1863 93.8599 43.1863C93.4437 43.1863 93.106 42.9573 93.106 42.4438Z" fill="black"/>
<path d="M94.8062 41.7921V41.7802C94.8062 40.9982 95.3519 40.3741 96.0783 40.3741C96.8322 40.3741 97.3113 40.9903 97.3113 41.7881C97.3113 41.8355 97.3113 41.8513 97.3074 41.8948H95.081C95.1281 42.5662 95.6072 42.9573 96.1333 42.9573C96.5495 42.9573 96.8322 42.7716 97.0521 42.5346L97.2327 42.6926C96.9579 42.9889 96.6398 43.2022 96.1215 43.2022C95.4148 43.2022 94.8062 42.6373 94.8062 41.7921ZM97.0325 41.6618C96.9972 41.1167 96.687 40.6151 96.0705 40.6151C95.5404 40.6151 95.1281 41.0653 95.081 41.6618H97.0325Z" fill="black"/>
<path d="M97.8921 41.8V41.7882C97.8921 40.9114 98.5517 40.3742 99.1957 40.3742C99.7336 40.3742 100.079 40.6823 100.299 41.018V39.2722H100.558V43.1351H100.299V42.5307C100.067 42.8862 99.7258 43.1983 99.1957 43.1983C98.5478 43.2022 97.8921 42.6769 97.8921 41.8ZM100.315 41.7921V41.7803C100.315 41.0891 99.7768 40.623 99.2193 40.623C98.6342 40.623 98.1669 41.0496 98.1669 41.7763V41.7882C98.1669 42.4991 98.6578 42.9534 99.2193 42.9534C99.7807 42.9534 100.315 42.4833 100.315 41.7921Z" fill="black"/>
<path d="M103.119 40.4373H103.378V40.9192C103.551 40.6388 103.794 40.3741 104.273 40.3741C104.74 40.3741 105.031 40.6427 105.176 40.9548C105.349 40.6546 105.639 40.3741 106.146 40.3741C106.782 40.3741 107.179 40.8244 107.179 41.4998V43.135H106.92V41.5314C106.92 40.9508 106.621 40.6111 106.126 40.6111C105.675 40.6111 105.278 40.9587 105.278 41.563V43.135H105.019V41.5156C105.019 40.9548 104.713 40.6111 104.234 40.6111C103.755 40.6111 103.378 41.0338 103.378 41.5788V43.135H103.119V40.4373Z" fill="black"/>
<path d="M107.905 42.353V42.3411C107.905 41.7803 108.384 41.4643 109.079 41.4643C109.452 41.4643 109.711 41.5117 109.966 41.5788V41.4643C109.966 40.9192 109.636 40.6388 109.083 40.6388C108.757 40.6388 108.49 40.7296 108.242 40.856L108.148 40.627C108.443 40.4887 108.733 40.3939 109.102 40.3939C109.468 40.3939 109.754 40.4927 109.951 40.6902C110.131 40.8718 110.225 41.1207 110.225 41.4524V43.135H109.974V42.6848C109.79 42.9454 109.46 43.1982 108.949 43.1982C108.439 43.2022 107.905 42.9138 107.905 42.353ZM109.97 42.1279V41.8198C109.742 41.7605 109.444 41.6973 109.059 41.6973C108.49 41.6973 108.176 41.9501 108.176 42.3293V42.3411C108.176 42.7322 108.545 42.9612 108.953 42.9612C109.503 42.9573 109.97 42.6216 109.97 42.1279Z" fill="black"/>
<path d="M111.148 40.4373H111.408V41.2036C111.62 40.7217 112.067 40.3741 112.597 40.3939V40.6782H112.57C111.949 40.6782 111.408 41.1483 111.408 42.0291V43.135H111.148V40.4373Z" fill="black"/>
<path d="M113.253 39.2761H113.512V42.1713L115.177 40.4413H115.519L114.345 41.6381L115.554 43.139H115.228L114.164 41.8197L113.512 42.4794V43.135H113.253V39.2761Z" fill="black"/>
<path d="M115.884 41.7921V41.7802C115.884 40.9982 116.43 40.3741 117.156 40.3741C117.91 40.3741 118.389 40.9903 118.389 41.7881C118.389 41.8355 118.389 41.8513 118.385 41.8948H116.159C116.206 42.5662 116.685 42.9573 117.211 42.9573C117.627 42.9573 117.91 42.7716 118.13 42.5346L118.31 42.6926C118.036 42.9889 117.717 43.2022 117.199 43.2022C116.496 43.2022 115.884 42.6373 115.884 41.7921ZM118.11 41.6618C118.071 41.1167 117.765 40.6151 117.148 40.6151C116.618 40.6151 116.206 41.0653 116.159 41.6618H118.11Z" fill="black"/>
<path d="M119.284 42.4438V40.6743H118.895V40.4373H119.284V39.5763H119.539V40.4373H120.481V40.6743H119.539V42.4162C119.539 42.8032 119.767 42.9415 120.077 42.9415C120.21 42.9415 120.32 42.9138 120.473 42.8467V43.0916C120.336 43.1548 120.206 43.1863 120.038 43.1863C119.621 43.1863 119.284 42.9573 119.284 42.4438Z" fill="black"/>
<path d="M121.255 39.3789H121.577V39.7344H121.255V39.3789ZM121.286 40.4374H121.545V43.1351H121.286V40.4374Z" fill="black"/>
<path d="M122.559 40.4373H122.818V40.939C122.998 40.623 123.297 40.3741 123.788 40.3741C124.467 40.3741 124.86 40.8402 124.86 41.484V43.135H124.6V41.5314C124.6 40.9745 124.29 40.6111 123.748 40.6111C123.222 40.6111 122.818 41.014 122.818 41.5749V43.135H122.559V40.4373Z" fill="black"/>
<path d="M125.735 43.5813L125.889 43.372C126.211 43.6208 126.576 43.7512 126.972 43.7512C127.589 43.7512 128.025 43.3957 128.025 42.7045V42.3135C127.793 42.6452 127.436 42.9375 126.906 42.9375C126.258 42.9375 125.618 42.4399 125.618 41.6657V41.6539C125.618 40.8758 126.258 40.3741 126.906 40.3741C127.444 40.3741 127.805 40.6585 128.025 40.9785V40.4373H128.284V42.7203C128.284 43.1113 128.158 43.4194 127.942 43.6366C127.711 43.8697 127.365 43.996 126.968 43.996C126.517 43.996 126.101 43.8578 125.735 43.5813ZM128.036 41.6618V41.6499C128.036 41.0259 127.483 40.623 126.925 40.623C126.364 40.623 125.889 41.014 125.889 41.646V41.6578C125.889 42.2661 126.372 42.6887 126.925 42.6887C127.487 42.6887 128.036 42.274 128.036 41.6618Z" fill="black"/>
<path d="M130.62 42.353V42.3411C130.62 41.7803 131.099 41.4643 131.794 41.4643C132.167 41.4643 132.426 41.5117 132.682 41.5788V41.4643C132.682 40.9192 132.352 40.6388 131.798 40.6388C131.472 40.6388 131.205 40.7296 130.958 40.856L130.864 40.627C131.158 40.4887 131.449 40.3939 131.814 40.3939C132.175 40.3939 132.466 40.4927 132.662 40.6902C132.839 40.8718 132.937 41.1207 132.937 41.4524V43.135H132.685V42.6848C132.501 42.9454 132.171 43.1982 131.661 43.1982C131.154 43.2022 130.62 42.9138 130.62 42.353ZM132.685 42.1279V41.8198C132.458 41.7605 132.159 41.6973 131.775 41.6973C131.205 41.6973 130.891 41.9501 130.891 42.3293V42.3411C130.891 42.7322 131.26 42.9612 131.668 42.9612C132.218 42.9573 132.685 42.6216 132.685 42.1279Z" fill="black"/>
<path d="M133.808 43.5813L133.961 43.372C134.283 43.6208 134.648 43.7512 135.045 43.7512C135.662 43.7512 136.097 43.3957 136.097 42.7045V42.3135C135.866 42.6452 135.508 42.9375 134.978 42.9375C134.33 42.9375 133.69 42.4399 133.69 41.6657V41.6539C133.69 40.8758 134.33 40.3741 134.978 40.3741C135.516 40.3741 135.877 40.6585 136.097 40.9785V40.4373H136.357V42.7203C136.357 43.1113 136.231 43.4194 136.015 43.6366C135.783 43.8697 135.438 43.996 135.041 43.996C134.594 43.996 134.177 43.8578 133.808 43.5813ZM136.113 41.6618V41.6499C136.113 41.0259 135.559 40.623 135.002 40.623C134.44 40.623 133.965 41.014 133.965 41.646V41.6578C133.965 42.2661 134.448 42.6887 135.002 42.6887C135.559 42.6887 136.113 42.274 136.113 41.6618Z" fill="black"/>
<path d="M137.15 41.7921V41.7802C137.15 40.9982 137.696 40.3741 138.422 40.3741C139.176 40.3741 139.655 40.9903 139.655 41.7881C139.655 41.8355 139.655 41.8513 139.651 41.8948H137.425C137.472 42.5662 137.951 42.9573 138.477 42.9573C138.893 42.9573 139.176 42.7716 139.396 42.5346L139.576 42.6926C139.302 42.9889 138.984 43.2022 138.465 43.2022C137.762 43.2022 137.15 42.6373 137.15 41.7921ZM139.376 41.6618C139.341 41.1167 139.031 40.6151 138.414 40.6151C137.884 40.6151 137.472 41.0653 137.425 41.6618H139.376Z" fill="black"/>
<path d="M140.409 40.4373H140.668V40.939C140.848 40.623 141.147 40.3741 141.638 40.3741C142.317 40.3741 142.71 40.8402 142.71 41.484V43.135H142.45V41.5314C142.45 40.9745 142.14 40.6111 141.598 40.6111C141.072 40.6111 140.668 41.014 140.668 41.5749V43.135H140.409V40.4373Z" fill="black"/>
<path d="M143.452 41.8V41.7881C143.452 41.0298 144.052 40.3741 144.818 40.3741C145.325 40.3741 145.639 40.6072 145.89 40.8718L145.705 41.0614C145.474 40.8244 145.211 40.6151 144.81 40.6151C144.202 40.6151 143.727 41.1285 143.727 41.7723V41.7842C143.727 42.4359 144.217 42.9533 144.83 42.9533C145.207 42.9533 145.501 42.7598 145.729 42.503L145.906 42.661C145.631 42.9731 145.305 43.1943 144.81 43.1943C144.048 43.2022 143.452 42.5544 143.452 41.8Z" fill="black"/>
<path d="M146.413 43.8856L146.503 43.6565C146.644 43.7236 146.762 43.7592 146.958 43.7592C147.237 43.7592 147.422 43.5933 147.622 43.1233L146.334 40.4414H146.632L147.748 42.8547L148.717 40.4414H149L147.838 43.2378C147.602 43.8026 147.327 44.0041 146.943 44.0041C146.738 44.0001 146.589 43.9646 146.413 43.8856Z" fill="black"/>
<path d="M1.157 12.6H1.703V9.324C1.703 8.986 1.677 8.752 1.677 8.752H1.703C1.703 8.752 2.236 10.156 3.952 10.156C5.629 10.156 6.838 8.817 6.838 6.75C6.838 4.735 5.772 3.344 4.03 3.344C2.223 3.344 1.716 4.735 1.716 4.735H1.69C1.69 4.735 1.703 4.514 1.703 4.215C1.703 3.721 1.482 3.5 0.949 3.5H0.312V3.994H0.871C1.053 3.994 1.157 4.085 1.157 4.28V12.6ZM1.69 6.763C1.69 4.722 2.808 3.877 4.004 3.877C5.33 3.877 6.266 4.995 6.266 6.75C6.266 8.57 5.226 9.636 3.952 9.636C2.47 9.636 1.69 8.206 1.69 6.763ZM8.01145 6.711C8.01145 8.648 9.51945 10.156 11.3785 10.156C13.2375 10.156 14.7455 8.648 14.7455 6.711C14.7455 4.813 13.2375 3.344 11.3785 3.344C9.51945 3.344 8.01145 4.813 8.01145 6.711ZM8.58345 6.711C8.58345 5.099 9.83145 3.877 11.3785 3.877C12.9255 3.877 14.1735 5.099 14.1735 6.711C14.1735 8.362 12.9255 9.623 11.3785 9.623C9.83145 9.623 8.58345 8.362 8.58345 6.711ZM17.9913 10H18.5763L20.3703 4.956C20.4873 4.644 20.5913 4.254 20.5913 4.254H20.6173C20.6173 4.254 20.7213 4.644 20.8383 4.956L22.6453 10H23.2303L25.2323 4.306C25.3233 4.059 25.4793 3.994 25.7263 3.994H25.8953V3.5H25.7393C25.0893 3.5 24.8943 3.604 24.6733 4.254L23.1653 8.596C23.0483 8.921 22.9443 9.298 22.9443 9.298H22.9183C22.9183 9.298 22.8013 8.908 22.6973 8.596L20.9163 3.526H20.3053L18.5243 8.596C18.4203 8.908 18.3033 9.298 18.3033 9.298H18.2773C18.2773 9.298 18.1603 8.908 18.0563 8.596L16.5483 4.254C16.3273 3.604 16.1323 3.5 15.4823 3.5H15.3263V3.994H15.4953C15.7423 3.994 15.8983 4.059 15.9893 4.306L17.9913 10ZM26.4704 6.763C26.4704 8.83 27.9914 10.156 29.8244 10.156C31.2284 10.156 32.1384 9.259 32.1384 9.259L31.8394 8.804C31.8394 8.804 31.0724 9.623 29.8244 9.623C28.3164 9.623 27.0424 8.544 27.0424 6.659H32.2554C32.2554 6.659 32.2814 6.451 32.2814 6.308C32.2814 4.735 31.3974 3.344 29.6294 3.344C27.9654 3.344 26.4704 4.566 26.4704 6.763ZM27.0814 6.152C27.3154 4.631 28.4204 3.851 29.6164 3.851C30.6954 3.851 31.6444 4.566 31.7094 6.152H27.0814ZM34.1267 10H34.6727V7.192C34.6727 6.763 34.7247 6.282 34.8677 5.827C35.1537 4.865 35.7907 4.007 36.8047 4.007C36.9477 4.007 37.1037 4.033 37.1037 4.033V3.487C37.1037 3.487 36.9217 3.448 36.7267 3.448C35.6997 3.448 34.9977 4.202 34.6727 5.203H34.6467C34.6467 5.203 34.6727 4.969 34.6727 4.67V4.215C34.6727 3.721 34.4517 3.5 33.9187 3.5H33.2817V3.994H33.8407C34.0227 3.994 34.1267 4.085 34.1267 4.28V10ZM37.6804 6.763C37.6804 8.83 39.2014 10.156 41.0344 10.156C42.4384 10.156 43.3484 9.259 43.3484 9.259L43.0494 8.804C43.0494 8.804 42.2824 9.623 41.0344 9.623C39.5264 9.623 38.2524 8.544 38.2524 6.659H43.4654C43.4654 6.659 43.4914 6.451 43.4914 6.308C43.4914 4.735 42.6074 3.344 40.8394 3.344C39.1754 3.344 37.6804 4.566 37.6804 6.763ZM38.2914 6.152C38.5254 4.631 39.6304 3.851 40.8264 3.851C41.9054 3.851 42.8544 4.566 42.9194 6.152H38.2914ZM44.7777 6.75C44.7777 8.765 45.8437 10.156 47.5857 10.156C49.3797 10.156 49.9127 8.752 49.9127 8.752H49.9387C49.9387 8.752 49.9127 8.947 49.9127 9.246C49.9127 9.779 50.1337 10 50.6667 10H51.3037V9.506H50.7447C50.5627 9.506 50.4587 9.415 50.4587 9.22V1.654C50.4587 1.121 50.2377 0.899999 49.7047 0.899999H49.0677V1.394H49.6267C49.8087 1.394 49.9127 1.485 49.9127 1.68V4.215C49.9127 4.514 49.9387 4.748 49.9387 4.748H49.9127C49.9127 4.748 49.3277 3.344 47.6897 3.344C45.9867 3.344 44.7777 4.683 44.7777 6.75ZM47.6117 9.623C46.2857 9.623 45.3497 8.505 45.3497 6.75C45.3497 4.93 46.3897 3.864 47.6637 3.864C49.1847 3.864 49.9257 5.294 49.9257 6.737C49.9257 8.778 48.8077 9.623 47.6117 9.623ZM56.3299 10H56.8759V9.324C56.8759 8.986 56.8499 8.752 56.8499 8.752H56.8759C56.8759 8.752 57.4609 10.156 59.0989 10.156C60.8019 10.156 62.0109 8.817 62.0109 6.75C62.0109 4.735 60.9449 3.344 59.2029 3.344C57.4089 3.344 56.8759 4.748 56.8759 4.748H56.8499C56.8499 4.748 56.8759 4.514 56.8759 4.215V1.654C56.8759 1.121 56.6549 0.899999 56.1219 0.899999H55.4849V1.394H56.0439C56.2259 1.394 56.3299 1.485 56.3299 1.68V10ZM56.8629 6.763C56.8629 4.722 57.9809 3.877 59.1769 3.877C60.5029 3.877 61.4389 4.995 61.4389 6.75C61.4389 8.57 60.3989 9.636 59.1249 9.636C57.6039 9.636 56.8629 8.206 56.8629 6.763ZM62.9543 11.703L62.6293 12.119C62.6293 12.119 63.0843 12.73 63.9293 12.73C64.7483 12.73 65.2943 12.197 65.5803 11.521L68.5833 4.306C68.6873 4.059 68.8303 3.994 69.0773 3.994H69.1813V3.5H69.0903C68.4403 3.5 68.2843 3.617 68.0243 4.254L66.1913 8.687C66.0613 8.999 65.9703 9.298 65.9703 9.298H65.9443C65.9443 9.298 65.8533 8.999 65.7233 8.687L63.8773 4.254C63.6173 3.617 63.4613 3.5 62.8113 3.5H62.7203V3.994H62.8243C63.0713 3.994 63.2143 4.059 63.3183 4.306L65.6713 9.961L65.2033 11.04C64.9433 11.651 64.5533 12.21 63.9293 12.21C63.3703 12.21 62.9543 11.716 62.9543 11.703Z" fill="#666666"/>
</svg>
