<svg width="111" height="200" viewBox="0 0 111 200" fill="none" xmlns="http://www.w3.org/2000/svg">
<path d="M75.9289 50.328C76.5262 50.6008 76.8032 71.0097 71.3946 73.0702C65.9859 75.1307 57.3574 70.8919 57.3574 70.8919C57.3574 70.8919 55.5552 48.6952 55.7763 44.7457C55.9975 40.7962 52.668 25.7794 52.668 25.7794C52.668 25.7794 64.0391 27.9949 68.8545 44.6093C73.6721 61.2217 75.9289 50.328 75.9289 50.328Z" fill="#E82844"/>
<path d="M2.24219 182.706L10.9555 188.79L17.3251 179.57L7.95874 174.466L2.24219 182.706Z" fill="#FE9F73"/>
<path d="M18.8155 195.949L17.6127 195.085L14.4176 187.744L8.98 188.879L1.45713 183.47C1.26906 183.336 1.00865 183.379 0.872247 183.568L0.0538249 184.708C-0.0391777 184.836 -0.00817684 185.016 0.11996 185.109L17.6189 197.689C18.148 198.07 18.9085 197.89 19.1958 197.266C19.4087 196.801 19.2289 196.247 18.8155 195.949Z" fill="#4CB7D8"/>
<path d="M13.3352 185.407C8.9641 186.066 7.53186 181.896 7.53186 181.896C6.22775 179.637 3.73529 180.434 3.73529 180.434L1.51562 183.526L18.8203 195.968C19.0208 194.686 17.6898 192.839 17.6898 192.839L13.3352 185.407Z" fill="#EF3A4C"/>
<path d="M1.46484 183.466L1.59298 183.557L3.79817 180.48L3.67004 180.387L1.46484 183.466Z" fill="black"/>
<path d="M7.60193 181.869L7.45312 181.922C7.97394 183.369 8.95977 184.245 9.51985 184.646C9.76372 184.822 9.92699 184.907 9.93113 184.911L10.0035 184.77C9.98899 184.76 8.32735 183.888 7.60193 181.869Z" fill="black"/>
<path d="M3.0625 182.929L3.48411 184.068L3.63292 184.012L3.2113 182.873L3.0625 182.929Z" fill="black"/>
<path d="M3.90122 183.149L3.75391 183.204L4.17487 184.342L4.32219 184.287L3.90122 183.149Z" fill="black"/>
<path d="M18.8867 195.914L1.58617 183.474C1.31337 183.278 0.933089 183.342 0.738817 183.615L0.125 184.471L0.253137 184.564L0.866954 183.708C1.01162 183.505 1.2927 183.46 1.49524 183.605L18.7958 196.044C19.2319 196.358 19.3331 196.97 19.019 197.408C18.8516 197.642 18.5912 197.789 18.306 197.813L18.3184 197.97C18.6511 197.944 18.9528 197.772 19.1471 197.501C19.5109 196.989 19.3951 196.278 18.8867 195.914Z" fill="black"/>
<path d="M13.402 185.368L13.2656 185.448C13.3049 185.514 17.1573 192.091 18.0501 193.564C18.9222 195.007 18.7672 195.955 18.7652 195.966L18.9202 195.995C18.9284 195.953 19.0917 194.982 18.1844 193.484C17.2957 192.008 13.4413 185.434 13.402 185.368Z" fill="black"/>
<path d="M50.2852 186.777L50.436 196.811L61.0569 196.664L60.8647 185.454L50.2852 186.777Z" fill="#FE9F73"/>
<path d="M71.6116 197.888H70.1318L63.2621 193.789L59.5068 197.888H50.2438C50.0123 197.888 49.8242 198.076 49.8242 198.307V199.713C49.8242 199.872 49.9524 200 50.1115 200H71.6509C72.3019 200 72.8145 199.409 72.6843 198.735C72.5892 198.233 72.1221 197.888 71.6116 197.888Z" fill="#4CB7D8"/>
<path d="M68.8873 196.019L61.0234 192.525C57.8572 195.614 54.2632 193.062 54.2632 193.062C51.8885 191.989 50.3281 194.091 50.3281 194.091V197.9H71.6278C71.045 196.741 68.8873 196.019 68.8873 196.019Z" fill="#EF3A4C"/>
<path d="M50.4071 194.091H50.25V197.882H50.4071V194.091Z" fill="black"/>
<path d="M54.3076 192.996L54.2188 193.126C55.4836 193.998 56.796 194.133 57.4842 194.133C57.7859 194.133 57.9657 194.108 57.9719 194.106L57.9492 193.949C57.9285 193.953 56.0726 194.213 54.3076 192.996Z" fill="black"/>
<path d="M51.2344 196.511L52.2388 197.189L52.3277 197.057L51.3232 196.379L51.2344 196.511Z" fill="black"/>
<path d="M51.957 196.319L52.9615 196.997L53.0483 196.867L52.0438 196.187L51.957 196.319Z" fill="black"/>
<path d="M71.6513 197.818H50.3537C50.0189 197.818 49.7461 198.09 49.7461 198.425V199.477H49.9032V198.425C49.9032 198.177 50.1057 197.975 50.3537 197.975H71.6513C72.1886 197.975 72.6268 198.413 72.6268 198.952C72.6268 199.239 72.5007 199.51 72.2816 199.698L72.3829 199.818C72.6371 199.601 72.7838 199.287 72.7838 198.952C72.7838 198.326 72.2754 197.818 71.6513 197.818Z" fill="black"/>
<path d="M69.6662 196.251C68.0852 195.575 61.1265 192.483 61.0563 192.452L60.9922 192.597C61.0625 192.628 68.0211 195.72 69.6042 196.396C71.1522 197.057 71.5779 197.919 71.5821 197.929L71.7247 197.861C71.7061 197.824 71.2741 196.939 69.6662 196.251Z" fill="black"/>
<path d="M81.6411 37.9627C81.6411 37.9627 81.5378 37.0203 80.7979 36.4292C80.058 35.8381 77.4085 37.6754 77.4085 37.6754C74.4469 36.1461 73.9963 38.3016 72.2809 41.2653C71.6775 42.307 70.6875 43.7433 70.6875 43.7433C70.8074 45.0929 74.7734 50.7909 74.7734 50.7909C74.7734 50.7909 81.0976 47.9016 82.1496 46.9447C83.2036 45.9878 84.2245 44.6796 84.2245 44.6796C84.8239 43.6669 83.9352 42.3586 83.9352 42.3586C83.7451 41.2571 82.877 40.3601 82.877 40.3601C82.8915 38.6489 81.6411 37.9627 81.6411 37.9627Z" fill="#FE9F73"/>
<path d="M81.7043 29.6586L77.2712 28.6666C76.8227 28.5653 76.3639 28.9042 76.2503 29.4209L75.0578 34.7675L73.9603 39.6801C73.8446 40.1968 74.1153 40.697 74.5638 40.7982L78.9969 41.7903C79.4454 41.8915 79.9042 41.5526 80.0179 41.0359L82.3078 30.7767C82.4236 30.26 82.1528 29.7599 81.7043 29.6586Z" fill="#49263E"/>
<path d="M81.7431 29.4974L77.31 28.5054C77.2212 28.4847 77.1323 28.5405 77.1137 28.6294C77.093 28.7183 77.1488 28.8071 77.2377 28.8257L81.6708 29.8178C82.0304 29.8984 82.2454 30.3117 82.1503 30.7395L79.8604 40.9987C79.7653 41.4266 79.3953 41.7076 79.0357 41.627C78.9469 41.6064 78.858 41.6622 78.8394 41.751C78.8187 41.8399 78.8745 41.9288 78.9634 41.9474C79.5007 42.0672 80.0464 41.6725 80.1828 41.069L82.4727 30.8098C82.607 30.2084 82.2784 29.6173 81.7431 29.4974Z" fill="#21111D"/>
<g opacity="0.5">
<g opacity="0.5">
<g opacity="0.5">
<g opacity="0.5">
<g opacity="0.5">
<path opacity="0.5" d="M80.928 30.6754L80.6036 30.6031C80.2729 30.5287 79.9464 30.7374 79.872 31.0681L79.5971 32.3019C79.5227 32.6326 79.7314 32.9612 80.0621 33.0356L80.3866 33.1079C80.7172 33.1823 81.0438 32.9736 81.1182 32.6429L81.3931 31.4091C81.4675 31.0784 81.2587 30.7498 80.928 30.6754Z" fill="#E2F2F1"/>
</g>
</g>
</g>
</g>
</g>
<path d="M64.8614 90.7634C64.4769 88.2647 61.8873 86.7581 59.5313 87.6654L44.7687 93.3468C43.1938 93.9523 42.1749 95.49 42.2328 97.1785C42.6338 108.969 44.3739 155.094 48.0341 185.271C48.2759 187.259 49.9582 188.761 51.9588 188.755C54.1743 188.749 57.2537 188.484 60.668 187.441C62.3172 186.936 63.4642 185.434 63.4911 183.706L64.9792 91.8836C64.9833 91.6603 64.9668 91.4371 64.9337 91.216L64.8614 90.7634Z" fill="#33192C"/>
<path d="M30.4047 134.295C30.4047 134.295 12.5172 162.102 5.65572 174.178C4.83729 175.621 5.1969 177.44 6.49687 178.467C8.33832 179.924 11.3103 181.893 15.2391 183.255C16.5721 183.716 18.0519 183.293 18.9365 182.193L50.9479 143.866C51.9152 142.708 52.5662 141.32 52.8411 139.836L60.6822 97.2487L32.8869 91.7533L30.4047 134.295Z" fill="#49263E"/>
<path d="M27.5223 62.2943C27.6091 64.5698 26.7989 98.1953 30.054 101.173C33.3091 104.152 67.6456 102.951 68.6067 99.7268C69.5677 96.5027 67.4266 60.7112 67.4266 60.7112L27.5223 62.2943Z" fill="#EF3A4C"/>
<path d="M68.0687 74.2421L63.8878 43.3569C63.3628 39.4839 62.1186 35.7307 60.1243 32.3702C58.3448 29.3735 55.8523 26.4615 52.6717 25.7795C53.1904 26.0419 51.5515 25.5521 51.5515 25.5521C51.5515 25.5521 39.0664 25.579 34.3192 26.0729C26.941 26.8397 26.9038 44.475 26.9038 44.475C26.4718 57.1006 29.08 80.0991 29.08 80.0991C35.4145 88.831 68.0687 74.2421 68.0687 74.2421Z" fill="#EF3A4C"/>
<path d="M48.6068 29.419L40.8235 27.065L36.3945 34.5052C36.3945 34.5052 47.9516 33.2775 48.4063 33.3189C48.861 33.3581 52.3972 29.6773 52.4178 29.421C52.4385 29.1647 51.7668 26.0564 51.7668 26.0564L48.6068 29.419Z" fill="#EF3A4C"/>
<path d="M41.1232 12.3602L42.3116 11.7464L41.9106 8.36938L42.6939 4.37854C42.696 4.38061 39.5525 6.00505 41.1232 12.3602Z" fill="#21111D"/>
<path d="M53.7132 8.32386L42.5219 5.43872L42.1664 16.1774L42.2615 18.9489C42.2615 18.9489 41.4802 24.589 41.7406 25.7691C42.0011 26.9492 43.6937 29.3114 46.8165 29.3114C47.8003 29.3114 48.6704 29.142 49.3979 28.9105C50.8859 28.4351 51.8118 26.9409 51.6217 25.3805L51.1112 21.1809C53.8434 20.7883 53.7132 17.6386 53.7132 17.6386V8.32386Z" fill="#FE9F73"/>
<path d="M46.0789 12.7571C46.0293 12.8087 46.0314 12.8914 46.083 12.9431C46.1078 12.9679 46.1409 12.9803 46.174 12.9803C46.2091 12.9803 46.2422 12.9658 46.267 12.941C46.3331 12.8707 47.91 11.2504 49.3588 12.4284C49.4146 12.4739 49.4973 12.4656 49.5427 12.4078C49.5882 12.352 49.5799 12.2693 49.5221 12.2238C47.8873 10.8929 46.0975 12.7384 46.0789 12.7571Z" fill="#21111D"/>
<path d="M51.4507 11.9634C51.397 12.0109 51.3908 12.0936 51.4383 12.1494C51.4631 12.1804 51.5003 12.1949 51.5375 12.1949C51.5685 12.1949 51.5975 12.1845 51.6223 12.1639C51.6326 12.1535 52.7466 11.1966 53.3604 11.7278C53.4141 11.7753 53.4968 11.7691 53.5443 11.7133C53.5919 11.6575 53.5857 11.5748 53.5299 11.5294C52.7445 10.8474 51.5024 11.9158 51.4507 11.9634Z" fill="#21111D"/>
<path d="M48.414 13.1166C48.1991 13.1166 48.0234 13.2922 48.0234 13.5093C48.0234 13.7263 48.1991 13.9019 48.414 13.9019C48.629 13.9019 48.8047 13.7263 48.8047 13.5093C48.8047 13.2922 48.629 13.1166 48.414 13.1166Z" fill="black"/>
<path d="M52.5625 12.7239C52.3475 12.7239 52.1719 12.8995 52.1719 13.1166C52.1719 13.3336 52.3475 13.5092 52.5625 13.5092C52.7774 13.5092 52.9531 13.3336 52.9531 13.1166C52.9531 12.8995 52.7774 12.7239 52.5625 12.7239Z" fill="black"/>
<path d="M41.908 11.2855C40.6142 11.2855 39.5664 12.3416 39.5664 13.6457C39.5664 14.9498 40.6142 16.0059 41.908 16.0059C43.2018 16.0059 44.2496 14.9498 44.2496 13.6457C44.2496 12.3416 43.2018 11.2855 41.908 11.2855Z" fill="#FE9F73"/>
<path d="M42.0028 12.6247C41.4902 12.3416 40.8847 12.54 40.8599 12.5483C40.8268 12.5607 40.8082 12.5958 40.8185 12.6309C40.8289 12.6661 40.8661 12.6847 40.9012 12.6723C40.9074 12.6702 41.4799 12.4842 41.9408 12.7405C42.1536 12.8583 42.3128 13.0546 42.4141 13.3212C42.1722 13.1621 41.7031 12.9533 41.1843 13.2778C40.833 13.4969 40.6883 13.9206 40.8144 14.3567C40.9219 14.7245 41.2463 15.0945 41.7341 15.0945C41.7382 15.0945 41.7424 15.0945 41.7486 15.0945C41.7837 15.0945 41.8126 15.0635 41.8126 15.0283C41.8126 14.9932 41.7837 14.9643 41.7486 14.9643C41.7444 14.9643 41.7403 14.9643 41.7362 14.9643C41.2898 14.9643 41.0293 14.6191 40.9425 14.3215C40.8599 14.0342 40.8909 13.6188 41.2567 13.3915C41.916 12.9802 42.4719 13.5258 42.4947 13.5486L42.66 13.7139L42.6042 13.4845C42.5009 13.0774 42.2983 12.788 42.0028 12.6247Z" fill="#F07162"/>
<path d="M45.6244 16.3345C45.2813 16.1691 44.9775 12.4387 44.8535 11.054C44.7977 10.4174 44.5394 9.81603 44.1198 9.33655L43.9297 11.0127L43.9896 16.7891C44.343 19.5875 44.9196 23.0079 50.8635 22.6876C55.0177 22.4644 54.1682 16.1567 54.1682 16.1567C53.2423 15.547 46.108 16.568 45.6244 16.3345Z" fill="#21111D"/>
<path d="M51.1102 12.4346C51.0751 12.4387 51.0503 12.4718 51.0544 12.509L51.4657 15.6029L50.1616 16.0369C50.1264 16.0493 50.1099 16.0844 50.1202 16.1196C50.1285 16.1464 50.1554 16.165 50.1822 16.165C50.1884 16.165 50.1967 16.163 50.2029 16.1609L51.6103 15.6918L51.1846 12.4904C51.1784 12.4553 51.1453 12.4284 51.1102 12.4346Z" fill="#F07162"/>
<path d="M50.4884 18.457C51.4308 18.4322 51.7491 17.374 51.7491 17.374C51.7491 17.374 49.2132 17.434 49.1719 17.4422C49.1719 17.4422 49.546 18.4818 50.4884 18.457Z" fill="#FBFDFC"/>
<path d="M44.1081 9.44409L42.9321 8.37146L41.7148 11.3021C41.7148 11.3021 43.2194 11.5521 43.2463 13.1187C43.2732 14.6853 42.4279 17.1323 45.1373 20.6478C47.8468 24.1633 44.9183 15.4004 44.8935 15.0945C44.8666 14.7886 44.1081 9.44409 44.1081 9.44409Z" fill="#21111D"/>
<path d="M51.4058 4.2937V4.29783C48.3016 2.42331 43.9491 3.13427 42.6946 4.38257C40.1794 6.88124 42.3267 11.302 42.3267 11.302C42.3866 10.7687 42.5024 10.3058 42.6656 9.89245C43.42 12.1038 45.497 17.8803 45.0424 13.1186C44.7427 9.99579 44.9514 8.41061 45.2056 7.61079C46.1687 7.31525 47.3406 7.23878 48.6819 7.32765C50.0335 7.41652 51.0793 7.79473 51.8584 8.23494L53.2493 9.30137C53.5676 9.62998 53.7143 9.86765 53.7143 9.86765C53.7019 9.78498 53.6854 9.70438 53.6689 9.62378L53.7143 9.65891C53.8301 9.55144 54.942 6.02561 51.4058 4.2937Z" fill="#21111D"/>
<path d="M47.0493 7.30707C44.7222 7.62741 49.2318 10.1922 49.2855 10.1922C49.3393 10.1922 53.7166 10.9383 53.7166 10.9383C53.7166 10.9383 53.8096 9.02658 53.7166 8.60704C53.6236 8.18956 49.3765 6.98879 47.0493 7.30707Z" fill="#FE9F73"/>
<path d="M45.5187 8.76613L45.6489 7.79684L43.4023 5.70325L45.5187 8.76613Z" fill="#FE9F73"/>
<path d="M43.5961 0.139649C41.0871 1.12134 40.6551 3.20253 42.9285 4.5769C45.2019 5.95127 45.6463 3.67374 45.6463 3.67374C45.6463 3.67374 46.1071 -0.842044 43.5961 0.139649Z" fill="#21111D"/>
<path d="M51.295 22.7062L51.6174 25.3413C51.6174 25.3413 49.6913 28.2368 48.3727 29.1606C45.7583 27.344 41.7137 24.806 41.7137 24.806L41.9493 21.4745C37.0966 20.9206 31.5723 23.9752 32.8351 25.548C34.0999 27.1208 40.6721 27.6044 42.4164 28.1789C44.138 28.7452 48.5339 30.0803 48.5339 30.0803C49.6892 29.2206 52.7769 25.8559 52.7769 25.8559L55.7757 27.2365C55.8356 24.0455 51.295 22.7062 51.295 22.7062Z" fill="#FD7583"/>
<path d="M75.6309 45.5373L80.2934 43.4127L79.1195 40.4656L78.5325 38.992L78.5842 36.9584C78.5842 36.9584 74.4094 39.2462 72.9338 41.8586C71.4561 44.473 75.6309 45.5373 75.6309 45.5373Z" fill="#FE9F73"/>
<path d="M83.7652 42.2367C83.757 42.247 83.0212 43.2597 81.6572 44.0348C81.5559 44.0926 81.5208 44.2228 81.5787 44.3241C81.6365 44.4254 81.7647 44.4605 81.8659 44.4047C81.8659 44.4047 81.868 44.4047 81.868 44.4026C83.3106 43.5822 84.0794 42.5281 84.1104 42.4827C84.1786 42.3876 84.1579 42.2553 84.0629 42.1871C83.9657 42.1189 83.8335 42.1416 83.7652 42.2367Z" fill="#F07162"/>
<path d="M78.0076 37.3014C76.7407 38.1839 78.423 42.8712 78.423 42.8712L81.2441 43.3734C81.2441 43.3734 83.3893 42.1354 83.4679 41.8688C83.5443 41.6022 80.4112 36.3156 80.4112 36.3156C80.4112 36.3156 79.2745 36.421 78.0076 37.3014Z" fill="#FE9F73"/>
<path d="M81.5296 37.7829C81.5296 37.7829 80.1572 38.6365 78.9503 39.3991C78.8511 39.4611 78.8221 39.5934 78.8841 39.6926C78.9441 39.7877 79.0681 39.8187 79.1652 39.7649C79.1693 39.7629 79.1735 39.7608 79.1755 39.7587C80.3805 38.9982 81.7528 38.1446 81.7528 38.1446C81.852 38.0826 81.883 37.9524 81.821 37.8532C81.759 37.7519 81.6184 37.7271 81.5296 37.7829Z" fill="#F07162"/>
<path d="M82.7563 40.0315C82.748 40.0377 81.851 40.6494 80.0675 41.7758C79.9683 41.8378 79.9393 41.9701 80.0013 42.0693C80.0613 42.1643 80.1853 42.1953 80.2824 42.1416C80.2865 42.1395 80.2907 42.1375 80.2927 42.1354C82.0846 41.0028 82.9857 40.389 82.996 40.3828C83.0931 40.3167 83.1179 40.1844 83.0518 40.0873C82.9857 39.9901 82.8575 39.9674 82.7563 40.0315Z" fill="#F07162"/>
<path d="M77.1793 37.599L74.0049 40.2816C73.916 40.3581 73.9036 40.4904 73.9801 40.5813C74.04 40.6516 74.1371 40.6743 74.2177 40.6433C74.2384 40.6351 74.2591 40.6227 74.2777 40.6082L77.4522 37.9256C77.541 37.8491 77.5534 37.7168 77.477 37.6259C77.4025 37.535 77.2682 37.5226 77.1793 37.599Z" fill="#F07162"/>
<path d="M70.0746 41.0546C70.0746 41.0546 75.8573 45.1529 78.3663 50.328C78.3663 50.328 65.5691 76.7469 52.4889 78.3816C39.4086 80.0164 33.1836 60.6781 33.1836 60.6781L56.9096 51.3179L70.0746 41.0546Z" fill="#EF3A4C"/>
<path d="M48.3599 78.7805C47.8597 78.7805 47.3637 78.7578 46.8677 78.7082C37.4517 77.803 32.876 71.6462 30.6956 66.6385C28.3416 61.2341 28.2052 55.9701 28.2031 55.9164L28.6619 55.9061C28.664 55.9577 28.8004 61.1431 31.1213 66.467C34.2214 73.5765 39.535 77.5426 46.9111 78.2494C56.108 79.1319 64.1124 71.4829 69.2028 64.9108C74.4274 58.165 77.7363 51.1464 78.1227 50.3135C77.017 47.1452 71.0669 42.1623 70.0729 41.3481L48.5397 58.136L47.465 60.3144L47.0537 60.1098L48.1759 57.8364L70.0791 40.759L70.2196 40.8727C70.5131 41.1083 77.4283 46.6885 78.5878 50.2536L78.6146 50.3383L78.5774 50.4189C78.5444 50.4933 75.1363 57.9976 69.5644 65.1898C62.6575 74.1139 55.3578 78.7785 48.3599 78.7805Z" fill="#1D1D1B"/>
<path d="M48.1284 58.0244C48.0974 57.828 44.896 38.2458 41.7029 32.1986C38.5884 26.3002 32.9669 28.2388 32.7292 28.3235L32.5742 27.8916C32.6362 27.8688 38.8033 25.7277 42.108 31.9837C45.3362 38.0991 48.4508 57.144 48.581 57.952L48.1284 58.0244Z" fill="#1D1D1B"/>
<path d="M80.0938 36.3694C80.0938 36.3694 80.7034 36.0966 81.154 36.7951C81.3855 37.1526 81.2449 37.8161 81.2284 37.8078C80.9163 37.6693 80.0938 36.3694 80.0938 36.3694Z" fill="#FE9F73"/>
<path d="M28.7817 98.7533C27.5458 95.0353 27.366 81.8062 27.2812 75.4469L27.273 74.86C27.1924 68.9801 26.9113 57.051 26.6219 48.6663C26.3367 40.3974 27.8392 34.5051 27.8537 34.4452L28.2981 34.5609C28.2836 34.6188 26.7976 40.4532 27.0808 48.6498C27.3701 57.0386 27.6512 68.9698 27.7318 74.8538L27.74 75.4407C27.8248 81.7752 28.0025 94.9568 29.2177 98.6066L28.7817 98.7533Z" fill="#1D1D1B"/>
<path d="M63.9658 45.651C63.6041 37.7912 59.9708 32.5562 59.9336 32.5045L60.3077 32.24C60.3449 32.2937 64.0546 37.6321 64.4225 45.6303L63.9658 45.651Z" fill="#1D1D1B"/>
<path d="M69.0882 93.7063L68.6293 93.6981C68.7244 88.7979 67.8481 67.0105 67.8398 66.7914L68.2987 66.7728C68.3069 66.9919 69.1812 88.7917 69.0882 93.7063Z" fill="#1D1D1B"/>
<path d="M110.97 7.95188V21.7617C110.97 22.7351 110.18 23.5246 109.207 23.5246H89.3579L83.2156 26.2858L83.6145 23.5246C82.6411 23.5246 81.8516 22.7351 81.8516 21.7617V7.95188C81.8516 6.97845 82.6411 6.18896 83.6145 6.18896H109.207C110.18 6.19103 110.97 6.98052 110.97 7.95188Z" fill="#FAE0B2"/>
<path d="M107.401 11.424H85.9626C85.4149 11.424 84.9727 10.9797 84.9727 10.4341C84.9727 9.88637 85.417 9.44409 85.9626 9.44409H107.401C107.948 9.44409 108.391 9.88844 108.391 10.4341C108.391 10.9817 107.948 11.424 107.401 11.424Z" fill="white"/>
<path d="M107.401 14.398H85.9626C85.4149 14.398 84.9727 13.9537 84.9727 13.408C84.9727 12.8604 85.417 12.416 85.9626 12.416H107.401C107.948 12.416 108.391 12.8604 108.391 13.408C108.391 13.9537 107.948 14.398 107.401 14.398Z" fill="white"/>
<path d="M100.123 17.6324H86.197C85.6493 17.6324 85.207 17.188 85.207 16.6403C85.207 16.0927 85.6514 15.6504 86.197 15.6504H100.123C100.67 15.6504 101.115 16.0947 101.115 16.6403C101.115 17.188 100.67 17.6324 100.123 17.6324Z" fill="white"/>
</svg>
