<svg width="300" height="164" viewBox="0 0 300 164" fill="none" xmlns="http://www.w3.org/2000/svg">
<path d="M212.02 101.292C212.373 92.6341 213.131 85.1016 214.04 79.8495C215.487 71.4763 216.792 66.6598 216.806 66.6094C216.997 65.8732 219.752 62.8944 225.877 62.9862C232.004 63.078 231.423 66.9856 231.423 66.9856C231.423 67.117 231.407 67.2412 231.38 67.333C231.32 67.5346 225.697 87.9238 225.94 114.249C225.944 114.618 225.985 115.257 225.958 115.684C225.958 115.685 211.763 116.051 211.759 115.684C211.264 113.383 211.505 107.008 212.02 101.292Z" fill="#D1A586"/>
<path d="M210.233 114.12C210.236 114.487 210.431 114.78 210.667 114.78H210.672C210.908 114.775 211.097 114.481 211.099 114.12H223.264C223.268 114.487 223.462 114.78 223.698 114.78H223.703C223.945 114.775 224.135 114.471 224.132 114.1C224.061 106.564 224.492 99.5278 225.141 93.3163C226.76 77.8282 229.749 67.4752 229.791 67.333C229.818 67.2412 229.834 67.117 229.834 66.9856C229.834 66.9856 230.415 63.0798 224.29 62.9862C218.163 62.8944 215.408 65.8732 215.217 66.6094C215.206 66.6472 214.468 69.3758 213.487 74.2788C213.161 75.9041 212.812 77.767 212.45 79.8495C211.543 85.1016 210.784 92.6341 210.431 101.292C209.92 107.008 209.738 111.819 210.233 114.12Z" fill="#E5BD9E"/>
<path d="M210.233 114.119C210.236 114.487 210.431 114.78 210.667 114.78H210.672C210.908 114.775 211.097 114.481 211.099 114.119H223.264C223.268 114.487 223.462 114.78 223.698 114.78H223.703C223.945 114.775 224.135 114.47 224.132 114.1C224.061 106.564 224.492 99.5277 225.141 93.3163C223.129 83.487 215.355 75.9688 213.487 74.2805C213.161 75.9058 212.812 77.7687 212.45 79.8512C211.543 85.1033 210.784 92.6359 210.431 101.293C209.92 107.008 209.738 111.819 210.233 114.119Z" fill="#DFB697"/>
<path d="M222.496 113.994L222.462 113.97C222.451 113.963 222.444 113.958 222.44 113.909H222.433C222.437 113.805 222.404 113.722 222.336 113.652C221.949 113.257 220.479 113.274 218.614 113.295C216.578 113.319 214.044 113.347 211.515 112.905C210.21 112.676 211.09 102.62 212.017 93.2119C212.176 91.6118 212.3 90.3482 212.356 89.6049C212.957 81.6421 216.454 67.3941 216.486 67.2807C216.641 66.6814 218.742 64.4639 223.299 64.5377C225.012 64.5629 226.229 64.9877 226.917 65.7958C227.622 66.6274 227.495 67.5507 227.489 67.5903C227.491 67.6785 227.478 67.7775 227.455 67.8585C227.437 67.9359 224.287 86.3093 223.772 90.7226C222.925 97.9852 222.586 113.04 222.572 113.878C222.572 113.889 222.572 113.9 222.572 113.909L222.57 113.95L222.496 113.994ZM219.778 113.146C221.137 113.146 222.097 113.209 222.435 113.554C222.437 113.556 222.437 113.556 222.439 113.558C222.444 113.211 222.462 112.563 222.496 111.34C222.536 109.902 222.604 107.654 222.705 105.12C222.88 100.685 223.184 94.5852 223.636 90.7064C224.161 86.1977 227.306 67.8765 227.322 67.8207C227.342 67.7541 227.352 67.6677 227.352 67.5831C227.354 67.5633 227.477 66.6706 226.811 65.8876C226.15 65.1119 224.967 64.7051 223.299 64.6799C223.231 64.6799 223.16 64.6781 223.092 64.6781C218.76 64.6781 216.771 66.7516 216.623 67.3203C216.589 67.4517 213.103 81.6043 212.498 89.6175L212.428 89.6121L212.498 89.6175C212.442 90.3626 212.316 91.6262 212.159 93.2263C211.54 99.4953 210.253 112.543 211.542 112.768C214.056 113.209 216.584 113.18 218.614 113.157C219.026 113.149 219.417 113.146 219.778 113.146Z" fill="#D1A586"/>
<path d="M225.035 114.782H177.336C177.336 114.782 178.446 110.288 206.071 110.955C225.62 111.429 225.035 114.782 225.035 114.782Z" fill="#E5BD9E"/>
<path d="M228.916 161.732C223.384 133.735 224.806 116.555 224.814 116.339C224.828 115.909 224.032 115.516 223.606 115.502C223.174 115.495 221.264 115.374 221.043 115.743C220.753 116.227 219.639 137.394 227.882 161.732H228.916Z" fill="#D1A586"/>
<path d="M184.383 161.732C189.914 133.735 188.492 116.555 188.485 116.339C188.47 115.909 189.266 115.516 189.693 115.502C190.124 115.495 192.034 115.374 192.256 115.743C192.545 116.227 193.659 137.394 185.416 161.732H184.383Z" fill="#D1A586"/>
<path d="M175.555 161.732C181.086 133.735 179.664 116.555 179.657 116.339C179.642 115.909 180.438 115.516 180.864 115.502C181.296 115.495 183.206 115.374 183.427 115.743C183.717 116.227 184.831 137.394 176.588 161.732H175.555Z" fill="#A0795F"/>
<path d="M220.029 161.732C214.498 133.735 215.92 116.555 215.927 116.339C215.941 115.909 215.146 115.516 214.719 115.502C214.287 115.495 212.377 115.374 212.156 115.743C211.866 116.227 210.752 137.394 218.996 161.732H220.029Z" fill="#A0795F"/>
<path d="M177.101 116.216H225.217C225.64 116.216 225.986 115.871 225.986 115.448V114.388C225.986 113.965 225.64 113.619 225.217 113.619H177.101C176.678 113.619 176.332 113.965 176.332 114.388V115.448C176.332 115.869 176.678 116.216 177.101 116.216Z" fill="#D1A586"/>
<path d="M243.148 78.5715C243.148 78.5715 247.09 80.1716 249.891 76.1524C249.893 76.1524 245.344 75.3803 243.148 78.5715Z" fill="#6BB7BF"/>
<path d="M242.873 76.9227C242.873 76.9227 242.598 75.5152 240.945 75.4666C240.945 75.4648 241.566 76.8921 242.873 76.9227Z" fill="#6BB7BF"/>
<path d="M243.703 68.6792C243.703 68.6792 245.613 68.8826 246.329 66.7893C246.329 66.7893 244.259 67.0197 243.703 68.6792Z" fill="#6BB7BF"/>
<path d="M248.238 40.9931C244.383 40.1669 244.316 37.0117 244.316 37.0117C248.859 38.448 248.238 40.9931 248.238 40.9931Z" fill="#6BB7BF"/>
<path d="M248.504 40.2749C248.504 40.2749 250.91 41.2505 252.62 38.7972C252.62 38.7972 249.845 38.3274 248.504 40.2749Z" fill="#6BB7BF"/>
<path d="M243.226 87.8211L242.727 88.3953C242.652 88.4817 242.508 88.4277 242.508 88.3125C242.537 72.0774 244.598 57.6548 246.329 49.1449C248.219 39.8574 250.134 34.3659 250.154 34.3119C250.134 34.3659 248.406 39.9456 246.523 49.2061C244.79 57.7304 242.807 68.8718 243.307 87.6033C243.311 87.6825 243.278 87.7617 243.226 87.8211Z" fill="#6BB7BF"/>
<path d="M250.12 32.0998C249.504 32.5948 247.15 34.7006 249.434 36.3242C249.434 36.3242 251.185 36.8785 251.765 35.5304C252.208 34.5009 252.327 33.3525 252.359 32.8665C252.368 32.7406 252.273 32.6326 252.147 32.6218C252.012 32.6092 251.832 32.5786 251.652 32.5102C251.436 32.4256 251.324 32.098 251.032 32.0278C250.849 31.9828 250.662 31.9432 250.449 31.963C250.329 31.972 250.215 32.0242 250.12 32.0998Z" fill="#F99746"/>
<path d="M248.816 35.7356C248.816 35.7356 249.513 36.2954 249.256 37.1881L249.248 37.5193C249.248 37.5193 249.434 36.6931 250.289 36.4376C250.289 36.4376 249.518 36.5222 248.816 35.7356Z" fill="#6BB7BF"/>
<path d="M248.238 40.9931C244.383 40.1669 244.316 37.0117 244.316 37.0117C244.316 37.0117 247.373 38.691 248.238 40.9931Z" fill="#8AD8DB"/>
<path d="M244.535 38.8333C244.535 38.8333 242.111 39.762 240.449 37.2746C240.449 37.2746 243.234 36.8588 244.535 38.8333Z" fill="#6BB7BF"/>
<path d="M248.861 86.4766L249.347 87.0598C249.421 87.148 249.565 87.0958 249.568 86.9824C249.865 70.7509 248.094 56.2887 246.534 47.7464C244.831 38.4229 243.026 32.8954 243.008 32.8396C243.026 32.8936 244.642 38.5075 246.339 47.804C247.902 56.3607 249.662 67.5399 248.785 86.257C248.78 86.3362 248.809 86.4154 248.861 86.4766Z" fill="#6BB7BF"/>
<path d="M243.082 30.6275C243.687 31.1333 245.999 33.2878 243.683 34.8645C243.683 34.8645 241.921 35.3847 241.368 34.0239C240.947 32.9854 240.85 31.8353 240.828 31.3493C240.823 31.2233 240.92 31.1171 241.046 31.1081C241.181 31.0991 241.361 31.0721 241.543 31.0055C241.761 30.9263 241.878 30.6005 242.173 30.5339C242.356 30.4925 242.545 30.4583 242.758 30.4799C242.877 30.4961 242.988 30.5501 243.082 30.6275Z" fill="#F99746"/>
<path d="M244.315 34.2903C244.315 34.2903 243.607 34.8357 243.847 35.732V36.0632C243.847 36.0632 243.678 35.2334 242.828 34.9616C242.828 34.9616 243.598 35.0624 244.315 34.2903Z" fill="#6BB7BF"/>
<path d="M245.559 35.9894C245.559 35.9894 248.12 36.4178 249.254 33.6495C249.254 33.6513 246.442 33.7971 245.559 35.9894Z" fill="#6BB7BF"/>
<path d="M250.778 83.5445L250.416 84.2123C250.362 84.3131 250.209 84.2915 250.184 84.1799C246.671 68.33 245.537 53.8048 245.371 45.1221C245.189 35.6456 245.862 29.8697 245.87 29.8121C245.862 29.8697 245.393 35.6906 245.574 45.1401C245.742 53.8372 246.235 65.1424 250.81 83.3141C250.83 83.3897 250.817 83.4743 250.778 83.5445Z" fill="#6BB7BF"/>
<path d="M245.357 27.6595C244.863 28.2769 243.026 30.8453 245.609 31.9325C245.609 31.9325 247.439 32.0926 247.711 30.6491C247.918 29.5476 247.785 28.401 247.709 27.9205C247.689 27.7945 247.574 27.7117 247.448 27.7279C247.313 27.7459 247.131 27.7549 246.941 27.7261C246.71 27.6919 246.532 27.3967 246.23 27.3895C246.041 27.3859 245.85 27.3877 245.646 27.4543C245.531 27.4885 245.432 27.5641 245.357 27.6595Z" fill="#F99746"/>
<path d="M244.875 31.4933C244.875 31.4933 245.678 31.8875 245.62 32.8144L245.685 33.1384C245.685 33.1384 245.687 32.2924 246.464 31.8569C246.464 31.8569 245.732 32.1089 244.875 31.4933Z" fill="#6BB7BF"/>
<path d="M247.676 33.1383C247.676 33.1383 247.676 31.1117 249.423 30.4745C249.423 30.4745 249.809 32.1664 247.676 33.1383Z" fill="#6BB7BF"/>
<path d="M243.572 29.8806C243.572 29.8806 243.624 28.3326 242.191 27.8881C242.193 27.8863 241.847 29.328 243.572 29.8806Z" fill="#ED9F4A"/>
<path d="M248.265 39.1879C248.318 39.2329 249.011 37.6832 247.6 36.4376C247.6 36.4376 247.009 38.0953 248.265 39.1879Z" fill="#ED9F4A"/>
<path d="M249.257 39.0672C249.218 39.078 249.246 38.2951 249.981 38.1835C249.981 38.1835 250.105 38.835 249.257 39.0672Z" fill="#6BB7BF"/>
<path d="M241.939 36.4376C241.939 36.4376 241.319 35.1543 239.336 35.3775C239.336 35.3775 239.633 36.7526 241.939 36.4376Z" fill="#6BB7BF"/>
<path d="M252.897 89.7219H240.186C239.333 89.7219 238.676 88.9641 238.8 88.12L244.717 47.3414C244.772 46.9617 245.098 46.6791 245.483 46.6791H247.371C247.782 46.6791 248.129 46.9797 248.189 47.3846L254.245 88.1596C254.368 88.9821 253.729 89.7219 252.897 89.7219Z" fill="#F99746"/>
<path d="M243.001 88.4888L246.142 46.688C245.804 46.733 245.528 46.9958 245.478 47.3414L239.562 88.1199C239.439 88.9658 240.094 89.7218 240.948 89.7218H243.489C243.163 89.4266 242.965 88.9802 243.001 88.4888Z" fill="#FFB278"/>
<path d="M193.397 144.754C193.795 145.209 193.845 145.717 193.649 146.26C193.649 146.262 193.647 146.266 193.645 146.268C193.282 147.272 192.081 148.393 190.686 149.513C190.508 149.657 190.35 149.788 190.211 149.909C190.175 149.941 190.139 149.972 190.105 150.004C190.076 150.029 190.049 150.054 190.022 150.078C188.721 151.277 189.21 151.552 186.874 153.984C184.21 156.756 182.376 156.806 181.854 156.554C181.413 156.338 182.31 154.869 183.303 153.215C183.352 153.136 183.398 153.055 183.447 152.974C183.58 152.754 183.712 152.531 183.843 152.31C185.008 150.321 184.709 149.389 184.433 146.428C184.208 144.023 180.691 132.99 180.691 132.99L185.798 132.109C185.798 132.109 187.335 140.895 189.03 142.247C189.936 142.968 190.951 142.977 191.82 143.512C191.881 143.55 191.943 143.587 192.002 143.627C192.495 143.958 192.999 144.297 193.397 144.754Z" fill="#FFB27D"/>
<path d="M193.396 144.754C193.794 145.209 193.845 145.717 193.648 146.26C193.648 146.262 193.647 146.266 193.645 146.268C193.2 147.27 192.028 148.386 190.68 149.504C190.504 149.65 190.349 149.785 190.211 149.911C190.175 149.943 190.139 149.974 190.104 150.006C190.076 150.031 190.049 150.056 190.022 150.08C188.72 151.279 189.21 151.554 186.874 153.986C184.21 156.757 182.376 156.808 181.854 156.556C181.413 156.34 182.309 154.871 183.303 153.217C183.821 153.026 186.231 152.049 188.053 149.718C189.656 147.672 190.727 145.04 191.82 143.517C191.881 143.555 191.942 143.593 192.001 143.633C192.495 143.958 192.999 144.297 193.396 144.754Z" fill="#C65447"/>
<path d="M152.227 141.564C151.912 143.141 149.666 142.877 147.155 142.265C144.646 141.651 145.242 142.38 141.669 141.986C138.096 141.59 137.014 140.258 136.906 139.727C136.809 139.255 138.573 139.09 140.466 138.872C140.704 138.845 140.943 138.816 141.183 138.785C143.321 138.517 144.885 137.138 146.827 136.005C148.667 134.932 151.412 130.56 151.412 130.56L156.311 130.949C156.311 130.949 153.741 134.853 152.745 136.552C152.16 137.551 152.191 138.87 152.265 139.89C152.303 140.443 152.339 141.01 152.227 141.564Z" fill="#FFB27D"/>
<path d="M147.155 142.265C144.646 141.651 145.242 142.38 141.669 141.986C138.096 141.59 137.014 140.258 136.906 139.727C136.809 139.255 138.573 139.09 140.466 138.872L140.484 138.908C140.484 138.908 142.626 140.427 145.6 140.499C148.022 140.558 150.591 139.864 152.263 139.891C152.301 140.445 152.337 141.012 152.225 141.566C151.91 143.141 149.664 142.878 147.155 142.265Z" fill="#C65447"/>
<path d="M163.128 69.6116C163.128 69.6116 161.961 66.7516 160.676 66.6346C159.393 66.5176 155.307 65.8768 155.016 66.46C154.724 67.0432 155.016 69.1455 155.89 69.9032C156.765 70.661 162.194 71.8867 162.194 71.8867L163.128 69.6116Z" fill="#FFB27D"/>
<path d="M171 110.241L181.558 138.654C181.558 138.654 183.18 138.811 184.735 138.362C186.166 137.95 187.806 136.867 187.806 136.867C187.806 136.867 185.187 109.584 180.385 103.911C175.584 98.2354 171 110.241 171 110.241Z" fill="#AA413E"/>
<path d="M212.759 98.7448C212.759 98.7448 182.421 88.4872 175.655 90.6687C168.89 92.852 148.574 133.269 148.574 133.269C148.574 133.269 149.031 133.879 150.284 134.349C151.449 134.786 154.265 134.757 154.265 134.757C154.265 134.757 172.599 119.042 174.781 114.46C176.964 109.877 177.837 105.511 180.018 105.948C182.202 106.384 208.174 116.643 214.067 110.531C219.96 104.42 218.419 96.4788 218.419 96.4788L212.759 98.7448Z" fill="#C65447"/>
<path d="M194.221 51.0241C193.737 50.0233 193.195 48.2468 192.93 45.0808C192.972 45.3958 193.517 49.3898 195.052 51.6504C201.361 55.792 213.454 69.6242 213.215 72.2449C213.215 72.2449 217.475 65.0201 217.547 64.9769C217.547 64.9769 225.406 54.9857 216.093 49.262C211.359 46.3533 211.385 42.6203 211.583 39.3769C211.782 36.1335 210.292 22.1735 200.81 25.8255C200.81 25.8255 199.289 25.1487 198.607 25.2513C198.607 25.2513 199.163 25.3575 199.448 25.6491C198.348 25.5843 196.777 25.6653 195.466 26.4105C191.989 28.3849 188.879 46.1067 194.221 51.0241Z" fill="#B5453C"/>
<path d="M195.426 51.8556C195.394 51.87 198.473 53.4683 200.788 52.8348C202.966 52.2408 204.388 49.4168 204.359 49.4114C203.437 49.2278 203.171 47.9607 203.191 42.5142L202.773 42.597L195.763 43.9847C195.763 43.9847 195.923 46.1914 195.926 48.2684C195.932 50.0143 195.826 51.6684 195.426 51.8556Z" fill="#FFB27D"/>
<path d="M195.762 43.9846C195.762 43.9846 195.922 46.1913 195.926 48.2684C199.847 48.1586 201.921 44.5786 202.772 42.5951L195.762 43.9846Z" fill="#ED975D"/>
<path d="M203.497 41.8338C203.497 41.8338 205.552 38.585 206.046 35.8077C206.398 33.8242 205.389 26.4752 198.002 27.5336C198.002 27.5336 195.856 27.7442 193.84 29.1067C192.237 30.1902 189.922 32.5283 192.51 38.9413L193.183 41.1084L203.497 41.8338Z" fill="#B5453C"/>
<path d="M194.45 45.952C194.45 45.952 203.732 46.105 203.738 40.3237C203.745 34.5424 204.946 30.669 199.02 30.3253C193.095 29.9833 191.941 32.1882 191.47 34.1176C191 36.0471 192.037 45.763 194.45 45.952Z" fill="#FFB27D"/>
<path d="M194.793 30.1849C194.793 30.1849 197.334 36.9669 201.235 37.9713C205.135 38.9738 206.827 37.9299 206.827 37.9299C206.827 37.9299 203.836 35.554 203.215 31.4052C203.215 31.4034 196.71 26.9577 194.793 30.1849Z" fill="#B5453C"/>
<path d="M195.424 30.7356C195.424 30.7356 193.527 32.2493 193.065 33.7216C192.602 35.1939 192.393 38.2249 191.511 38.1223C191.511 38.1223 189.596 33.5128 191.749 30.9047C194.03 28.1383 195.424 30.7356 195.424 30.7356Z" fill="#B5453C"/>
<path d="M219.874 98.905C219.374 100.295 217.839 100.653 215.781 100.412C211.858 99.9526 206.031 97.3193 201.83 95.4978C195.428 92.7224 192.518 95.3304 190.48 93.5647C188.443 91.799 192.807 87.8717 189.024 69.6333C187.741 63.4488 195.873 50.1908 195.873 50.1908C195.873 50.1908 196.575 54.0299 204.354 49.4114C204.629 49.2476 207.691 53.7834 210.639 59.372C213.89 65.5385 217.004 72.9883 216.089 76.8257C214.345 84.1423 221.329 94.8679 219.874 98.905Z" fill="#699DEE"/>
<path d="M195.876 50.189L191.079 69.8619C191.079 69.8619 190.484 70.9238 189.548 72.4357C187.352 75.9869 183.288 82.0184 180.687 82.6303C179.404 82.9327 176.673 81.8654 173.653 80.3391C167.942 77.4538 161.189 72.9307 161.189 72.9307C160.751 70.3118 163.032 68.1772 163.032 68.1772C163.032 68.1772 176.709 73.3177 178.068 73.4149C181.029 73.6255 184.042 59.3343 186.81 54.5717C188.81 51.1285 195.876 50.189 195.876 50.189Z" fill="#699DEE"/>
<path d="M196.515 42.4476C196.515 42.4476 196.342 43.182 194.515 43.0686C194.515 43.0686 192.982 42.9732 193.028 42.1668C193.027 42.1668 194.515 41.5926 196.515 42.4476Z" fill="white"/>
<path d="M219.877 98.905C219.377 100.295 217.842 100.653 215.784 100.412C213.068 99.229 201.34 94.6843 201.47 91.6046C201.664 87.0455 203.725 86.8997 202.271 81.2732C201.103 76.7555 211.94 68.3535 213.67 66.5284C216.92 72.6949 217.01 72.9865 216.094 76.8257C214.348 84.1423 221.332 94.8679 219.877 98.905Z" fill="#4A75CB"/>
<path d="M189.547 72.4357C187.351 75.9869 183.287 82.0184 180.686 82.6303C179.403 82.9327 176.673 81.8654 173.652 80.3391C175.857 80.9078 177.999 80.8916 180.08 80.6919C182.335 80.4741 182.99 77.7094 186.556 73.5625C188.865 70.8716 189.434 71.5484 189.547 72.4357Z" fill="#4A75CB"/>
<path d="M200.414 81.1652C200.414 81.1652 198.451 79.637 196.595 80.0006C194.739 80.3642 193.83 81.6367 193.902 82.2199C193.974 82.8013 194.957 84.4392 196.375 84.585C197.794 84.7308 201.833 83.712 201.833 83.712L200.414 81.1652Z" fill="#FFB27D"/>
<path d="M204.359 49.4114C204.359 49.4114 211.924 49.8776 214.543 53.5295C218.229 58.6719 224.631 79.6623 222.885 84.4626L199.87 84.3654C199.87 84.3654 199.312 81.7592 200.088 80.4974C200.864 79.2357 213.475 77.1982 214.057 76.6169C214.638 76.0355 206.782 65.2667 206.782 63.5208C206.782 61.7749 204.359 49.4114 204.359 49.4114Z" fill="#699DEE"/>
<path d="M198.441 89.7597H170.578L165.555 72.2449H193.374L198.441 89.7597Z" fill="#1C468A"/>
<path d="M207.098 89.0775H170.672V89.7597H207.098V89.0775Z" fill="#163560"/>
<path d="M179.424 80.717C179.248 80.1015 179.604 79.6029 180.22 79.6029C180.835 79.6029 181.478 80.1015 181.654 80.717C181.831 81.3326 181.474 81.8312 180.859 81.8312C180.243 81.833 179.6 81.3344 179.424 80.717Z" fill="#163560"/>
<path d="M110.891 50.0089C110.891 50.0089 113.936 47.5196 115.03 47.507C116.125 47.4944 118.204 46.9473 118.121 47.3019C118.038 47.6564 116.289 48.1226 116.589 48.2864C116.89 48.4502 119.435 47.7662 120.146 48.1766C120.857 48.587 122.525 50.2825 121.186 51.0222C119.845 51.7602 115.824 52.9373 114.786 52.8005C113.745 52.6638 111.393 52.5 111.393 52.5L110.891 50.0089Z" fill="#FFB27D"/>
<path d="M71.9922 142.563L74.5462 153.321L78.3728 153.3L78.5114 142.563H71.9922Z" fill="#FFB27D"/>
<path d="M104.176 143.022L111.444 153.321L114.275 149.685L109.901 141.606L104.176 143.022Z" fill="#FFB27D"/>
<path d="M89.2816 12.9454C89.2816 12.9436 89.2816 12.9436 89.2816 12.9436C89.2816 12.9166 89.2798 12.8914 89.2744 12.8644C89.2258 12.328 89.1646 11.7988 89.0926 11.2715C89.0926 11.2697 89.0926 11.2697 89.0926 11.2697C88.873 9.65694 88.5581 8.10543 88.1765 6.71951C87.9551 5.92575 87.7139 5.1824 87.4547 4.51643C87.4151 4.41384 87.3755 4.31664 87.3395 4.21945L87.3377 4.21765C86.7168 2.70033 86.0076 1.6114 85.2822 1.19922C83.9611 0.448661 82.379 0.367665 81.2703 0.430662C81.5547 0.137278 82.118 0.0310842 82.118 0.0310842C81.4305 -0.0715101 79.8987 0.608852 79.8987 0.608852C70.3485 -3.07014 68.8474 10.9907 69.049 14.2575C69.2487 17.5243 65.8379 18.5898 60.8702 21.1637C51.3901 26.0738 50.5586 32.6507 50.5586 32.6507C50.6306 32.6939 50.7098 32.7443 50.7908 32.8018C51.2606 32.0045 52.2307 30.5088 53.0479 30.2838C53.0155 30.3558 52.0831 32.3429 51.7321 33.4804C52.9291 34.393 54.5688 35.7735 56.3417 37.3214C56.3417 37.3214 56.3417 37.3214 56.3435 37.3232C58.7157 39.3913 61.322 41.7528 63.4081 43.6642C63.3919 43.0109 63.4189 42.0839 63.6583 41.5944L64.056 43.9936L64.1082 44.3068C65.4384 45.5307 66.4877 46.5063 67.0187 47.0049C67.0727 47.0553 67.1213 47.1021 67.1645 47.1398C67.3193 47.2838 67.4038 47.363 67.4038 47.363C67.3265 46.5243 68.5054 44.5444 70.3503 42.1019C70.4781 41.9309 70.6113 41.7581 70.7463 41.5836C71.3402 40.8132 71.9936 40.005 72.6919 39.1771C72.9439 38.8765 73.1977 38.5777 73.4605 38.2735C73.4605 38.2717 73.4623 38.2717 73.4623 38.2717C73.6729 38.027 73.8853 37.784 74.1031 37.5374L74.1049 37.5356C74.6214 36.9488 75.1524 36.3603 75.6942 35.7717C77.0945 34.2472 78.5614 32.7425 79.9923 31.3781C82.0712 29.3892 84.0745 27.6883 85.698 26.6228C85.7592 26.5328 85.8186 26.441 85.8726 26.3474C86.175 25.8596 86.4324 25.3053 86.6538 24.7365C86.7222 24.5655 86.7852 24.3927 86.8446 24.2199C87.4817 22.393 87.7661 20.5283 87.8273 20.0838C87.6725 21.9179 87.4223 23.2804 87.1469 24.2991C87.0857 24.5223 87.0245 24.7275 86.9616 24.9183V24.9201C86.8194 25.3503 86.6772 25.703 86.5368 25.9928C86.814 25.7372 87.0677 25.4475 87.3035 25.1271C87.4565 24.9165 87.6005 24.6933 87.7337 24.4575C89.3248 21.6731 89.6686 17.2237 89.2816 12.9454Z" fill="#163560"/>
<path d="M85.3206 26.8262C85.353 26.8406 82.2518 28.4497 79.9209 27.8125C77.7268 27.2149 76.2941 24.3711 76.3247 24.3639C77.2534 24.1803 77.5216 22.9024 77.5018 17.4181L77.9212 17.5009L84.9822 18.8994C84.9822 18.8994 84.822 21.1205 84.8166 23.2138C84.8112 24.9705 84.9174 26.639 85.3206 26.8262Z" fill="#FFB27D"/>
<path d="M77.3359 3.50126C77.3359 3.50126 80.8187 -0.206529 85.1925 3.31227C85.1907 3.31047 82.6456 2.8713 77.3359 3.50126Z" fill="#E37970"/>
<path d="M84.9829 18.8977C84.9829 18.8977 84.8227 21.1187 84.8173 23.212C80.8665 23.1004 78.7786 19.497 77.9219 17.4991L84.9829 18.8977Z" fill="#ED975D"/>
<path d="M77.1897 16.7324C77.1897 16.7324 75.1198 13.4602 74.623 10.6632C74.2684 8.66526 75.2854 1.26228 82.7244 2.32962C82.7244 2.32962 84.8843 2.54201 86.9163 3.91353C88.5308 5.00427 90.8617 7.36034 88.2555 13.8202L87.5787 16.0017L77.1897 16.7324Z" fill="#163560"/>
<path d="M113.121 146.861L109.379 146.977L105.328 147.101C105.328 147.101 95.9701 136.683 90.7216 119.982C90.5992 119.593 90.4696 119.201 90.3328 118.803C87.4602 110.426 81.5043 99.9128 78.3671 90.3968C77.8685 88.8813 77.4185 87.4539 77.0171 86.104C76.8876 85.672 76.7634 85.2473 76.6428 84.8279C74.3299 76.7913 73.6603 71.5158 73.043 65.8785L95.7037 66.0603C95.7037 66.0603 99.3629 104.553 113.121 146.861Z" fill="#2B478B"/>
<path d="M92.5318 53.0399C92.4742 63.8231 94.1139 68.4507 94.1139 68.4507C94.1139 68.4507 84.4107 73.3806 72.8805 69.752C72.7455 69.7088 63.332 67.5615 63.332 67.5615C63.5246 67.1241 65.2417 59.8579 65.4289 59.4566C67.8642 54.2278 69.7127 51.9348 70.0007 50.3275C70.537 47.327 70.5478 44.2222 70.2814 41.2938C69.5777 33.5416 67.4844 27.107 67.4844 27.107C70.627 26.3924 73.5681 25.1361 76.8385 23.9103C77.5908 24.8463 79.8911 25.8272 81.8854 25.7822C84.1821 25.7318 84.9272 24.7491 84.8084 23.6746C87.2563 25.0371 89.2092 26.324 89.2092 26.324C91.2899 29.9382 95.5088 33.4462 95.8148 38.9899C95.8904 40.3506 92.5318 52.7375 92.5318 53.0399Z" fill="#E7F1FD"/>
<path d="M86.2991 20.8811C86.2991 20.8811 76.9505 21.0359 76.9451 15.2132C76.9379 9.39053 75.7283 5.48835 81.6968 5.14457C87.6635 4.79719 88.8244 7.01826 89.2996 8.96215C89.7748 10.9042 88.7308 20.6903 86.2991 20.8811Z" fill="#FFB27D"/>
<path d="M85.9547 5.0006C85.9547 5.0006 83.3952 11.8312 79.4678 12.8428C75.5404 13.8525 73.8359 12.7996 73.8359 12.7996C73.8359 12.7996 76.849 10.4057 77.4735 6.22813C77.4735 6.22813 84.0252 1.74818 85.9547 5.0006Z" fill="#163560"/>
<path d="M85.3203 5.55501C85.3203 5.55501 87.2318 7.07952 87.698 8.56264C88.1642 10.0458 88.3729 13.0984 89.2639 12.994C89.2639 12.994 91.1916 8.35025 89.0245 5.7242C86.726 2.93796 85.3203 5.55501 85.3203 5.55501Z" fill="#163560"/>
<path d="M74.4184 152.72C74.4184 152.72 74.7262 154.851 73.9307 157.13C73.9307 157.13 73.3043 159.983 76.1139 160.037C78.9236 160.089 79.6129 159.824 79.2944 158.075C78.9758 156.325 78.371 153.3 78.371 153.3L74.4184 152.72Z" fill="#FFB27D"/>
<path d="M79.6697 161.732H73.514C73.262 160.467 73.82 157.767 73.9118 157.249C73.919 157.209 73.9244 157.18 73.9298 157.16C73.9316 157.141 73.9334 157.132 73.9334 157.132C77.1138 160.048 79.1045 157.058 79.1045 157.058C79.1063 157.061 79.1081 157.067 79.1117 157.074C79.5779 158.215 79.6751 161.286 79.6697 161.732Z" fill="#C45446"/>
<path d="M121.045 158.361C121.045 158.361 115.865 152.61 114.274 149.685L110.422 151.658L119.033 159.745L121.047 159.481L121.045 158.361Z" fill="#FFB27D"/>
<path d="M124.337 161.732C124.337 161.732 117.922 161.732 117.819 161.732C116.86 161.732 116.093 160.141 115.058 158.073C114.635 157.227 113.685 156.761 112.713 156.505L112.738 161.732H111.234L109.85 156.205C108.932 154.518 109.776 152.99 110.422 151.658C111.172 151.656 113.192 152.171 117.02 156.482C118.278 157.898 119.668 158.402 121.047 158.361C121.066 158.374 121.084 158.383 121.104 158.392C124.285 159.823 124.337 161.732 124.337 161.732Z" fill="#C45446"/>
<path d="M109.377 146.977L105.326 147.101C105.326 147.101 95.9679 136.683 90.7194 119.982C90.597 119.593 90.4675 119.201 90.3307 118.803C87.458 110.426 81.5022 99.9129 78.3649 90.3969C77.8664 88.8814 77.4164 87.454 77.015 86.1041C76.8854 85.6721 76.7612 85.2474 76.6406 84.828L79.9776 82.2955C79.9776 82.2955 89.9959 98.5198 93.0989 113.788C95.7934 127.05 106.584 143.008 109.377 146.977Z" fill="#233862"/>
<path d="M80.3298 115.208C80.3874 122.633 80.0112 139.703 79.0446 146.77H75.4556C73.4721 146.77 72.4822 146.741 72.4822 146.741C70.0559 134.453 68.3316 124.287 67.0735 115.525C66.0422 108.336 65.126 102.172 64.4223 96.8657C63.7131 91.5254 63.2199 87.0545 63.0435 83.2765C63.0165 82.6807 62.9949 82.1029 62.9841 81.5414C62.9733 80.9762 62.9697 80.4272 62.9751 79.8945L82.5544 77.9866C82.3115 90.9998 80.2992 110.894 80.3298 115.208Z" fill="#2B478B"/>
<path d="M75.4551 146.771C73.4716 146.771 72.4816 146.743 72.4816 146.743C70.0554 134.455 68.3311 124.289 67.0729 115.527C66.0416 108.338 65.1255 102.174 64.4217 96.8674C63.7125 91.5271 63.2194 87.0562 63.043 83.2782L70.2282 87.5044C70.2282 87.5044 65.642 89.1225 67.3915 101.369C69.141 113.619 73.0198 145.036 75.4551 146.771Z" fill="#233862"/>
<path d="M76.3793 83.1595C76.3793 83.1595 75.0006 88.1434 70.229 87.5062C65.4575 86.8709 58.6719 84.0072 58.6719 84.0072C58.6719 84.0072 60.7112 77.5636 63.2472 69.0987C66.3178 58.85 67.081 44.4472 68.8719 36.1137C69.3741 33.7792 72.7543 33.0215 72.8821 31.6248L76.8419 23.9446C76.8419 23.9446 82.7437 37.1918 83.0623 40.5325C83.3791 43.8731 76.3793 83.1595 76.3793 83.1595Z" fill="#F99746"/>
<path d="M73.0429 50.3689C72.8306 55.7776 70.9371 65.0003 63.3361 69.0555C63.3073 69.0717 63.2749 69.0861 63.2461 69.0987C66.3167 58.8501 66.2771 49.019 68.068 40.6855C72.152 39.8341 73.1599 47.3901 73.0429 50.3689Z" fill="#ED7D2B"/>
<path d="M122.417 47.1344H115.088C115.084 47.1704 115.077 47.309 115.066 47.507C115.037 48.1693 114.992 49.4725 115.001 49.5931C115.104 51.1464 116.186 52.0049 117.231 52.4135H117.233C117.24 52.4171 117.242 52.4207 117.249 52.4225C117.496 52.5179 117.744 52.5881 117.973 52.6385C118.147 52.6763 118.317 52.7015 118.468 52.7141C118.57 52.7249 118.664 52.7303 118.752 52.7303C119.289 52.7303 119.796 52.6151 120.255 52.4081C121.544 51.8303 122.447 50.5326 122.447 49.0351V47.5952C122.447 47.4404 122.437 47.2874 122.417 47.1344Z" fill="#C45446"/>
<path d="M121.816 47.1344H120.822C120.842 47.2856 120.853 47.4404 120.853 47.597V49.0369C120.853 50.0394 120.448 50.952 119.795 51.6215C119.471 51.9491 119.085 52.2191 118.659 52.4099C118.439 52.5089 118.211 52.5845 117.971 52.6403C117.869 52.6637 117.762 52.6817 117.656 52.6979C117.818 52.7213 117.984 52.7339 118.153 52.7339C118.257 52.7339 118.364 52.7303 118.466 52.7177C118.886 52.6853 119.287 52.5773 119.654 52.4117C120.342 52.1039 120.919 51.5891 121.308 50.9502C121.308 50.9502 121.308 50.9502 121.31 50.9484C121.463 50.6946 121.591 50.4192 121.681 50.1276C121.789 49.7839 121.845 49.4185 121.845 49.0405V47.6006C121.843 47.4404 121.834 47.2856 121.816 47.1344Z" fill="#E37970"/>
<path d="M117.245 52.8583H120.262V52.4065H117.245V52.8583Z" fill="#C45446"/>
<path d="M64.6955 62.3743C64.6955 62.3743 68.1045 61.6381 68.9811 62.6118C69.8576 63.5856 70.349 65.1317 69.4743 65.6753C68.5995 66.2188 66.0635 64.7267 65.1527 65.3279C64.4993 65.7581 64.2923 66.8542 63.6372 66.4708C62.982 66.0874 62.2891 63.5766 62.2891 63.5766L64.6955 62.3743Z" fill="#FFB27D"/>
<path d="M76.8403 23.9446C76.8403 23.9446 67.641 24.3496 65.4308 26.4014C63.2205 28.4551 49.9804 44.3212 49.7608 48.479C49.5412 52.6368 61.3594 64.4549 61.3594 64.4549C61.3594 64.4549 64.6424 63.6648 66.0643 61.5985C66.0643 61.5985 58.7333 48.5276 59.1707 47.957C59.6081 47.3865 72.0274 37.2116 73.0443 39.4669C73.9209 41.4108 76.8403 23.9446 76.8403 23.9446Z" fill="#F99746"/>
<path d="M111.834 48.6607C111.834 48.6607 101.33 52.1615 100.018 51.8699C98.7038 51.5783 96.8301 37.3447 95.815 32.467C94.5101 26.1854 89.5315 24.9344 89.5315 24.9344L84.8086 23.6709C84.8086 23.6709 90.2173 37.0315 90.3757 39.7368C90.5341 42.4402 91.011 83.9549 91.011 83.9549C91.011 83.9549 90.6925 85.8628 94.3517 85.0691C98.0109 84.2735 98.9648 83.4779 98.9648 83.4779C98.9648 83.4779 97.3791 71.8722 96.6339 61.5696C100.362 60.9324 112.345 54.8595 112.345 54.8595C114.206 51.9383 111.834 48.6607 111.834 48.6607Z" fill="#F99746"/>
<path d="M141.196 93.4783L139.283 104.319V104.321L134 134.264L129.277 161.032C129.207 161.437 128.845 161.734 128.422 161.734C128.049 161.734 127.761 161.415 127.81 161.057L131.883 130.713L136.239 98.2552L136.896 93.3577L141.196 93.4783Z" fill="#C69D7F"/>
<path d="M162.11 93.4783L160.197 104.319V104.321L154.914 134.264L150.191 161.032C150.121 161.437 149.759 161.734 149.336 161.734C148.963 161.734 148.676 161.415 148.724 161.057L152.797 130.713L157.153 98.2552L157.81 93.3577L162.11 93.4783Z" fill="#C69D7F"/>
<path d="M139.282 104.317C139.532 99.6591 136.238 98.2516 136.238 98.2516L136.895 93.3541L141.193 93.4765L139.282 104.317Z" fill="#A0795F"/>
<path d="M262.092 161.732C261.669 161.732 261.309 161.435 261.235 161.03L257.04 137.248L251.005 103.045L249.316 93.4801L253.615 93.3577L254.36 98.9104L259.596 137.929L262.7 161.057C262.751 161.414 262.465 161.732 262.092 161.732Z" fill="#C69D7F"/>
<path d="M254.362 98.9068C251.577 100.136 251.005 103.041 251.005 103.041L249.316 93.4765L253.615 93.3541L254.362 98.9068Z" fill="#A0795F"/>
<path d="M286.194 161.732C285.771 161.732 285.411 161.435 285.337 161.03L281.141 137.248L275.106 103.045L273.418 93.4801L277.716 93.3577L278.461 98.9104L283.699 137.929L286.804 161.057C286.852 161.414 286.566 161.732 286.194 161.732Z" fill="#C69D7F"/>
<path d="M278.463 98.9068C275.679 100.136 275.106 103.041 275.106 103.041L273.418 93.4765L277.716 93.3541L278.463 98.9068Z" fill="#A0795F"/>
<path d="M293.276 97.2328H120.048C118.441 97.2328 117.125 95.9171 117.125 94.3098V92.6431C117.125 91.0358 118.441 89.7219 120.046 89.7219H293.274C294.881 89.7219 296.195 91.0376 296.195 92.6431V94.3098C296.197 95.9171 294.883 97.2328 293.276 97.2328Z" fill="#E0B594"/>
<path d="M165.401 85.2023C165.053 84.9881 164.38 85.0709 163.89 85.1735V84.4662C163.89 84.3096 163.88 84.1566 163.86 84.0036H156.531C156.511 84.1548 156.5 84.3096 156.5 84.4662V85.9043C156.5 87.9364 158.163 89.5977 160.195 89.5977C161.295 89.5977 162.287 89.1099 162.965 88.3396C162.965 88.3396 164.709 87.9112 165.257 87.2596C165.804 86.6135 165.982 85.5623 165.401 85.2023ZM165.014 86.5325C164.828 87.0112 163.997 87.2686 163.586 87.3676C163.75 86.9896 163.853 86.5811 163.881 86.1509C164.135 85.8035 164.535 85.6019 164.826 85.6541C165.089 85.7045 165.248 85.9277 165.014 86.5325Z" fill="#C45446"/>
<path d="M157.102 84.468V85.9061C157.102 87.9382 158.765 89.6013 160.795 89.6013C160.962 89.6013 161.13 89.5887 161.292 89.5653C159.494 89.3223 158.095 87.769 158.095 85.9061V84.468C158.095 84.3114 158.106 84.1566 158.126 84.0054H157.13C157.111 84.1566 157.102 84.3114 157.102 84.468Z" fill="#E37970"/>
<path d="M161.704 89.2791H158.688V89.7309H161.704V89.2791Z" fill="#C45446"/>
<path d="M299.354 163.221H0.647964C0.289784 163.221 0 162.931 0 162.573V162.247C0 161.889 0.289784 161.599 0.647964 161.599H299.352C299.71 161.599 300 161.889 300 162.247V162.573C300.002 162.931 299.71 163.221 299.354 163.221Z" fill="#2E3552"/>
</svg>
