<svg width="300" height="168" viewBox="0 0 300 168" fill="none" xmlns="http://www.w3.org/2000/svg">
<path d="M179.499 119.154L182.697 119.68C182.953 119.721 183.178 119.829 183.354 119.978C183.542 120.135 183.675 120.338 183.732 120.562C183.75 120.63 183.761 120.698 183.763 120.769C183.765 120.833 183.761 120.896 183.75 120.963L176.394 165.552C176.299 166.126 175.701 166.515 175.048 166.437C175.026 166.434 175.005 166.432 174.985 166.428L171.786 165.903C171.765 165.899 171.745 165.896 171.723 165.892C171.079 165.755 170.636 165.197 170.732 164.621L178.09 120.031C178.1 119.966 178.118 119.903 178.14 119.843C178.165 119.779 178.198 119.716 178.235 119.656C178.361 119.464 178.552 119.314 178.781 119.226C178.997 119.141 179.243 119.113 179.499 119.154Z" fill="#FFB93E"/>
<path d="M180.318 141.779L176.376 165.667C176.291 166.18 175.701 166.517 175.048 166.437C175.026 166.434 175.004 166.432 174.985 166.428L171.786 165.903C171.764 165.899 171.745 165.896 171.723 165.892C171.079 165.759 170.629 165.251 170.713 164.738L174.171 143.782C175.893 143.721 178.327 143.32 180.318 141.779Z" fill="#FFA412"/>
<path d="M177.377 124.383L177.293 124.889L182.954 125.825L183.038 125.319L177.377 124.383Z" fill="#FFA412"/>
<path d="M177.091 126.092L177.008 126.598L182.67 127.531L182.753 127.025L177.091 126.092Z" fill="#FFA412"/>
<path d="M176.748 128.162L176.664 128.668L182.325 129.602L182.409 129.096L176.748 128.162Z" fill="#FFA412"/>
<path d="M176.236 131.295L176.152 131.801L181.814 132.736L181.898 132.229L176.236 131.295Z" fill="#FFA412"/>
<path d="M175.681 134.626L175.598 135.132L181.259 136.066L181.343 135.56L175.681 134.626Z" fill="#FFA412"/>
<path d="M174.837 139.747L174.754 140.253L180.416 141.186L180.499 140.68L174.837 139.747Z" fill="#FFA412"/>
<path d="M174.049 144.542L173.965 145.048L179.626 145.984L179.71 145.478L174.049 144.542Z" fill="#FFA412"/>
<path d="M173.345 148.802L173.262 149.308L178.923 150.242L179.007 149.736L173.345 148.802Z" fill="#FFA412"/>
<path d="M177.642 122.743L177.559 123.249L183.22 124.182L183.304 123.676L177.642 122.743Z" fill="#FFA412"/>
<path d="M177.818 121.654L177.734 122.16L183.396 123.094L183.48 122.588L177.818 121.654Z" fill="#FFA412"/>
<path d="M177.99 120.621L177.906 121.127L183.568 122.06L183.651 121.554L177.99 120.621Z" fill="#FFA412"/>
<path d="M178.035 120.347L183.698 121.278L183.75 120.961C183.761 120.896 183.764 120.832 183.762 120.767L178.14 119.842C178.116 119.901 178.1 119.964 178.089 120.029L178.035 120.347Z" fill="#FFA412"/>
<path d="M178.234 119.656L183.731 120.56C183.674 120.338 183.54 120.135 183.353 119.977L178.78 119.224C178.551 119.314 178.359 119.464 178.234 119.656Z" fill="#FFA412"/>
<path d="M185.303 119.154L188.502 119.68C188.755 119.721 188.982 119.829 189.159 119.978C189.346 120.135 189.479 120.338 189.537 120.562C189.555 120.63 189.565 120.698 189.567 120.769C189.571 120.833 189.565 120.896 189.556 120.963L182.198 165.554C182.103 166.128 181.505 166.517 180.852 166.439C180.831 166.436 180.809 166.434 180.789 166.43L177.591 165.905C177.569 165.901 177.549 165.897 177.528 165.894C176.883 165.757 176.442 165.199 176.536 164.623L183.894 120.032C183.905 119.968 183.923 119.905 183.944 119.845C183.97 119.78 184.002 119.717 184.04 119.658C184.166 119.465 184.357 119.316 184.585 119.228C184.801 119.141 185.048 119.113 185.303 119.154Z" fill="#FFB93E"/>
<path d="M186.122 141.779L182.181 165.667C182.096 166.18 181.506 166.517 180.852 166.437C180.831 166.434 180.809 166.432 180.789 166.428L177.591 165.903C177.569 165.899 177.549 165.896 177.528 165.892C176.883 165.759 176.433 165.251 176.518 164.738L179.976 143.782C181.698 143.721 184.132 143.32 186.122 141.779Z" fill="#FFA412"/>
<path d="M183.181 124.383L183.098 124.89L188.759 125.825L188.842 125.319L183.181 124.383Z" fill="#FFA412"/>
<path d="M182.9 126.096L182.816 126.603L188.478 127.536L188.562 127.029L182.9 126.096Z" fill="#FFA412"/>
<path d="M182.552 128.162L182.469 128.668L188.13 129.603L188.214 129.097L182.552 128.162Z" fill="#FFA412"/>
<path d="M182.033 131.291L181.949 131.797L187.611 132.731L187.694 132.225L182.033 131.291Z" fill="#FFA412"/>
<path d="M181.486 134.626L181.402 135.132L187.064 136.066L187.148 135.56L181.486 134.626Z" fill="#FFA412"/>
<path d="M180.638 139.762L180.555 140.268L186.216 141.202L186.299 140.696L180.638 139.762Z" fill="#FFA412"/>
<path d="M179.853 144.523L179.77 145.029L185.431 145.963L185.515 145.457L179.853 144.523Z" fill="#FFA412"/>
<path d="M179.146 148.798L179.062 149.304L184.724 150.238L184.808 149.732L179.146 148.798Z" fill="#FFA412"/>
<path d="M183.447 122.756L183.363 123.262L189.024 124.196L189.108 123.69L183.447 122.756Z" fill="#FFA412"/>
<path d="M183.63 121.669L183.547 122.175L189.209 123.108L189.292 122.602L183.63 121.669Z" fill="#FFA412"/>
<path d="M183.794 120.621L183.711 121.128L189.373 122.061L189.456 121.554L183.794 120.621Z" fill="#FFA412"/>
<path d="M183.84 120.347L189.502 121.278L189.555 120.961C189.565 120.896 189.569 120.832 189.565 120.767L183.942 119.842C183.919 119.901 183.903 119.964 183.892 120.029L183.84 120.347Z" fill="#FFA412"/>
<path d="M184.039 119.656L189.536 120.56C189.478 120.338 189.345 120.135 189.158 119.977L184.584 119.224C184.356 119.314 184.165 119.464 184.039 119.656Z" fill="#FFA412"/>
<path d="M164.087 161.963L164.082 165.204C164.082 165.462 164.011 165.703 163.893 165.901C163.768 166.11 163.588 166.275 163.378 166.367C163.313 166.396 163.246 166.418 163.178 166.43C163.115 166.443 163.052 166.45 162.985 166.45L117.792 166.342C117.209 166.34 116.73 165.811 116.701 165.154C116.701 165.133 116.699 165.111 116.699 165.089L116.705 161.848C116.705 161.826 116.705 161.804 116.706 161.783C116.737 161.126 117.218 160.599 117.801 160.6L162.994 160.708C163.059 160.708 163.124 160.716 163.187 160.728C163.255 160.743 163.324 160.764 163.387 160.793C163.596 160.887 163.776 161.052 163.9 161.261C164.02 161.464 164.089 161.704 164.087 161.963Z" fill="#FFB93E"/>
<path d="M141.887 166.4L117.675 166.342C117.155 166.34 116.728 165.813 116.701 165.154C116.701 165.133 116.699 165.111 116.699 165.089L116.705 161.848C116.705 161.826 116.705 161.804 116.706 161.783C116.733 161.126 117.164 160.599 117.684 160.6L138.923 160.651C139.261 162.344 140.046 164.683 141.887 166.4Z" fill="#FFA412"/>
<path d="M158.08 160.699L158.066 166.437L158.579 166.438L158.593 160.7L158.08 160.699Z" fill="#FFA412"/>
<path d="M156.338 160.694L156.324 166.432L156.837 166.434L156.851 160.696L156.338 160.694Z" fill="#FFA412"/>
<path d="M154.257 160.69L154.242 166.428L154.755 166.43L154.77 160.692L154.257 160.69Z" fill="#FFA412"/>
<path d="M151.056 160.682L151.043 166.42L151.556 166.421L151.569 160.683L151.056 160.682Z" fill="#FFA412"/>
<path d="M147.678 160.674L147.664 166.413L148.177 166.414L148.191 160.676L147.678 160.674Z" fill="#FFA412"/>
<path d="M142.498 160.663L142.484 166.401L142.997 166.402L143.011 160.664L142.498 160.663Z" fill="#FFA412"/>
<path d="M137.646 160.651L137.633 166.389L138.146 166.391L138.159 160.653L137.646 160.651Z" fill="#FFA412"/>
<path d="M133.316 160.64L133.301 166.378L133.814 166.379L133.829 160.641L133.316 160.64Z" fill="#FFA412"/>
<path d="M159.732 160.703L159.719 166.441L160.232 166.443L160.245 160.705L159.732 160.703Z" fill="#FFA412"/>
<path d="M160.825 160.705L160.812 166.443L161.325 166.444L161.338 160.706L160.825 160.705Z" fill="#FFA412"/>
<path d="M161.881 160.709L161.867 166.447L162.38 166.448L162.394 160.71L161.881 160.709Z" fill="#FFA412"/>
<path d="M162.675 160.71L162.664 166.448H162.984C163.051 166.448 163.114 166.441 163.177 166.428L163.188 160.73C163.125 160.717 163.06 160.71 162.995 160.71H162.675Z" fill="#FFA412"/>
<path d="M163.386 160.797L163.375 166.367C163.586 166.275 163.764 166.11 163.89 165.901L163.899 161.266C163.775 161.054 163.596 160.888 163.386 160.797Z" fill="#FFA412"/>
<path d="M159.267 156.212L159.261 159.454C159.261 159.711 159.191 159.952 159.072 160.15C158.948 160.359 158.768 160.525 158.557 160.617C158.493 160.645 158.426 160.667 158.358 160.68C158.295 160.692 158.232 160.699 158.165 160.699L112.971 160.591C112.388 160.59 111.91 160.062 111.881 159.403C111.881 159.382 111.879 159.36 111.879 159.339L111.884 156.097C111.884 156.075 111.884 156.054 111.886 156.032C111.917 155.375 112.397 154.848 112.98 154.85L158.174 154.958C158.203 154.958 158.232 154.959 158.261 154.961C158.273 154.961 158.286 154.963 158.296 154.965C158.309 154.967 158.324 154.968 158.338 154.97C158.347 154.972 158.358 154.974 158.367 154.976C158.435 154.99 158.502 155.012 158.566 155.04C158.575 155.044 158.584 155.049 158.595 155.053C158.604 155.057 158.613 155.062 158.622 155.067C158.64 155.076 158.658 155.087 158.678 155.098C158.689 155.105 158.7 155.111 158.709 155.118C158.718 155.123 158.727 155.13 158.736 155.136C158.754 155.148 158.77 155.159 158.788 155.174C158.808 155.188 158.826 155.204 158.844 155.222C158.858 155.235 158.872 155.247 158.885 155.262C158.885 155.262 158.887 155.264 158.887 155.265C158.896 155.274 158.905 155.283 158.914 155.294C158.941 155.323 158.968 155.355 158.993 155.388C159 155.397 159.007 155.408 159.015 155.417C159.022 155.426 159.029 155.436 159.036 155.447C159.051 155.467 159.063 155.489 159.076 155.51C159.198 155.714 159.267 155.953 159.267 156.212Z" fill="#FFB93E"/>
<path d="M137.065 160.649L112.853 160.591C112.332 160.59 111.906 160.062 111.881 159.403C111.881 159.382 111.879 159.36 111.879 159.339L111.884 156.097C111.884 156.075 111.884 156.054 111.886 156.032C111.913 155.375 112.343 154.848 112.863 154.85L134.102 154.9C134.111 154.947 134.122 154.994 134.131 155.042C134.482 156.722 135.276 158.979 137.065 160.649Z" fill="#FFA412"/>
<path d="M153.256 154.948L153.242 160.686L153.755 160.688L153.769 154.949L153.256 154.948Z" fill="#FFA412"/>
<path d="M151.517 154.944L151.504 160.682L152.017 160.683L152.03 154.945L151.517 154.944Z" fill="#FFA412"/>
<path d="M149.432 154.94L149.418 160.678L149.931 160.68L149.945 154.941L149.432 154.94Z" fill="#FFA412"/>
<path d="M146.236 154.932L146.223 160.67L146.736 160.671L146.749 154.933L146.236 154.932Z" fill="#FFA412"/>
<path d="M142.856 154.924L142.844 160.663L143.357 160.664L143.369 154.926L142.856 154.924Z" fill="#FFA412"/>
<path d="M137.675 154.911L137.66 160.649L138.173 160.65L138.188 154.912L137.675 154.911Z" fill="#FFA412"/>
<path d="M132.826 154.901L132.812 160.639L133.325 160.64L133.339 154.902L132.826 154.901Z" fill="#FFA412"/>
<path d="M128.493 154.89L128.48 160.628L128.993 160.629L129.005 154.891L128.493 154.89Z" fill="#FFA412"/>
<path d="M154.912 154.953L154.898 160.691L155.411 160.693L155.425 154.954L154.912 154.953Z" fill="#FFA412"/>
<path d="M156.006 154.955L155.992 160.693L156.505 160.694L156.519 154.956L156.006 154.955Z" fill="#FFA412"/>
<path d="M157.06 154.958L157.047 160.697L157.56 160.698L157.573 154.96L157.06 154.958Z" fill="#FFA412"/>
<path d="M157.855 154.959L157.844 160.699H158.164C158.231 160.699 158.294 160.692 158.357 160.68L158.368 154.981C158.305 154.968 158.242 154.961 158.175 154.961L157.855 154.959Z" fill="#FFA412"/>
<path d="M158.569 155.046L158.559 160.617C158.769 160.525 158.947 160.361 159.073 160.15L159.082 155.516C158.956 155.303 158.778 155.138 158.569 155.046Z" fill="#FFA412"/>
<path d="M161.61 150.62L161.605 153.862C161.605 154.119 161.535 154.358 161.416 154.558C161.292 154.767 161.112 154.932 160.901 155.024C160.836 155.053 160.77 155.075 160.701 155.087C160.638 155.1 160.574 155.107 160.509 155.107L115.315 154.999C115.133 154.999 114.962 154.947 114.811 154.857C114.493 154.664 114.264 154.297 114.228 153.869C114.226 153.851 114.224 153.831 114.224 153.813C114.224 153.791 114.223 153.77 114.223 153.748L114.228 150.507C114.228 150.485 114.228 150.463 114.23 150.442C114.26 149.785 114.741 149.257 115.324 149.259L160.518 149.367C160.584 149.367 160.647 149.374 160.71 149.387C160.779 149.401 160.847 149.423 160.91 149.452C161.119 149.545 161.299 149.711 161.423 149.92C161.542 150.121 161.61 150.363 161.61 150.62Z" fill="#FFB93E"/>
<path d="M139.41 155.057L115.198 154.999C115.036 154.999 114.883 154.947 114.748 154.857C114.462 154.664 114.26 154.297 114.228 153.869C114.226 153.851 114.224 153.831 114.224 153.813C114.224 153.791 114.223 153.77 114.223 153.748L114.228 150.507C114.228 150.485 114.228 150.463 114.23 150.442C114.257 149.785 114.687 149.257 115.207 149.259L136.446 149.31C136.774 150.953 137.526 153.212 139.261 154.915C139.311 154.963 139.36 155.01 139.41 155.057Z" fill="#FFA412"/>
<path d="M162.704 144.884L162.699 148.125C162.699 148.383 162.629 148.624 162.51 148.822C162.386 149.031 162.206 149.196 161.995 149.288C161.93 149.317 161.864 149.338 161.795 149.351C161.732 149.364 161.667 149.371 161.603 149.371L116.409 149.263C115.826 149.261 115.347 148.734 115.318 148.075C115.318 148.053 115.316 148.032 115.316 148.01L115.322 144.768C115.322 144.747 115.322 144.725 115.324 144.704C115.352 144.095 115.765 143.6 116.288 143.53C116.33 143.525 116.373 143.521 116.418 143.521L161.612 143.629C161.678 143.629 161.741 143.636 161.804 143.649C161.873 143.663 161.941 143.685 162.004 143.714C162.213 143.807 162.393 143.973 162.517 144.182C162.636 144.385 162.704 144.626 162.704 144.884Z" fill="#FFB93E"/>
<path d="M140.502 149.32L116.29 149.263C115.77 149.261 115.343 148.734 115.318 148.075C115.318 148.053 115.316 148.032 115.316 148.01L115.322 144.768C115.322 144.747 115.322 144.725 115.324 144.704C115.349 144.095 115.718 143.6 116.186 143.53C116.224 143.525 116.261 143.521 116.301 143.521L137.54 143.572C137.54 143.575 137.542 143.579 137.542 143.581C137.88 145.272 138.666 147.607 140.502 149.32Z" fill="#FFA412"/>
<path d="M159.392 139.146L159.386 142.387C159.386 142.645 159.316 142.886 159.197 143.084C159.073 143.293 158.893 143.458 158.682 143.55C158.618 143.579 158.551 143.6 158.483 143.615C158.461 143.618 158.441 143.622 158.42 143.625C158.409 143.627 158.396 143.629 158.384 143.629C158.373 143.631 158.36 143.631 158.348 143.633C158.328 143.635 158.31 143.635 158.29 143.635L113.096 143.527C112.513 143.525 112.034 142.996 112.006 142.339C112.006 142.317 112.004 142.295 112.004 142.274L112.009 139.032C112.009 139.011 112.009 138.989 112.011 138.967C112.011 138.949 112.013 138.931 112.015 138.915C112.06 138.386 112.396 137.95 112.835 137.824C112.846 137.821 112.857 137.819 112.868 137.815C112.943 137.796 113.023 137.787 113.104 137.787L158.297 137.895C158.33 137.895 158.364 137.896 158.395 137.9C158.409 137.902 158.423 137.904 158.438 137.905C158.454 137.907 158.472 137.913 158.488 137.914C158.556 137.929 158.625 137.95 158.688 137.979C158.897 138.073 159.077 138.238 159.201 138.447C159.323 138.649 159.392 138.888 159.392 139.146Z" fill="#FFB93E"/>
<path d="M137.19 143.582L112.978 143.525C112.457 143.523 112.031 142.996 112.006 142.337C112.006 142.315 112.004 142.294 112.004 142.272L112.009 139.03C112.009 139.009 112.009 138.987 112.011 138.966C112.011 138.948 112.013 138.93 112.015 138.913C112.054 138.373 112.367 137.931 112.774 137.814C112.789 137.808 112.801 137.805 112.816 137.803C112.871 137.79 112.929 137.783 112.988 137.783L134.227 137.833C134.229 137.848 134.233 137.86 134.236 137.875C134.576 139.56 135.363 141.869 137.181 143.572C137.183 143.577 137.186 143.581 137.19 143.582Z" fill="#FFA412"/>
<path d="M159.308 133.447L159.302 136.689C159.302 136.946 159.232 137.187 159.113 137.385C158.989 137.596 158.809 137.76 158.598 137.851C158.548 137.875 158.496 137.891 158.442 137.905H158.44C158.426 137.909 158.411 137.913 158.397 137.916C158.334 137.929 158.271 137.936 158.204 137.936L113.011 137.828C112.964 137.828 112.915 137.824 112.868 137.817C112.85 137.815 112.832 137.812 112.814 137.808C112.323 137.706 111.945 137.225 111.92 136.642C111.92 136.62 111.918 136.599 111.918 136.577L111.923 133.336C111.923 133.314 111.923 133.292 111.925 133.271C111.956 132.614 112.436 132.086 113.02 132.088L158.213 132.196C158.242 132.196 158.271 132.198 158.3 132.2C158.312 132.202 158.325 132.203 158.336 132.203C158.348 132.205 158.363 132.207 158.377 132.211C158.386 132.212 158.397 132.214 158.406 132.216C158.474 132.23 158.543 132.252 158.606 132.281C158.615 132.284 158.624 132.29 158.634 132.293C158.643 132.297 158.652 132.302 158.661 132.308C158.679 132.317 158.697 132.328 158.715 132.338C158.735 132.351 158.755 132.364 158.775 132.378C158.793 132.391 158.809 132.403 158.827 132.416C158.847 132.43 158.865 132.446 158.883 132.464C158.897 132.477 158.912 132.49 158.926 132.504C158.926 132.504 158.928 132.506 158.928 132.508C158.937 132.517 158.946 132.526 158.955 132.536C158.982 132.565 159.009 132.598 159.034 132.63C159.041 132.639 159.048 132.65 159.056 132.659C159.063 132.67 159.07 132.679 159.077 132.689C159.092 132.709 159.104 132.731 159.117 132.752C159.239 132.95 159.308 133.19 159.308 133.447Z" fill="#FFB93E"/>
<path d="M137.106 137.886L112.894 137.828C112.874 137.828 112.856 137.826 112.836 137.826C112.814 137.824 112.795 137.823 112.773 137.819C112.309 137.745 111.943 137.249 111.92 136.642C111.92 136.62 111.918 136.599 111.918 136.577L111.923 133.336C111.923 133.314 111.923 133.292 111.925 133.271C111.952 132.614 112.382 132.086 112.903 132.088L134.141 132.139C134.15 132.185 134.161 132.232 134.17 132.281C134.519 133.944 135.3 136.178 137.061 137.844C137.077 137.859 137.091 137.871 137.106 137.886Z" fill="#FFA412"/>
<path d="M161.653 127.857L161.648 131.098C161.648 131.356 161.578 131.595 161.459 131.795C161.335 132.004 161.155 132.169 160.944 132.261C160.879 132.29 160.813 132.311 160.744 132.324C160.681 132.337 160.618 132.344 160.552 132.344L115.358 132.236C115.176 132.236 115.005 132.184 114.854 132.094C114.536 131.901 114.307 131.534 114.271 131.105C114.269 131.087 114.267 131.068 114.267 131.05C114.267 131.028 114.266 131.006 114.266 130.985L114.271 127.743C114.271 127.722 114.271 127.7 114.273 127.678C114.303 127.021 114.784 126.494 115.367 126.496L160.561 126.604C160.627 126.604 160.69 126.611 160.753 126.624C160.822 126.638 160.89 126.66 160.953 126.688C161.162 126.782 161.342 126.948 161.466 127.156C161.585 127.358 161.653 127.597 161.653 127.857Z" fill="#FFB93E"/>
<path d="M139.453 132.293L115.241 132.236C115.079 132.236 114.926 132.184 114.791 132.094C114.505 131.901 114.303 131.534 114.271 131.105C114.269 131.087 114.267 131.068 114.267 131.05C114.267 131.028 114.266 131.006 114.266 130.985L114.271 127.743C114.271 127.722 114.271 127.7 114.273 127.678C114.302 127.021 114.73 126.494 115.25 126.496L136.489 126.546C136.817 128.19 137.569 130.448 139.304 132.151C139.354 132.2 139.403 132.247 139.453 132.293Z" fill="#FFA412"/>
<path d="M165.357 122.126L165.351 125.367C165.351 125.625 165.281 125.864 165.162 126.064C165.038 126.273 164.858 126.438 164.647 126.53C164.583 126.559 164.516 126.58 164.448 126.593C164.385 126.606 164.32 126.613 164.255 126.613L119.061 126.505C118.478 126.503 117.999 125.976 117.971 125.317C117.971 125.295 117.969 125.274 117.969 125.252L117.974 122.011C117.974 121.989 117.974 121.967 117.976 121.946C118.005 121.337 118.419 120.842 118.941 120.772C118.982 120.767 119.027 120.763 119.07 120.763L164.264 120.871C164.331 120.871 164.394 120.878 164.457 120.891C164.525 120.905 164.592 120.927 164.656 120.956C164.865 121.049 165.045 121.215 165.169 121.424C165.29 121.627 165.357 121.868 165.357 122.126Z" fill="#FFB93E"/>
<path d="M143.155 126.562L118.943 126.505C118.422 126.503 117.996 125.976 117.971 125.317C117.971 125.295 117.969 125.274 117.969 125.252L117.974 122.011C117.974 121.989 117.974 121.967 117.976 121.946C118.001 121.337 118.37 120.842 118.838 120.772C118.876 120.767 118.914 120.763 118.953 120.763L140.192 120.814C140.192 120.817 140.194 120.819 140.194 120.823C140.53 122.516 141.317 124.849 143.155 126.562Z" fill="#FFA412"/>
<path d="M159.435 116.382L159.429 119.624C159.429 119.881 159.359 120.122 159.24 120.32C159.116 120.529 158.936 120.695 158.725 120.787C158.661 120.815 158.594 120.837 158.526 120.85C158.504 120.853 158.482 120.859 158.463 120.86C158.446 120.864 158.428 120.864 158.412 120.866C158.403 120.866 158.396 120.868 158.387 120.868C158.369 120.868 158.351 120.869 158.333 120.869L113.139 120.761C112.556 120.76 112.077 120.232 112.049 119.573C112.049 119.552 112.047 119.53 112.047 119.509L112.052 116.267C112.052 116.245 112.052 116.224 112.054 116.202C112.085 115.545 112.565 115.018 113.148 115.02L158.342 115.128C158.362 115.128 158.382 115.128 158.4 115.13C158.446 115.133 158.49 115.139 158.535 115.148C158.603 115.162 158.671 115.184 158.734 115.212C158.767 115.227 158.799 115.243 158.83 115.261C158.85 115.272 158.868 115.283 158.886 115.295C158.887 115.295 158.889 115.297 158.891 115.299C158.909 115.311 158.927 115.324 158.945 115.338C158.949 115.34 158.952 115.344 158.954 115.346C158.97 115.358 158.986 115.373 159.003 115.387C159.042 115.419 159.078 115.457 159.111 115.495C159.121 115.507 159.132 115.518 159.141 115.531C159.143 115.533 159.145 115.534 159.147 115.538C159.154 115.545 159.159 115.552 159.165 115.561C159.166 115.563 159.166 115.565 159.168 115.567C159.179 115.581 159.19 115.597 159.201 115.612C159.215 115.633 159.229 115.657 159.244 115.68C159.366 115.884 159.435 116.123 159.435 116.382Z" fill="#FFB93E"/>
<path d="M137.233 120.819L113.021 120.761C112.5 120.76 112.074 120.232 112.049 119.573C112.049 119.552 112.047 119.53 112.047 119.509L112.052 116.267C112.052 116.245 112.052 116.224 112.054 116.202C112.081 115.545 112.511 115.018 113.031 115.02L134.27 115.07C134.279 115.113 134.288 115.158 134.297 115.203C134.646 116.879 135.437 119.136 137.222 120.808C137.226 120.814 137.229 120.817 137.233 120.819Z" fill="#FFA412"/>
<path d="M162.767 110.783L162.761 114.024C162.761 114.282 162.691 114.521 162.572 114.721C162.448 114.93 162.268 115.095 162.057 115.187C161.993 115.216 161.926 115.238 161.858 115.25C161.795 115.263 161.73 115.27 161.665 115.27L116.471 115.162C116.297 115.162 116.129 115.113 115.984 115.029C115.654 114.84 115.42 114.464 115.384 114.026C115.383 114.01 115.383 113.992 115.381 113.976C115.381 113.954 115.379 113.933 115.379 113.911L115.384 110.669C115.384 110.648 115.384 110.626 115.386 110.605C115.415 109.996 115.829 109.501 116.351 109.431C116.392 109.426 116.435 109.422 116.48 109.422L161.674 109.53C161.741 109.53 161.804 109.537 161.867 109.55C161.935 109.564 162.003 109.586 162.066 109.615C162.275 109.708 162.455 109.874 162.579 110.083C162.698 110.286 162.768 110.525 162.767 110.783Z" fill="#FFB93E"/>
<path d="M140.567 115.221L116.354 115.164C116.198 115.164 116.05 115.115 115.919 115.031C115.625 114.842 115.415 114.465 115.384 114.028C115.383 114.012 115.383 113.994 115.381 113.978C115.381 113.956 115.379 113.934 115.379 113.913L115.384 110.671C115.384 110.65 115.384 110.628 115.386 110.606C115.411 109.998 115.78 109.503 116.248 109.433C116.286 109.427 116.324 109.424 116.363 109.424L137.602 109.474C137.602 109.478 137.604 109.48 137.604 109.483C137.932 111.13 138.688 113.387 140.426 115.088C140.473 115.133 140.52 115.176 140.567 115.221Z" fill="#FFA412"/>
<path d="M159.454 105.046L159.449 108.288C159.449 108.545 159.379 108.785 159.26 108.985C159.136 109.195 158.956 109.359 158.745 109.451C158.68 109.48 158.614 109.501 158.545 109.514C158.524 109.517 158.502 109.523 158.482 109.525C158.471 109.526 158.459 109.528 158.446 109.528C158.435 109.53 158.423 109.53 158.41 109.532C158.39 109.534 158.372 109.534 158.353 109.534L113.159 109.426C112.576 109.424 112.097 108.896 112.068 108.238C112.068 108.216 112.066 108.195 112.066 108.173L112.072 104.931C112.072 104.91 112.072 104.888 112.074 104.866C112.104 104.21 112.585 103.682 113.168 103.684L158.362 103.792C158.428 103.792 158.491 103.799 158.554 103.812C158.623 103.826 158.691 103.848 158.754 103.877C158.963 103.97 159.143 104.136 159.267 104.345C159.386 104.548 159.454 104.787 159.454 105.046Z" fill="#FFB93E"/>
<path d="M137.252 109.483L113.04 109.426C112.52 109.424 112.093 108.896 112.068 108.238C112.068 108.216 112.066 108.195 112.066 108.173L112.072 104.931C112.072 104.91 112.072 104.888 112.074 104.866C112.101 104.21 112.531 103.682 113.051 103.684L134.29 103.734C134.625 105.423 135.409 107.755 137.243 109.471C137.245 109.476 137.249 109.48 137.252 109.483Z" fill="#FFA412"/>
<path d="M155.603 149.357L155.59 155.095L156.103 155.096L156.116 149.358L155.603 149.357Z" fill="#FFA412"/>
<path d="M153.864 149.353L153.852 155.091L154.365 155.092L154.377 149.354L153.864 149.353Z" fill="#FFA412"/>
<path d="M151.778 149.349L151.766 155.087L152.279 155.088L152.291 149.35L151.778 149.349Z" fill="#FFA412"/>
<path d="M148.584 149.34L148.57 155.078L149.083 155.079L149.097 149.341L148.584 149.34Z" fill="#FFA412"/>
<path d="M145.205 149.333L145.191 155.071L145.704 155.072L145.718 149.334L145.205 149.333Z" fill="#FFA412"/>
<path d="M140.025 149.319L140.012 155.057L140.525 155.059L140.538 149.321L140.025 149.319Z" fill="#FFA412"/>
<path d="M135.172 149.31L135.16 155.048L135.673 155.049L135.685 149.311L135.172 149.31Z" fill="#FFA412"/>
<path d="M130.842 149.298L130.828 155.036L131.341 155.037L131.355 149.299L130.842 149.298Z" fill="#FFA412"/>
<path d="M157.26 149.362L157.246 155.1L157.759 155.101L157.773 149.363L157.26 149.362Z" fill="#FFA412"/>
<path d="M158.352 149.363L158.34 155.102L158.853 155.103L158.865 149.364L158.352 149.363Z" fill="#FFA412"/>
<path d="M159.408 149.367L159.395 155.105L159.907 155.106L159.921 149.368L159.408 149.367Z" fill="#FFA412"/>
<path d="M160.198 149.367L160.188 155.105H160.508C160.574 155.105 160.637 155.098 160.7 155.086L160.711 149.387C160.648 149.374 160.583 149.367 160.519 149.367H160.198Z" fill="#FFA412"/>
<path d="M160.913 149.454L160.902 155.024C161.113 154.933 161.291 154.767 161.417 154.558L161.426 149.922C161.3 149.713 161.122 149.547 160.913 149.454Z" fill="#FFA412"/>
<path d="M141.115 143.583L141.102 149.321L141.615 149.323L141.628 143.585L141.115 143.583Z" fill="#FFA412"/>
<path d="M136.263 143.572L136.25 149.31L136.763 149.311L136.776 143.573L136.263 143.572Z" fill="#FFA412"/>
<path d="M131.932 143.562L131.918 149.3L132.431 149.302L132.445 143.563L131.932 143.562Z" fill="#FFA412"/>
<path d="M158.854 149.364L158.864 143.626L158.414 143.624C158.438 143.62 158.463 143.618 158.486 143.613L158.497 137.914C158.467 137.907 158.434 137.902 158.402 137.9L158.413 132.338H158.612L158.602 137.851C158.812 137.76 158.99 137.594 159.116 137.385L159.125 132.749C159.023 132.576 158.882 132.436 158.719 132.338H158.899L158.909 126.6L158.396 126.599L158.386 132.211C158.332 132.202 158.278 132.194 158.222 132.194L157.901 132.193L157.891 137.932H157.986L157.975 143.631H158.296C158.315 143.631 158.335 143.629 158.353 143.627L158.342 149.36L158.854 149.364Z" fill="#FFA412"/>
<path d="M159.443 143.627L159.43 149.365L159.943 149.367L159.956 143.628L159.443 143.627Z" fill="#FFA412"/>
<path d="M160.499 143.629L160.484 149.367L160.997 149.368L161.012 143.63L160.499 143.629Z" fill="#FFA412"/>
<path d="M161.292 143.631L161.281 149.369H161.602C161.668 149.369 161.731 149.362 161.794 149.349L161.805 143.651C161.742 143.638 161.679 143.631 161.612 143.631H161.292Z" fill="#FFA412"/>
<path d="M162.007 143.717L161.996 149.288C162.207 149.196 162.385 149.032 162.511 148.822L162.52 144.187C162.394 143.975 162.216 143.811 162.007 143.717Z" fill="#FFA412"/>
<path d="M153.885 143.622L153.894 137.884H153.801L153.812 132.185H153.297L153.286 137.923H153.381L153.371 143.613L152.87 143.611L152.859 149.351H153.374L153.383 143.622H153.885Z" fill="#FFA412"/>
<path d="M150.073 137.875H149.978L149.989 132.176H149.476L149.465 137.914H149.56L149.549 143.613H149.675L149.666 149.342L150.179 149.344L150.19 143.606L150.062 143.604L150.073 137.875Z" fill="#FFA412"/>
<path d="M158.694 137.979L158.684 143.55C158.894 143.458 159.072 143.293 159.198 143.084L159.207 138.449C159.081 138.238 158.903 138.073 158.694 137.979Z" fill="#FFA412"/>
<path d="M146.789 132.169L146.276 132.167L146.266 137.907H146.361L146.35 143.597L146.294 143.595L146.284 149.335L146.797 149.337L146.807 143.606H146.865L146.874 137.868H146.78L146.789 132.169Z" fill="#FFA412"/>
<path d="M143.41 132.162L142.898 132.16L142.887 137.898H142.982L142.971 143.597L143.484 143.599L143.495 137.859H143.4L143.41 132.162Z" fill="#FFA412"/>
<path d="M138.231 132.149L137.718 132.148L137.707 137.886L137.802 137.887L137.792 143.584L138.306 143.586L138.315 137.846H138.222L138.231 132.149Z" fill="#FFA412"/>
<path d="M133.379 132.137H132.866L132.855 137.875H132.951L132.94 143.573L133.453 143.575L133.464 137.835H133.368L133.379 132.137Z" fill="#FFA412"/>
<path d="M129.049 132.128L128.534 132.126L128.523 137.864H128.619L128.608 143.563L129.123 143.564L129.134 137.824H129.038L129.049 132.128Z" fill="#FFA412"/>
<path d="M155.465 132.189H154.952L154.941 137.927H155.037L155.026 143.617H154.954L154.945 149.355L155.458 149.356L155.469 143.627H155.539L155.55 137.887H155.454L155.465 132.189Z" fill="#FFA412"/>
<path d="M156.56 132.193L156.148 132.191L156.158 126.595L155.644 126.593L155.633 132.331L156.047 132.333L156.036 137.931H156.131L156.121 143.627L156.635 143.629L156.646 137.891H156.551L156.56 132.193Z" fill="#FFA412"/>
<path d="M153.908 126.589L153.895 132.327L154.408 132.328L154.421 126.59L153.908 126.589Z" fill="#FFA412"/>
<path d="M151.808 132.182L151.558 132.18L151.547 137.92H151.642L151.631 143.617L152.146 143.618L152.157 137.88H152.062L152.071 132.324H152.321L152.332 126.586L151.819 126.584L151.808 132.182Z" fill="#FFA412"/>
<path d="M148.628 126.576L148.613 132.314L149.126 132.315L149.141 126.577L148.628 126.576Z" fill="#FFA412"/>
<path d="M145.244 126.569L145.23 132.307L145.743 132.308L145.757 126.57L145.244 126.569Z" fill="#FFA412"/>
<path d="M140.064 126.556L140.051 132.294L140.564 132.295L140.577 126.557L140.064 126.556Z" fill="#FFA412"/>
<path d="M135.211 126.546L135.199 132.284L135.712 132.285L135.724 126.547L135.211 126.546Z" fill="#FFA412"/>
<path d="M130.881 126.534L130.867 132.272L131.38 132.274L131.394 126.535L130.881 126.534Z" fill="#FFA412"/>
<path d="M157.287 132.194H157.101L157.09 137.932H157.186L157.175 143.622L156.693 143.62L156.684 149.36H157.197L157.207 143.631L157.688 143.633L157.699 137.893H157.603L157.614 132.337H157.8L157.81 126.598L157.297 126.597L157.287 132.194Z" fill="#FFA412"/>
<path d="M159.451 126.603L159.438 132.341L159.95 132.342L159.964 126.604L159.451 126.603Z" fill="#FFA412"/>
<path d="M160.743 132.324L160.754 126.626C160.691 126.613 160.626 126.606 160.562 126.606H160.241L160.23 132.344H160.551C160.616 132.344 160.68 132.337 160.743 132.324Z" fill="#FFA412"/>
<path d="M161.46 131.793L161.469 127.158C161.345 126.948 161.167 126.782 160.956 126.69L160.945 132.261C161.156 132.167 161.334 132.004 161.46 131.793Z" fill="#FFA412"/>
<path d="M159.35 120.862L159.336 126.6L159.849 126.601L159.863 120.863L159.35 120.862Z" fill="#FFA412"/>
<path d="M152.33 120.845L152.316 126.584L152.829 126.585L152.843 120.847L152.33 120.845Z" fill="#FFA412"/>
<path d="M148.947 120.838L148.934 126.576L149.447 126.577L149.46 120.839L148.947 120.838Z" fill="#FFA412"/>
<path d="M143.768 120.827L143.754 126.565L144.267 126.566L144.28 120.828L143.768 120.827Z" fill="#FFA412"/>
<path d="M138.916 120.815L138.902 126.553L139.415 126.554L139.429 120.816L138.916 120.815Z" fill="#FFA412"/>
<path d="M134.582 120.804L134.57 126.542L135.083 126.543L135.095 120.805L134.582 120.804Z" fill="#FFA412"/>
<path d="M161.002 120.867L160.988 126.605L161.501 126.606L161.515 120.868L161.002 120.867Z" fill="#FFA412"/>
<path d="M162.096 120.869L162.082 126.607L162.595 126.608L162.609 120.87L162.096 120.869Z" fill="#FFA412"/>
<path d="M163.154 120.872L163.141 126.61L163.654 126.612L163.667 120.873L163.154 120.872Z" fill="#FFA412"/>
<path d="M163.944 120.873L163.934 126.611H164.254C164.321 126.611 164.384 126.604 164.447 126.591L164.457 120.893C164.394 120.88 164.33 120.873 164.265 120.873H163.944Z" fill="#FFA412"/>
<path d="M164.657 120.959L164.648 126.53C164.859 126.438 165.037 126.273 165.163 126.064L165.172 121.427C165.046 121.219 164.868 121.053 164.657 120.959Z" fill="#FFA412"/>
<path d="M153.411 120.857L153.926 120.859L153.937 115.121L153.435 115.119L153.446 109.521L153.946 109.523L153.957 103.783H153.444L153.433 109.512L152.931 109.51L152.922 115.25L153.422 115.252L153.411 120.857Z" fill="#FFA412"/>
<path d="M151.687 115.114L151.672 120.852L152.185 120.854L152.2 115.116L151.687 115.114Z" fill="#FFA412"/>
<path d="M143.025 115.095L143.012 120.833L143.525 120.834L143.538 115.096L143.025 115.095Z" fill="#FFA412"/>
<path d="M137.845 115.082L137.832 120.82L138.345 120.821L138.358 115.083L137.845 115.082Z" fill="#FFA412"/>
<path d="M132.994 115.071L132.98 120.81L133.493 120.811L133.507 115.073L132.994 115.071Z" fill="#FFA412"/>
<path d="M128.662 115.06L128.648 120.798L129.161 120.799L129.175 115.061L128.662 115.06Z" fill="#FFA412"/>
<path d="M155.069 120.862H155.524L155.514 126.593H156.027L156.037 120.855L155.582 120.853L155.593 115.124H155.523L155.532 109.526H155.604L155.614 103.788L155.1 103.787L155.089 109.516H155.019L155.008 115.256H155.08L155.069 120.862Z" fill="#FFA412"/>
<path d="M156.175 115.126L156.164 120.864L156.677 120.865L156.688 115.126L156.175 115.126Z" fill="#FFA412"/>
<path d="M158.823 115.265H158.913L158.924 109.526L158.474 109.525C158.497 109.521 158.523 109.519 158.546 109.514L158.557 103.815C158.494 103.803 158.429 103.796 158.364 103.796H158.044L158.031 109.532H158.352C158.371 109.532 158.391 109.53 158.409 109.528L158.398 115.131C158.379 115.13 158.361 115.128 158.341 115.128H158.02L158.01 120.857H157.729L157.74 115.128L157.259 115.126L157.27 109.528L157.752 109.53L157.763 103.792L157.25 103.79L157.239 109.519L156.757 109.517L156.746 115.256L157.228 115.257L157.218 120.864L157.608 120.866L157.597 126.595L158.11 126.597L158.121 120.866H158.332C158.398 120.866 158.461 120.859 158.524 120.846L158.535 115.259H158.735L158.724 120.781C158.935 120.689 159.113 120.524 159.239 120.315L159.248 115.68C159.14 115.504 158.994 115.362 158.823 115.265Z" fill="#FFA412"/>
<path d="M141.176 109.484L141.164 115.222L141.677 115.223L141.689 109.485L141.176 109.484Z" fill="#FFA412"/>
<path d="M136.326 109.472L136.312 115.21L136.825 115.212L136.839 109.474L136.326 109.472Z" fill="#FFA412"/>
<path d="M131.994 109.463L131.98 115.201L132.493 115.202L132.507 109.464L131.994 109.463Z" fill="#FFA412"/>
<path d="M159.506 109.528L159.492 115.266L160.005 115.267L160.019 109.529L159.506 109.528Z" fill="#FFA412"/>
<path d="M160.56 109.53L160.547 115.268L161.06 115.269L161.073 109.531L160.56 109.53Z" fill="#FFA412"/>
<path d="M161.355 109.532L161.344 115.272H161.664C161.731 115.272 161.794 115.265 161.857 115.252L161.868 109.553C161.805 109.541 161.742 109.534 161.675 109.534L161.355 109.532Z" fill="#FFA412"/>
<path d="M162.573 114.721L162.582 110.086C162.458 109.876 162.28 109.71 162.069 109.618L162.059 115.189C162.269 115.095 162.449 114.932 162.573 114.721Z" fill="#FFA412"/>
<path d="M151.705 103.779L151.691 109.517L152.204 109.518L152.218 103.78L151.705 103.779Z" fill="#FFA412"/>
<path d="M150.135 103.774H149.62L149.61 109.512H149.737L149.727 115.11H149.601L149.59 120.848L150.103 120.85L150.114 115.243H150.24L150.25 109.505H150.124L150.135 103.774Z" fill="#FFA412"/>
<path d="M146.416 109.496H146.358L146.348 115.234H146.405L146.394 120.841L146.909 120.842L146.92 115.103H146.862L146.873 109.507H146.929L146.94 103.767H146.427L146.416 109.496Z" fill="#FFA412"/>
<path d="M143.049 103.757L143.035 109.495L143.548 109.497L143.562 103.759L143.049 103.757Z" fill="#FFA412"/>
<path d="M137.865 103.746L137.852 109.484L138.365 109.485L138.378 103.747L137.865 103.746Z" fill="#FFA412"/>
<path d="M133.015 103.734L133 109.472L133.513 109.474L133.528 103.735L133.015 103.734Z" fill="#FFA412"/>
<path d="M128.684 103.725L128.672 109.463L129.185 109.464L129.197 103.726L128.684 103.725Z" fill="#FFA412"/>
<path d="M156.195 103.79L156.18 109.528L156.693 109.529L156.708 103.791L156.195 103.79Z" fill="#FFA412"/>
<path d="M158.757 103.878L158.746 109.449C158.957 109.357 159.135 109.192 159.261 108.983L159.27 104.348C159.146 104.138 158.966 103.972 158.757 103.878Z" fill="#FFA412"/>
<path d="M173.812 119.179L177.004 119.746C177.257 119.791 177.482 119.901 177.657 120.052C177.842 120.212 177.974 120.416 178.028 120.639C178.046 120.707 178.055 120.778 178.057 120.848C178.058 120.913 178.055 120.976 178.042 121.04L170.115 165.534C170.013 166.108 169.41 166.488 168.757 166.401C168.735 166.398 168.713 166.396 168.694 166.391L165.502 165.824C165.481 165.82 165.461 165.816 165.439 165.811C164.797 165.667 164.363 165.102 164.464 164.528L172.391 120.034C172.396 120.005 172.401 119.977 172.41 119.95C172.414 119.937 172.418 119.926 172.421 119.914C172.425 119.901 172.43 119.887 172.434 119.874C172.437 119.865 172.441 119.856 172.445 119.847C172.47 119.782 172.504 119.719 172.544 119.662C172.549 119.653 172.554 119.645 172.562 119.636C172.567 119.627 172.574 119.62 172.58 119.611C172.592 119.595 172.605 119.579 172.619 119.563C172.626 119.554 172.635 119.545 172.644 119.536C172.652 119.527 172.659 119.519 172.668 119.512C172.682 119.498 172.698 119.482 172.713 119.467C172.731 119.451 172.75 119.435 172.77 119.42C172.785 119.408 172.801 119.397 172.817 119.386C172.817 119.386 172.819 119.384 172.821 119.384C172.831 119.377 172.842 119.37 172.853 119.363C172.887 119.341 172.923 119.32 172.959 119.302C172.97 119.296 172.981 119.291 172.992 119.285C173.002 119.28 173.013 119.275 173.026 119.269C173.049 119.258 173.073 119.249 173.096 119.24C173.31 119.159 173.559 119.134 173.812 119.179Z" fill="#FFB93E"/>
<path d="M174.339 141.813L170.092 165.649C170 166.162 169.406 166.49 168.754 166.401C168.733 166.398 168.711 166.396 168.691 166.391L165.5 165.824C165.478 165.82 165.459 165.816 165.437 165.811C164.794 165.671 164.35 165.156 164.442 164.643L168.167 143.733C168.216 143.732 168.263 143.73 168.311 143.73C170.025 143.676 172.386 143.287 174.339 141.813Z" fill="#FFA412"/>
<path d="M171.61 124.377L171.52 124.882L177.168 125.89L177.258 125.385L171.61 124.377Z" fill="#FFA412"/>
<path d="M171.305 126.089L171.215 126.594L176.864 127.599L176.954 127.094L171.305 126.089Z" fill="#FFA412"/>
<path d="M170.942 128.132L170.852 128.637L176.501 129.643L176.591 129.138L170.942 128.132Z" fill="#FFA412"/>
<path d="M170.379 131.277L170.289 131.782L175.938 132.789L176.028 132.283L170.379 131.277Z" fill="#FFA412"/>
<path d="M169.785 134.614L169.695 135.119L175.344 136.125L175.434 135.62L169.785 134.614Z" fill="#FFA412"/>
<path d="M168.895 139.716L168.805 140.221L174.454 141.228L174.544 140.723L168.895 139.716Z" fill="#FFA412"/>
<path d="M168.023 144.489L167.934 144.994L173.583 146L173.673 145.495L168.023 144.489Z" fill="#FFA412"/>
<path d="M167.27 148.762L167.18 149.267L172.828 150.275L172.918 149.77L167.27 148.762Z" fill="#FFA412"/>
<path d="M171.902 122.738L171.812 123.243L177.462 124.249L177.552 123.744L171.902 122.738Z" fill="#FFA412"/>
<path d="M172.106 121.669L172.016 122.174L177.665 123.181L177.755 122.676L172.106 121.669Z" fill="#FFA412"/>
<path d="M172.277 120.621L172.188 121.126L177.837 122.133L177.927 121.628L172.277 120.621Z" fill="#FFA412"/>
<path d="M172.336 120.353L177.986 121.357L178.042 121.04C178.052 120.976 178.058 120.911 178.056 120.848L172.446 119.851C172.422 119.91 172.404 119.971 172.392 120.038L172.336 120.353Z" fill="#FFA412"/>
<path d="M172.543 119.665L178.027 120.639C177.973 120.416 177.842 120.211 177.656 120.052L173.092 119.242C172.863 119.329 172.671 119.474 172.543 119.665Z" fill="#FFA412"/>
<path d="M165.268 78.5023C173.037 70.7338 173.037 58.1387 165.268 50.3703C157.5 42.6019 144.905 42.6019 137.136 50.3703C129.368 58.1387 129.368 70.7338 137.136 78.5023C144.905 86.2707 157.5 86.2707 165.268 78.5023Z" fill="#E2810E"/>
<path d="M168.923 70.3244C171.714 59.6984 165.362 48.8222 154.736 46.0316C144.11 43.2411 133.234 49.593 130.443 60.219C127.653 70.8449 134.005 81.7212 144.631 84.5117C155.257 87.3022 166.133 80.9503 168.923 70.3244Z" fill="#FFB93E"/>
<path d="M149.828 83.6007C143.433 83.6007 137.225 80.2151 133.924 74.2286C131.588 69.9899 131.04 65.0923 132.387 60.4432C133.731 55.7922 136.807 51.9441 141.048 49.6078C145.288 47.2697 150.184 46.7244 154.833 48.0689C159.484 49.4134 163.332 52.4894 165.669 56.73C170.492 65.4829 167.298 76.5271 158.547 81.3526C155.78 82.8771 152.783 83.6007 149.828 83.6007ZM149.772 48.4289C146.932 48.4289 144.124 49.1452 141.568 50.5545C137.581 52.7522 134.689 56.37 133.424 60.7438C132.158 65.1175 132.671 69.7217 134.871 73.7066C137.974 79.3349 143.813 82.519 149.824 82.519C152.605 82.519 155.422 81.8386 158.023 80.4041C166.252 75.8665 169.258 65.4811 164.72 57.2502C162.522 53.2634 158.905 50.371 154.531 49.1056C152.963 48.6538 151.363 48.4289 149.772 48.4289Z" fill="#FFA412"/>
<path d="M154.523 68.8811C154.375 68.5157 154.193 68.2169 153.977 67.9793C153.761 67.7436 153.491 67.56 153.166 67.4286C152.84 67.2972 152.455 67.2126 152.007 67.1712C151.56 67.1298 151.033 67.1262 150.426 67.1604C149.379 67.2108 148.41 67.2126 147.521 67.164C146.63 67.1154 145.826 66.9696 145.106 66.7266C144.386 66.4818 143.754 66.1128 143.209 65.6161C142.663 65.1193 142.219 64.4443 141.873 63.5948C141.574 62.8568 141.43 62.1315 141.447 61.4169C141.461 60.7023 141.621 60.022 141.924 59.3722C142.226 58.7225 142.66 58.1195 143.223 57.5633C143.786 57.0054 144.472 56.5176 145.282 56.0982L144.15 53.3102L146.393 52.3994L147.541 55.2253C148.387 55.0039 149.202 54.9193 149.987 54.9751C150.772 55.0309 151.497 55.2217 152.163 55.5474C152.829 55.875 153.428 56.3358 153.959 56.9352C154.49 57.5345 154.933 58.2671 155.286 59.1346L151.234 60.7797C150.811 59.7376 150.264 59.0518 149.591 58.7243C148.918 58.3949 148.194 58.3895 147.419 58.7045C146.997 58.8755 146.659 59.0806 146.403 59.3218C146.148 59.563 145.962 59.824 145.849 60.1084C145.736 60.3928 145.689 60.6915 145.709 61.0083C145.729 61.3233 145.802 61.6419 145.934 61.9641C146.065 62.2863 146.229 62.558 146.429 62.7794C146.628 63.0026 146.888 63.1772 147.206 63.3068C147.525 63.4346 147.914 63.521 148.371 63.5624C148.828 63.6038 149.381 63.6146 150.027 63.5966C151.071 63.5678 152.037 63.5786 152.925 63.6344C153.812 63.6884 154.616 63.8396 155.338 64.088C156.06 64.3363 156.693 64.7089 157.237 65.2057C157.782 65.7025 158.225 66.372 158.567 67.2144C158.877 67.9775 159.023 68.7191 159.003 69.4337C158.983 70.15 158.819 70.8286 158.513 71.4675C158.207 72.1083 157.764 72.7023 157.187 73.2494C156.609 73.7984 155.916 74.2808 155.106 74.702L156.159 77.2938L153.929 78.1992L152.881 75.6199C152.073 75.8575 151.254 75.9925 150.424 76.0267C149.595 76.0609 148.799 75.9457 148.04 75.6829C147.28 75.4201 146.58 74.9827 145.939 74.3726C145.3 73.7624 144.767 72.9363 144.344 71.8941L148.396 70.249C148.646 70.8646 148.941 71.3451 149.282 71.6871C149.622 72.0291 149.987 72.2649 150.378 72.3945C150.768 72.5241 151.168 72.5637 151.578 72.5133C151.989 72.4629 152.385 72.3603 152.768 72.2055C153.207 72.0273 153.571 71.8149 153.855 71.5665C154.141 71.3182 154.355 71.05 154.499 70.7584C154.643 70.4668 154.715 70.1626 154.715 69.844C154.717 69.5237 154.652 69.2033 154.523 68.8811Z" fill="#FFA412"/>
<path d="M169.481 53.7295C168.649 53.1427 166.761 51.8486 166.664 52.1366C166.594 52.3436 166.694 52.6963 166.919 53.0617C165.778 52.6351 164.619 52.3562 161.878 52.8817C161.329 52.9879 160.832 53.2993 160.53 53.7691C160.251 54.2047 160.146 54.7482 160.845 55.1838C162.243 56.0532 161.838 55.533 163.782 56.7983C165.726 58.0654 168.106 58.3876 169.527 57.4985L171.435 57.1799L171.673 54.0409C171.673 54.0445 170.586 53.9149 169.481 53.7295Z" fill="#FFB27D"/>
<path d="M219.485 27.4042C219.485 27.4042 214.987 32.7409 209.258 30.509C209.258 30.509 208.025 27.5284 208.009 25.3307C208.007 25.0607 208.004 24.7979 208 24.5496C207.97 22.0747 207.887 20.687 207.887 20.687C207.887 20.687 207.889 20.687 207.892 20.6852C208.153 20.5772 216.65 17.0872 216.643 17.377C216.494 24.069 219.485 27.4042 219.485 27.4042Z" fill="#FFB27D"/>
<path d="M215.786 18.9735C214.967 20.4926 212.156 23.4643 207.996 24.5496C207.966 22.0748 207.883 20.687 207.883 20.687C207.883 20.687 207.885 20.687 207.888 20.6852C208.124 20.6222 216.031 18.5254 215.786 18.9735Z" fill="#ED975D"/>
<path d="M206.104 20.4296C206.104 20.4296 215.66 22.6759 216.969 16.7039C218.275 10.7318 220.39 6.9988 214.344 5.31229C208.298 3.62579 206.61 5.64348 205.689 7.53157C204.765 9.41786 203.651 19.6917 206.104 20.4296Z" fill="#FFB27D"/>
<path d="M216.64 18.3309C216.771 18.4137 218.827 19.0455 222.72 11.2897C223.332 10.0712 223.747 7.43792 222.322 5.11065C220.896 2.78338 215.844 0.952882 211.647 0.157326C207.449 -0.638229 206.441 1.72324 205.453 4.09731C204.415 6.58837 201.418 8.64025 201.418 8.64025C205.038 10.6615 209.397 7.7709 210.907 8.24607C212.417 8.72125 212.952 11.1025 213.065 11.8657C213.179 12.6288 213.353 13.2624 215.252 12.582C217.151 11.8999 216.111 15.2729 215.806 15.919C215.81 15.9136 215.551 17.6325 216.64 18.3309Z" fill="#A9453D"/>
<path d="M241.257 167.271H247.044C248.257 167.271 249.605 166.056 249.942 163.833C250.278 161.608 252.773 160.395 253.313 158.575C253.853 156.756 251.088 154.193 251.088 154.193L250.626 153.599L250.145 152.98L245.562 154.058C245.562 154.058 245.449 155.148 245.379 156.54C245.33 157.544 245.303 158.705 245.361 159.722C245.496 162.15 244.68 164.763 242.524 165.235C240.364 165.705 241.257 167.271 241.257 167.271Z" fill="#2C3A64"/>
<path d="M200.977 167.271H216.315C216.463 167.242 216.573 167.21 216.641 167.177C217.665 166.664 217.345 162.744 217.221 161.533C217.197 161.308 217.179 161.176 217.179 161.176C217.179 161.176 211.787 156.862 211.043 160.167C211.02 160.269 210.993 160.372 210.964 160.471V160.472C210.028 163.563 205.842 164.967 203.424 165.357C201.58 165.656 201.101 166.733 200.977 167.271Z" fill="#2C3A64"/>
<path d="M204.07 78.8219C204.07 78.8219 204.889 89.0417 205.852 101.326C207.161 118.013 208.734 138.51 208.89 142.394C209.16 149.137 210.239 159.924 210.239 159.924C210.239 159.924 212.8 162.487 217.924 161.407C217.924 161.407 222.49 146.01 223.795 129.719C223.815 129.453 223.835 129.183 223.857 128.915C225.07 112.331 226.958 77.4089 226.958 77.4089L204.07 78.8219Z" fill="#2B478B"/>
<path d="M204.07 78.822C204.07 78.822 204.889 89.0418 205.852 101.326L223.795 129.718C223.815 129.451 223.835 129.181 223.857 128.913C225.07 112.329 226.958 77.4072 226.958 77.4072L204.07 78.822Z" fill="#233862"/>
<path d="M207.809 80.0368C207.809 80.0368 222.573 117.046 232.28 134.441C241.987 151.833 245.022 156.687 245.022 156.687C245.022 156.687 250.583 154.463 251.089 152.945C251.089 152.945 247.378 119.368 240.876 111.182C237.203 106.557 232.888 92.6775 232.685 87.8232C232.483 82.9689 231.371 73.3628 231.371 73.3628L207.809 80.0368Z" fill="#2B478B"/>
<path d="M241.475 73.3126L241.632 75.692C241.632 75.692 240.062 79.92 244.461 82.0889C244.461 82.0889 246.344 82.8484 246.419 81.3833C246.495 79.9182 246.255 80.469 246.408 78.4045C246.561 76.34 245.75 74.3907 244.385 73.7337L243.266 72.4414L241.475 73.3126Z" fill="#FFB27D"/>
<path d="M243.194 75.044C241.56 75.5696 241.299 75.4508 241.299 75.4508C241.299 75.4508 233.345 60.9706 232.539 59.6441C231.733 58.3193 215.652 43.4054 215.652 43.4054L219.785 27.9946C219.785 27.9946 238.075 51.6795 240.05 55.0795C243.313 60.6952 245.226 73.7391 245.226 73.7391C245.226 73.7391 244.478 74.6318 243.194 75.044Z" fill="#1E3D70"/>
<path d="M200.949 49.4565C201.006 52.6208 201.19 56.1792 201.438 59.7934C201.453 60.0075 201.469 60.2217 201.483 60.4359C201.642 62.675 201.814 64.9177 202.011 67.1064C202.09 67.9829 202.174 68.8505 202.263 69.7018L202.275 69.817C202.282 70.1356 202.32 70.4812 202.356 70.7961C203.162 78.9911 204.008 85.4653 204.165 85.5661C204.352 85.6903 204.563 85.7533 204.795 85.7263C206.944 85.4563 213.357 85.9441 218.606 84.8012C223.035 83.867 226.849 82.0959 230.892 79.7056C231.428 79.3889 232.652 78.5483 232.551 77.9201C232.454 77.2308 232.272 76.2336 232.044 74.9791C231.248 70.6198 229.873 63.1214 229.403 54.3451C229.311 52.7108 229.178 51.0962 229.007 49.5087C228.557 45.3744 227.835 41.447 226.867 37.9588C225.067 31.4774 222.421 26.515 219.104 24.5729C218.67 24.3299 216.338 25.8149 214.196 27.19C212.218 28.4589 210.133 28.8099 208.107 28.6317L206.323 30.6044C204.163 33.1153 201.865 36.4559 201.237 41.2076C201.19 41.5586 201.148 41.9312 201.116 42.3271C200.941 44.2638 200.9 46.7135 200.949 49.4565Z" fill="#2A4E96"/>
<path d="M200.949 49.4566C201.006 52.6208 201.19 56.1792 201.438 59.7934C201.453 60.0076 201.469 60.2218 201.483 60.436C213.758 52.7522 215.65 38.6914 215.65 38.6914C209.612 38.956 204.813 40.3455 201.116 42.3308C200.941 44.2639 200.9 46.7136 200.949 49.4566Z" fill="#1E3D70"/>
<path d="M169.933 55.5096C169.807 53.6881 170.751 53.3857 170.751 53.3857C170.751 53.3857 189.259 50.0307 190.834 49.5357C192.407 49.0408 205.861 35.0447 205.861 35.0447C205.861 35.0447 211.018 29.2293 215.241 30.5126C218.911 31.6285 220.345 34.4904 220.833 37.2172C221.414 40.466 219.917 43.7365 217.103 45.4626C210.788 49.3359 198.141 56.9711 195.163 57.8441C188.534 59.788 170.725 58.0007 170.725 58.0007C170.725 58.0007 170.034 56.9405 169.933 55.5096Z" fill="#2A4E96"/>
<path opacity="0.2" d="M191.712 91.0612V159.861C191.712 163.874 188.429 167.157 184.415 167.157H113.697C113.083 167.157 112.486 167.082 111.913 166.94C110.689 166.637 109.581 166.029 108.675 165.201C108.027 164.61 107.486 163.907 107.077 163.126C107.055 163.084 107.034 163.043 107.012 163C106.587 162.148 106.323 161.207 106.256 160.213C106.244 160.044 106.238 159.873 106.238 159.7V91.5022C106.238 87.6432 108.233 84.074 111.485 81.9969C111.485 81.9969 111.487 81.9951 111.494 81.9915C114.203 80.2582 115.999 77.22 115.999 73.7642C115.999 72.7382 115.841 71.7519 115.549 70.8231H182.403C182.109 71.7519 181.951 72.7382 181.951 73.7642C181.951 77.0778 183.602 80.0062 186.125 81.7701C186.127 81.7701 186.127 81.7719 186.127 81.7719C186.296 81.8889 186.467 82.0023 186.643 82.1085C186.645 82.1103 186.645 82.1103 186.645 82.1103C189.777 84.0146 191.712 87.393 191.712 91.0612Z" fill="#ED9F4A"/>
<path opacity="0.2" d="M191.71 91.0612V159.861C191.71 163.7 188.704 166.873 184.928 167.139C184.759 167.152 184.586 167.157 184.413 167.157H153.275C149.173 167.157 145.816 163.801 145.816 159.699V91.5022C145.816 87.6432 147.811 84.074 151.063 81.9969C153.777 80.2636 155.577 77.2236 155.577 73.7642C155.577 72.7382 155.419 71.7519 155.127 70.8231H182.399C182.106 71.7519 181.948 72.7382 181.948 73.7642C181.948 76.4802 183.056 78.9371 184.845 80.7046C185.385 81.2409 185.988 81.7125 186.642 82.1085C189.775 84.0146 191.71 87.393 191.71 91.0612Z" fill="#ED9F4A"/>
<path opacity="0.6" d="M186.125 81.7701C183.942 80.4634 174.481 75.8287 150.424 76.0249C122.869 76.2498 111.831 81.8187 111.492 81.9933C114.201 80.26 115.997 77.2218 115.997 73.766C115.997 72.74 115.839 71.7537 115.547 70.825H182.401C182.108 71.7537 181.949 72.74 181.949 73.766C181.949 77.0778 183.6 80.0062 186.125 81.7701Z" fill="#ED9F4A"/>
<path d="M183.914 70.3426V73.4636C183.914 73.7714 183.664 74.0234 183.356 74.0234H114.591C114.283 74.0234 114.031 73.7732 114.031 73.4636V70.3426C114.031 70.0366 114.281 69.7828 114.591 69.7828H183.356C183.664 69.7828 183.914 70.0348 183.914 70.3426Z" fill="#2B478B"/>
<path d="M183.916 70.3426V73.4636C183.916 73.7714 183.665 74.0234 183.358 74.0234H157.329C157.023 74.0234 156.77 73.7732 156.77 73.4636V70.3426C156.77 70.0366 157.022 69.7828 157.329 69.7828H183.359C183.665 69.7828 183.916 70.0348 183.916 70.3426Z" fill="#233862"/>
<path d="M138.038 85.7929C138.038 85.7929 136.265 88.2875 134.64 88.3235C133.014 88.3577 130.543 87.1662 130.543 87.1662C130.543 87.1662 129.051 83.8418 130.063 82.5405C130.063 82.5405 131.078 82.0959 132.138 82.8824C132.32 83.0174 132.505 83.1884 132.687 83.408C132.944 83.7176 133.234 83.894 133.54 83.9858C134.699 84.3386 136.076 83.5088 136.591 84.3098C136.891 84.7759 137.219 85.1251 137.487 85.3717C137.808 85.6543 138.038 85.7929 138.038 85.7929Z" fill="#F9DDBF"/>
<path d="M114.93 103.792C114.93 103.792 121.195 88.6115 132.47 88.3235C132.47 88.3235 142.879 89.4809 143.456 103.792H114.93Z" fill="#F9DDBF"/>
<path d="M129.381 88.7861C129.381 88.7861 133.901 89.7905 135.296 89.2001C135.296 89.2001 135.506 87.3102 133.604 87.5748C132.301 87.7566 131.453 87.1302 130.953 86.8764C130.247 86.5183 129.194 87.996 129.381 88.7861Z" fill="#F1A34F"/>
<path d="M133.314 85.9368C133.024 86.1528 132.137 82.8806 132.137 82.8806C132.319 83.0156 132.504 83.1866 132.686 83.4062C132.943 83.7158 133.233 83.8922 133.539 83.984C133.542 84.0811 133.595 85.7263 133.314 85.9368Z" fill="#E5C1A1"/>
<path d="M137.488 85.3699C137.425 85.4077 135.333 86.6587 135.051 86.6587C134.761 86.6587 136.591 84.308 136.591 84.308C136.892 84.776 137.218 85.1251 137.488 85.3699Z" fill="#E5C1A1"/>
<path d="M121.049 99.5513C120.934 99.4523 125.482 92.8539 126.735 92.8053C127.988 92.7567 130.803 94.2506 132.84 94.4432C134.878 94.6358 136.854 94.058 137.239 95.2622C137.624 96.4663 138.684 100.737 138.035 101.421C137.387 102.105 123.551 101.688 121.049 99.5513Z" fill="#E5C1A1"/>
<path d="M299.354 167.177H0.647964C0.289784 167.177 0 166.887 0 166.529V166.203C0 165.845 0.289784 165.555 0.647964 165.555H299.352C299.71 165.555 300 165.845 300 166.203V166.529C300.002 166.887 299.71 167.177 299.354 167.177Z" fill="#2E3552"/>
</svg>
