<svg width="145" height="200" viewBox="0 0 145 200" fill="none" xmlns="http://www.w3.org/2000/svg">
<path d="M27.8206 102.092C27.8206 102.092 27.6347 102.2 27.2688 102.4C26.9029 102.604 26.3472 102.885 25.6451 103.3C24.229 104.107 22.1623 105.351 19.6683 107.19C17.1764 109.028 14.2453 111.456 11.2372 114.668C9.73213 116.272 8.20926 118.068 6.72199 120.071C5.22484 122.063 3.81866 124.306 2.62212 126.8C2.04659 128.055 1.51458 129.369 1.0953 130.753C0.691835 132.139 0.387261 133.589 0.248819 135.09C0.122243 136.589 0.193442 138.136 0.492082 139.669C0.624591 140.44 0.87181 141.19 1.12101 141.945C1.4058 142.687 1.73411 143.423 2.14152 144.121C3.74943 146.939 6.28689 149.306 9.28515 151.013C12.2894 152.734 15.7544 153.772 19.3539 154.371C21.1576 154.672 22.9989 154.874 24.8678 155.018C25.8013 155.097 26.7447 155.129 27.6921 155.17C28.6394 155.212 29.5907 155.251 30.5479 155.293C31.5052 155.352 32.4683 155.333 33.4374 155.333C34.4045 155.331 35.3776 155.327 36.3566 155.325C37.3356 155.342 38.3146 155.261 39.3015 155.226C40.2884 155.18 41.2772 155.135 42.272 155.087C50.2265 154.605 58.4085 153.339 66.6399 151.43C83.1244 147.6 98.1929 141.633 111.458 135.44C118.101 132.367 124.319 129.157 129.554 125.277C132.173 123.346 134.514 121.228 136.52 118.974C136.769 118.691 137.016 118.408 137.263 118.127C137.509 117.844 137.726 117.544 137.958 117.255C138.185 116.964 138.412 116.675 138.638 116.387C138.846 116.086 139.053 115.787 139.261 115.491C140.115 114.322 140.813 113.086 141.383 111.83C142.508 109.318 143.151 106.698 143.046 104.212C142.943 101.738 141.998 99.4315 140.414 97.9086C138.848 96.366 136.86 95.5907 135.028 95.2466C133.177 94.9064 131.435 94.9894 129.914 95.2505C128.387 95.5056 127.068 95.9091 125.943 96.2967C124.817 96.6883 123.884 97.076 123.132 97.3904C122.387 97.7108 121.815 97.9561 121.427 98.1242C121.044 98.2903 120.844 98.3714 120.844 98.3714C120.844 98.3714 121.036 98.2765 121.416 98.1024C121.797 97.9284 122.363 97.6693 123.113 97.3469C123.862 97.0245 124.794 96.631 125.919 96.2295C127.044 95.832 128.365 95.4206 129.898 95.1576C131.425 94.8886 133.181 94.7956 135.05 95.1338C136.899 95.474 138.915 96.2513 140.513 97.8137C142.129 99.3543 143.098 101.702 143.206 104.208C143.319 106.725 142.674 109.37 141.545 111.905C140.974 113.173 140.271 114.423 139.415 115.598C139.207 115.896 139 116.197 138.792 116.499C138.567 116.79 138.339 117.081 138.11 117.374C137.878 117.664 137.659 117.967 137.414 118.252C137.166 118.535 136.917 118.817 136.668 119.104C134.657 121.373 132.305 123.505 129.681 125.445C124.43 129.345 118.204 132.569 111.559 135.65C98.2898 141.858 83.2095 147.837 66.7012 151.674C50.2285 155.526 33.8725 156.604 19.3222 154.597C15.7049 153.992 12.2142 152.943 9.18231 151.201C6.15833 149.474 3.59517 147.079 1.96946 144.222C1.55611 143.512 1.22583 142.766 0.937075 142.014C0.685901 141.249 0.436705 140.488 0.302218 139.706C0.00160012 138.154 -0.0676211 136.587 0.0629103 135.073C0.205308 133.558 0.513837 132.096 0.923231 130.7C1.34647 129.305 1.88639 127.986 2.46785 126.724C3.67428 124.221 5.09233 121.972 6.59937 119.978C8.09455 117.973 9.62731 116.177 11.1383 114.575C14.1623 111.363 17.1091 108.942 19.613 107.115C22.1188 105.286 24.1954 104.053 25.6214 103.26C27.0473 102.461 27.8206 102.092 27.8206 102.092Z" fill="#E1E1E1"/>
<path d="M114.646 159.454L55.7405 159.318C53.2999 159.312 51.3242 157.593 51.3281 155.481C51.3321 153.367 53.3158 151.658 55.7583 151.664L114.664 151.8C117.106 151.806 119.08 153.525 119.076 155.637C119.07 157.749 117.088 159.46 114.646 159.454Z" fill="#375A64"/>
<path d="M114.646 150.163L55.7405 150.026C53.2999 150.02 51.3242 148.302 51.3281 146.189C51.3321 144.075 53.3158 142.366 55.7583 142.372L114.664 142.509C117.106 142.515 119.08 144.233 119.076 146.346C119.07 148.46 117.088 150.169 114.646 150.163Z" fill="#375A64"/>
<path d="M112.277 160.843L58.3415 160.718C56.1047 160.712 54.2891 162.522 54.2852 164.757C54.2792 166.991 56.0869 168.809 58.3237 168.813L64.2431 168.827L72.0632 183.794C72.9571 185.507 74.7272 186.581 76.6594 186.585L95.9326 186.63C97.8846 186.634 99.6725 185.547 100.566 183.812L108.234 168.928L112.259 168.937C114.494 168.943 116.311 167.136 116.315 164.899C116.319 162.664 114.512 160.849 112.277 160.843Z" fill="#375A64"/>
<path d="M130.8 98.0905C130.8 98.0905 130.8 98.0905 130.806 98.0905C130.806 98.0905 130.662 98.314 130.373 98.7412C130.082 99.1684 129.653 99.8013 129.087 100.632C128.805 101.047 128.486 101.512 128.136 102.026C127.792 102.544 127.456 103.138 127.068 103.767C126.687 104.398 126.273 105.08 125.832 105.808C125.381 106.532 124.99 107.352 124.525 108.197C124.297 108.622 124.064 109.059 123.825 109.508C123.704 109.734 123.583 109.961 123.461 110.19C123.35 110.428 123.237 110.667 123.125 110.91C122.67 111.881 122.191 112.9 121.691 113.968C121.246 115.06 120.779 116.199 120.294 117.385C119.851 118.588 119.412 119.848 118.961 121.155C118.147 123.797 117.334 126.655 116.756 129.76C116.185 132.857 115.74 136.198 115.797 139.714L115.799 139.793H115.722C98.6242 139.801 77.2625 139.813 52.8393 139.825H52.7404L52.7325 139.726C52.155 132.711 50.2326 125.461 47.0584 118.465C45.4762 114.965 43.5973 111.523 41.4673 108.171C40.4032 106.494 39.2739 104.841 38.0695 103.225C36.8907 101.593 35.5577 100.06 34.2504 98.4782L34.0922 98.2863H34.3434L34.2504 98.4782C28.5921 91.2119 24.3716 82.314 22.5204 72.625C22.2653 71.4186 22.1071 70.1924 21.9192 68.9662C21.842 68.3511 21.7847 67.7321 21.7155 67.115L21.6205 66.1855L21.5612 65.252C21.5276 64.629 21.4702 64.006 21.4544 63.381C21.4406 62.7561 21.4287 62.1291 21.4149 61.5022C21.3872 60.8752 21.4346 60.2463 21.4406 59.6174C21.4603 58.9885 21.4643 58.3576 21.4959 57.7267C21.7867 52.6874 22.6747 47.6223 24.2035 42.7076C28.6198 28.6379 38.1387 16.7319 49.9024 9.38849C52.8354 7.53929 55.8989 5.95314 59.0396 4.63794C62.1782 3.31284 65.4138 2.32001 68.6613 1.56451C75.1622 0.0376917 81.7679 -0.310392 88.1125 0.255244C91.2828 0.569706 94.3958 1.07601 97.4079 1.83942C100.414 2.61865 103.325 3.58973 106.114 4.74869C108.889 5.94127 111.541 7.29999 114.055 8.80307C116.545 10.3457 118.904 12.007 121.101 13.7989C125.464 17.4142 129.22 21.4607 132.24 25.7662C135.304 30.0461 137.635 34.5672 139.372 39.0587C139.839 40.1702 140.175 41.3133 140.562 42.4228C140.928 43.5403 141.211 44.6676 141.533 45.7652C141.785 46.8827 142.062 47.9803 142.277 49.074C142.374 49.6238 142.471 50.1677 142.568 50.7096C142.665 51.2515 142.768 51.7875 142.825 52.3274C143.426 56.625 143.557 60.7348 143.329 64.5538C142.884 72.2057 141.075 78.6374 139.083 83.6273C138.094 86.1331 137.002 88.2671 136.033 90.0965C135.027 91.9081 134.107 93.4013 133.318 94.58C132.918 95.1654 132.566 95.6816 132.264 96.1266C131.943 96.5558 131.676 96.9157 131.459 97.2045C131.042 97.7701 130.85 98.0253 130.8 98.0905C130.848 98.0253 131.032 97.7701 131.439 97.2065C131.655 96.9098 131.92 96.5439 132.238 96.1068C132.539 95.6599 132.887 95.1417 133.28 94.5563C134.06 93.3756 134.973 91.8784 135.972 90.0648C136.933 88.2334 138.015 86.0994 138.996 83.5936C140.97 78.6058 142.764 72.184 143.193 64.5479C143.414 60.7388 143.276 56.6369 142.671 52.3511C142.613 51.8132 142.508 51.2772 142.412 50.7373C142.315 50.1974 142.218 49.6535 142.119 49.1056C141.901 48.0139 141.624 46.9202 141.373 45.8068C141.051 44.7111 140.766 43.5877 140.4 42.4743C140.013 41.3687 139.676 40.2275 139.208 39.12C137.469 34.6443 135.141 30.139 132.082 25.875C129.066 21.5833 125.32 17.5546 120.969 13.9551C118.777 12.1732 116.424 10.5178 113.942 8.98305C111.436 7.48787 108.792 6.13509 106.027 4.94844C103.248 3.79541 100.347 2.83027 97.3505 2.055C94.3503 1.29752 91.2472 0.793192 88.0887 0.480707C81.7679 -0.0789955 75.1859 0.269088 68.7127 1.79196C65.4791 2.54746 62.2554 3.53633 59.1305 4.85747C56.0037 6.17069 52.954 7.75091 50.0329 9.59417C38.3167 16.9099 28.8373 28.7704 24.4408 42.7808C22.9179 47.6757 22.0339 52.719 21.7432 57.7405C21.7115 58.3674 21.7076 58.9964 21.6878 59.6233C21.6819 60.2503 21.6344 60.8752 21.6621 61.5002C21.6759 62.1252 21.6878 62.7501 21.7016 63.3731C21.7175 63.9961 21.7748 64.6171 21.8084 65.2362L21.8678 66.1657L21.9627 67.0913C22.0299 67.7064 22.0873 68.3234 22.1644 68.9365C22.3503 70.1568 22.5086 71.3791 22.7617 72.5796C24.605 82.229 28.8037 91.0933 34.4383 98.3338L34.5886 98.5256H34.3454L34.4403 98.3338C35.7357 99.9041 37.0727 101.443 38.2593 103.084C39.4658 104.706 40.599 106.363 41.6631 108.047C43.797 111.409 45.6799 114.86 47.264 118.372C50.4462 125.389 52.3706 132.668 52.9461 139.71L52.8393 139.611C77.2625 139.623 98.6242 139.635 115.722 139.643L115.647 139.722C115.593 136.178 116.046 132.84 116.624 129.735C117.209 126.625 118.028 123.764 118.851 121.119C119.306 119.81 119.747 118.55 120.194 117.346C120.682 116.159 121.151 115.018 121.6 113.926C122.104 112.858 122.585 111.84 123.043 110.869C123.158 110.626 123.271 110.386 123.384 110.151C123.508 109.919 123.629 109.692 123.75 109.469C123.991 109.02 124.226 108.582 124.456 108.159C124.924 107.317 125.32 106.496 125.773 105.772C126.218 105.044 126.633 104.364 127.019 103.733C127.408 103.106 127.749 102.515 128.095 101.999C128.449 101.486 128.769 101.024 129.054 100.608C129.625 99.7835 130.063 99.1546 130.357 98.7293C130.652 98.3061 130.808 98.0905 130.808 98.0905C130.8 98.0905 130.8 98.0905 130.8 98.0905Z" fill="#1A2E35"/>
<path d="M30.145 81.426C30.141 81.428 30.1232 81.3825 30.0896 81.2915C30.054 81.1887 30.0085 81.0562 29.9531 80.89C29.8325 80.5202 29.6644 80.0001 29.4488 79.3415C29.34 79.0033 29.2214 78.6275 29.0908 78.2201C28.9722 77.8067 28.8673 77.3499 28.7427 76.8633C28.5074 75.8863 28.187 74.7847 27.9853 73.5328C27.8706 72.9098 27.7479 72.2591 27.6233 71.5788C27.5027 70.8985 27.4394 70.1805 27.3385 69.4448C27.117 67.9714 27.0439 66.3813 26.9331 64.7101C26.8164 61.3657 26.9272 57.6752 27.4275 53.8404C27.9675 50.0095 28.8436 46.4238 29.8483 43.2297C30.4001 41.6495 30.8945 40.1346 31.5017 38.7739C31.7944 38.0896 32.0476 37.4152 32.3462 36.7922C32.6488 36.1711 32.9395 35.5758 33.2164 35.0063C33.7425 33.8532 34.3477 32.8782 34.8342 31.9981C35.0854 31.563 35.3069 31.1496 35.5324 30.7838C35.7677 30.4238 35.9813 30.0955 36.1771 29.7988C36.5588 29.2194 36.8614 28.7645 37.075 28.4401C37.1739 28.2957 37.253 28.181 37.3143 28.0901C37.3697 28.0129 37.3994 27.9734 37.4033 27.9754C37.4073 27.9773 37.3835 28.0208 37.3361 28.1039C37.2807 28.1969 37.2075 28.3175 37.1185 28.4678C36.9128 28.7981 36.6261 29.2609 36.2602 29.8503C36.0723 30.1509 35.8626 30.4831 35.6352 30.8451C35.4157 31.2149 35.2001 31.6283 34.9568 32.0673C34.4822 32.9514 33.8908 33.9304 33.3766 35.0834C33.1037 35.653 32.8189 36.2503 32.5242 36.8713C32.2315 37.4943 31.9843 38.1687 31.6955 38.853C31.0982 40.2137 30.6137 41.7247 30.0698 43.3009C29.0809 46.4871 28.2147 50.0589 27.6767 53.876C27.1783 57.695 27.0617 61.3697 27.1645 64.7022C27.2693 66.3674 27.3346 67.9516 27.5462 69.4211C27.6411 70.1568 27.7005 70.8727 27.8152 71.5511C27.9358 72.2295 28.0505 72.8802 28.1613 73.5012C28.3512 74.7511 28.6597 75.8507 28.8812 76.8297C28.9999 77.3162 29.0968 77.7731 29.2095 78.1884C29.3321 78.5978 29.4448 78.9736 29.5457 79.3138C29.7415 79.9783 29.8938 80.5024 30.0046 80.8742C30.052 81.0423 30.0896 81.1768 30.1173 81.2816C30.139 81.3766 30.1489 81.424 30.145 81.426Z" fill="#1A2E35"/>
<path d="M48.2915 17.4913C48.337 17.5428 46.8715 18.8797 45.0223 20.4758C43.1711 22.0738 41.6344 23.3257 41.5909 23.2743C41.5454 23.2228 43.0109 21.8859 44.8601 20.2898C46.7113 18.6918 48.246 17.4379 48.2915 17.4913Z" fill="#1A2E35"/>
<path d="M131.45 88.3205C131.446 88.3185 131.46 88.2809 131.491 88.2117C131.529 88.1286 131.576 88.0278 131.634 87.9052C131.772 87.6204 131.962 87.2288 132.199 86.7363C132.324 86.4812 132.462 86.2003 132.613 85.8938C132.757 85.5833 132.902 85.2391 133.064 84.8733C133.378 84.1375 133.772 83.3148 134.116 82.3675C134.298 81.8967 134.488 81.4043 134.685 80.8921C134.881 80.3778 135.047 79.83 135.239 79.2703C135.639 78.1548 135.965 76.9326 136.333 75.651C137.001 73.074 137.595 70.2023 137.976 67.1526C138.332 64.099 138.443 61.168 138.408 58.5059C138.356 57.1749 138.33 55.9091 138.208 54.7304C138.154 54.141 138.125 53.5694 138.056 53.0236C137.986 52.4797 137.919 51.9556 137.854 51.4552C137.745 50.4525 137.559 49.5605 137.429 48.7694C137.357 48.3759 137.302 48.006 137.235 47.6698C137.162 47.3376 137.094 47.031 137.033 46.7541C136.918 46.2181 136.827 45.7949 136.762 45.4844C136.736 45.3499 136.715 45.2411 136.697 45.1521C136.683 45.077 136.679 45.0374 136.683 45.0374C136.687 45.0354 136.701 45.073 136.721 45.1462C136.744 45.2332 136.774 45.34 136.81 45.4725C136.887 45.7811 136.994 46.2023 137.126 46.7343C137.193 47.0112 137.268 47.3158 137.35 47.6481C137.423 47.9843 137.488 48.3521 137.565 48.7457C137.709 49.5348 137.907 50.4288 138.026 51.4315C138.095 51.9319 138.168 52.456 138.243 53.0018C138.317 53.5477 138.352 54.1212 138.41 54.7126C138.54 55.8953 138.574 57.165 138.633 58.5C138.681 61.1719 138.578 64.1148 138.22 67.1823C137.836 70.2438 137.235 73.1254 136.551 75.7103C136.177 76.9939 135.84 78.2181 135.431 79.3356C135.233 79.8953 135.063 80.4451 134.862 80.9573C134.658 81.4696 134.462 81.962 134.276 82.4307C133.92 83.3761 133.515 84.1969 133.186 84.9306C133.018 85.2945 132.868 85.6367 132.716 85.9452C132.557 86.2478 132.413 86.5267 132.281 86.7798C132.023 87.2644 131.822 87.648 131.671 87.9289C131.606 88.0476 131.553 88.1445 131.507 88.2255C131.476 88.2888 131.454 88.3225 131.45 88.3205Z" fill="#1A2E35"/>
<path d="M111.758 30.1548C108.508 28.2938 105.11 26.5988 101.456 25.788C100.943 25.6752 100.415 25.5783 99.8951 25.6574C99.3769 25.7365 98.8627 26.0213 98.6333 26.494C98.3208 27.1427 98.6234 27.922 99.0209 28.5232C99.899 29.8503 101.216 30.8174 102.543 31.6955C106.174 34.1024 110.077 36.0644 113.971 38.0204C113.476 35.2515 112.505 32.8683 111.758 30.1548Z" fill="#FF735D"/>
<path d="M136.672 37.3163C137.734 40.9079 139.016 44.4817 141.096 47.5946C141.389 48.0317 141.703 48.4668 142.132 48.7675C142.562 49.0681 143.131 49.2184 143.622 49.0344C144.296 48.7813 144.617 48.01 144.745 47.3019C145.028 45.7356 144.745 44.1277 144.395 42.5751C143.436 38.3249 141.972 34.2092 140.513 30.1054C138.954 32.4451 138.009 34.8401 136.672 37.3163Z" fill="#FF735D"/>
<path d="M111.707 30.0817C111.707 30.0817 111.962 54.9558 125.921 55.4424C139.88 55.9289 140.465 30.2597 140.465 30.0817C140.465 30.0817 138.816 26.3714 126.087 26.5178C113.356 26.6621 111.707 30.0817 111.707 30.0817Z" fill="#FF735D"/>
<path d="M130.25 39.9605C130.056 42.6107 127.75 44.6042 125.1 44.4104C122.449 44.2166 120.456 41.9106 120.65 39.2604C120.844 36.6102 123.15 34.6166 125.8 34.8104C128.452 35.0023 130.444 37.3083 130.25 39.9605Z" fill="#1A2E35"/>
<path d="M128.946 39.8636C128.806 41.7959 127.125 43.2476 125.193 43.1052C123.26 42.9647 121.809 41.2837 121.951 39.3514C122.091 37.4191 123.773 35.9675 125.705 36.1099C127.637 36.2523 129.089 37.9333 128.946 39.8636Z" fill="white"/>
<path d="M127.257 40.5024C127.243 40.4945 127.233 40.2869 127.226 39.9249C127.218 39.563 127.21 39.0448 127.21 38.4139L127.249 38.4832C126.723 38.1766 126.112 37.8206 125.446 37.431L125.546 37.433C124.981 37.7514 124.366 38.0955 123.725 38.4555C123.676 38.5385 123.792 38.3447 123.78 38.3645V38.3665V38.3684V38.3724V38.3803V38.3981V38.4317L123.778 38.501L123.776 38.6374L123.772 38.9084C123.768 39.0883 123.766 39.2644 123.765 39.4404C123.759 39.7885 123.751 40.1267 123.745 40.453L123.695 40.366C124.354 40.7694 124.955 41.1353 125.477 41.4557L125.398 41.4537C125.954 41.1551 126.413 40.9158 126.737 40.7516C127.055 40.5835 127.243 40.4945 127.257 40.5024C127.271 40.5103 127.109 40.6152 126.802 40.8031C126.496 40.9909 126.041 41.2599 125.473 41.5882L125.434 41.61L125.392 41.5862C124.864 41.2777 124.255 40.9237 123.589 40.5341L123.539 40.5044V40.4451C123.543 40.1188 123.545 39.7806 123.549 39.4325C123.551 39.2584 123.553 39.0804 123.555 38.9005L123.559 38.6295L123.561 38.493L123.563 38.4238V38.3902V38.3724V38.3645V38.3605V38.3586V38.3566C123.551 38.3764 123.668 38.1825 123.618 38.2636C124.261 37.9076 124.876 37.5655 125.446 37.251L125.497 37.2233L125.546 37.253C126.205 37.6565 126.81 38.0243 127.328 38.3427L127.368 38.3665L127.366 38.412C127.346 39.0686 127.324 39.5966 127.305 39.9546C127.287 40.3185 127.271 40.5103 127.257 40.5024Z" fill="#FF735D"/>
<path d="M111.652 30.0599C111.652 30.058 111.678 30.0659 111.726 30.0817C111.777 30.0995 111.848 30.1232 111.937 30.1529C112.127 30.2201 112.398 30.3151 112.746 30.4377C112.922 30.501 113.116 30.5702 113.329 30.6453C113.545 30.7165 113.78 30.7838 114.034 30.8629C114.54 31.0132 115.111 31.209 115.758 31.3613C116.081 31.4444 116.419 31.5314 116.771 31.6204C117.123 31.7094 117.495 31.7746 117.878 31.8577C118.642 32.0337 119.468 32.1524 120.337 32.2928C122.079 32.5301 124.009 32.6923 126.04 32.7002C128.072 32.6923 130.004 32.5301 131.746 32.2928C132.615 32.1524 133.443 32.0337 134.207 31.8577C134.588 31.7746 134.962 31.7094 135.314 31.6204C135.666 31.5294 136.004 31.4444 136.327 31.3613C136.975 31.209 137.545 31.0132 138.051 30.8629C138.304 30.7838 138.54 30.7165 138.755 30.6453C138.969 30.5702 139.163 30.499 139.339 30.4377C139.687 30.3151 139.958 30.2201 140.148 30.1529C140.237 30.1232 140.308 30.0995 140.359 30.0817C140.407 30.0659 140.433 30.058 140.433 30.0599C140.433 30.0619 140.409 30.0718 140.363 30.0916C140.312 30.1113 140.243 30.139 140.156 30.1727C139.968 30.2439 139.697 30.3447 139.353 30.4753C139.177 30.5405 138.983 30.6137 138.771 30.6908C138.558 30.766 138.32 30.8352 138.069 30.9163C137.563 31.0725 136.993 31.2723 136.345 31.4285C136.022 31.5136 135.684 31.6026 135.332 31.6955C134.98 31.7865 134.606 31.8537 134.224 31.9388C133.461 32.1188 132.63 32.2394 131.76 32.3838C130.014 32.6251 128.078 32.7912 126.04 32.7991C124.005 32.7912 122.069 32.6251 120.323 32.3818C119.453 32.2394 118.624 32.1168 117.861 31.9368C117.479 31.8518 117.105 31.7845 116.753 31.6936C116.401 31.6006 116.063 31.5116 115.74 31.4266C115.092 31.2703 114.522 31.0706 114.016 30.9143C113.765 30.8332 113.527 30.762 113.314 30.6889C113.102 30.6097 112.908 30.5366 112.732 30.4713C112.388 30.3408 112.117 30.2399 111.929 30.1687C111.842 30.1351 111.773 30.1074 111.722 30.0876C111.676 30.0718 111.652 30.0619 111.652 30.0599Z" fill="#1A2E35"/>
<g opacity="0.3">
<path opacity="0.3" d="M111.707 30.0817C111.707 30.0817 113.356 26.6622 126.085 26.5178C138.816 26.3734 140.463 30.0817 140.463 30.0817C140.463 30.0817 127.624 36.4144 111.707 30.0817Z" fill="black"/>
</g>
<path d="M116.085 47.7825C116.083 47.7825 116.075 47.7707 116.062 47.7469C116.044 47.7173 116.024 47.6797 116 47.6342C115.943 47.5274 115.868 47.383 115.771 47.1991C115.721 47.1042 115.666 46.9974 115.607 46.8827C115.551 46.764 115.492 46.6355 115.429 46.499C115.3 46.2241 115.154 45.9096 115.013 45.5556C114.94 45.3776 114.865 45.1937 114.786 44.9999C114.713 44.8041 114.638 44.6003 114.561 44.3887C114.398 43.9694 114.26 43.5086 114.098 43.03C113.801 42.0629 113.508 40.991 113.253 39.8518C113.002 38.7126 112.81 37.6169 112.66 36.6181C112.519 35.6174 112.409 34.7136 112.349 33.9521C112.312 33.5724 112.29 33.2263 112.27 32.9237C112.249 32.6211 112.235 32.3601 112.229 32.1465C112.223 31.9388 112.217 31.7746 112.213 31.654C112.213 31.6026 112.211 31.561 112.211 31.5254C112.211 31.4958 112.213 31.4819 112.213 31.4819C112.215 31.4819 112.217 31.4958 112.221 31.5254C112.225 31.561 112.229 31.6026 112.233 31.652C112.241 31.7727 112.252 31.9368 112.268 32.1425C112.28 32.3561 112.3 32.6152 112.328 32.9178C112.351 33.2204 112.379 33.5645 112.421 33.9442C112.49 34.7037 112.608 35.6055 112.753 36.6043C112.909 37.6011 113.103 38.6928 113.352 39.83C113.607 40.9652 113.896 42.0372 114.187 43.0023C114.347 43.4809 114.481 43.9398 114.64 44.3591C114.715 44.5707 114.788 44.7744 114.859 44.9702C114.936 45.164 115.009 45.3499 115.081 45.5259C115.217 45.8819 115.358 46.1964 115.482 46.4733C115.543 46.6117 115.601 46.7403 115.652 46.8589C115.71 46.9756 115.761 47.0824 115.808 47.1774C115.897 47.3633 115.969 47.5116 116.022 47.6204C116.044 47.6678 116.062 47.7054 116.075 47.7371C116.081 47.7687 116.087 47.7825 116.085 47.7825Z" fill="white"/>
<path d="M122.813 53.7632C122.811 53.7691 122.733 53.7593 122.591 53.7355C122.449 53.7138 122.245 53.6663 121.998 53.5931C121.75 53.5219 121.462 53.4112 121.151 53.2688C120.843 53.1204 120.514 52.9365 120.192 52.711C119.87 52.4816 119.585 52.2364 119.342 51.9971C119.102 51.7538 118.901 51.5204 118.75 51.3108C118.598 51.1031 118.483 50.9271 118.414 50.8005C118.343 50.674 118.307 50.6047 118.313 50.6008C118.329 50.5909 118.487 50.8678 118.806 51.2673C118.962 51.469 119.166 51.6945 119.407 51.9318C119.65 52.1652 119.933 52.4045 120.249 52.63C120.568 52.8515 120.89 53.0354 121.193 53.1857C121.497 53.3321 121.778 53.4468 122.021 53.5259C122.502 53.69 122.814 53.7454 122.813 53.7632Z" fill="white"/>
<path d="M125.721 44.988C125.721 44.9919 125.676 44.9959 125.589 45.0018C125.502 45.0038 125.371 45.0236 125.205 45.0137C124.873 45.0137 124.386 44.9603 123.814 44.7882C123.528 44.7051 123.225 44.5786 122.909 44.4243C122.6 44.2582 122.274 44.0663 121.967 43.8152C121.346 43.3267 120.771 42.6404 120.399 41.8018C120.039 40.9573 119.932 40.0673 119.999 39.2802C120.027 38.8846 120.108 38.5168 120.199 38.1766C120.302 37.8404 120.417 37.5338 120.551 37.2668C120.816 36.7309 121.109 36.3412 121.336 36.096C121.443 35.9674 121.546 35.8864 121.605 35.8231C121.669 35.7637 121.704 35.7321 121.706 35.736C121.714 35.744 121.58 35.8705 121.364 36.1217C121.148 36.3709 120.868 36.7645 120.613 37.2965C120.484 37.5615 120.373 37.8661 120.276 38.1983C120.191 38.5346 120.114 38.8985 120.088 39.2861C120.027 40.0614 120.136 40.9336 120.488 41.7603C120.852 42.581 121.415 43.2574 122.023 43.742C122.323 43.9892 122.642 44.181 122.946 44.3491C123.255 44.5054 123.553 44.632 123.836 44.719C124.4 44.897 124.877 44.9603 125.207 44.9721C125.537 44.9899 125.721 44.9781 125.721 44.988Z" fill="white"/>
<path d="M125.119 4.21864C125.119 4.21864 112.95 4.07228 111.024 14.6137C109.097 25.1531 119.389 25.3509 122.348 25.5506C123.691 25.6416 126.563 25.6495 129.096 25.606C134.705 25.5091 138.67 24.4233 140.019 19.2179C140.178 18.6107 140.282 17.9877 140.322 17.3529C140.68 11.649 136.817 3.9378 125.119 4.21864Z" fill="#FF735D"/>
<path d="M133.949 20.272L116.267 20.5489C114.414 20.5786 112.889 19.0992 112.86 17.2461C112.83 15.3929 114.309 13.8681 116.163 13.8384L133.844 13.5615C135.697 13.5319 137.222 15.0112 137.251 16.8644C137.281 18.7175 135.802 20.2443 133.949 20.272Z" fill="#1A2E35"/>
<path d="M119.935 16.8802C119.821 17.4636 119.255 17.8453 118.672 17.7306C118.088 17.6159 117.706 17.0502 117.821 16.4668C117.936 15.8834 118.501 15.5017 119.085 15.6164C119.668 15.7291 120.048 16.2967 119.935 16.8802Z" fill="white"/>
<path d="M132.287 16.6824C132.172 17.2658 131.607 17.6475 131.023 17.5328C130.44 17.4181 130.058 16.8525 130.173 16.269C130.287 15.6856 130.853 15.3039 131.436 15.4186C132.02 15.5333 132.402 16.099 132.287 16.6824Z" fill="white"/>
<path d="M123.031 16.3818C123.11 16.3897 123.07 16.7674 123.305 17.2678C123.418 17.517 123.608 17.788 123.877 18.0194C124.144 18.2508 124.5 18.4288 124.89 18.4683C125.279 18.5 125.661 18.3892 125.966 18.2092C126.272 18.0312 126.507 17.7978 126.664 17.5744C126.986 17.1254 127.014 16.7477 127.095 16.7536C127.126 16.7536 127.158 16.8485 127.158 17.0265C127.16 17.2045 127.107 17.4636 126.962 17.7543C126.818 18.0431 126.567 18.3536 126.207 18.5949C125.849 18.8362 125.364 19.0023 124.844 18.9588C124.324 18.9054 123.877 18.6562 123.57 18.3536C123.26 18.049 123.068 17.699 122.979 17.3885C122.888 17.0779 122.884 16.8129 122.918 16.6369C122.949 16.4648 122.999 16.3778 123.031 16.3818Z" fill="white"/>
<path d="M123.579 5.00772C123.579 5.00969 123.565 5.01167 123.535 5.01563C123.5 5.01958 123.458 5.02354 123.407 5.02749C123.294 5.03936 123.126 5.04331 122.912 5.06903C122.483 5.10858 121.866 5.19165 121.116 5.36767C120.367 5.54171 119.491 5.82057 118.569 6.24776C117.647 6.67298 116.686 7.25642 115.778 8.00005C114.877 8.74962 114.121 9.58423 113.528 10.407C112.932 11.2317 112.491 12.0386 112.179 12.7407C111.866 13.4428 111.665 14.0342 111.546 14.4475C111.481 14.6532 111.445 14.8154 111.412 14.9242C111.398 14.9736 111.386 15.0151 111.376 15.0487C111.368 15.0764 111.362 15.0903 111.36 15.0903C111.358 15.0903 111.36 15.0745 111.366 15.0468C111.374 15.0132 111.382 14.9716 111.392 14.9202C111.419 14.8094 111.447 14.6453 111.508 14.4376C111.617 14.0203 111.807 13.423 112.114 12.713C112.418 12.003 112.857 11.1882 113.453 10.3556C114.046 9.52292 114.805 8.6804 115.713 7.9249C116.627 7.17731 117.598 6.58991 118.527 6.16668C119.459 5.74146 120.341 5.46458 121.097 5.30042C121.852 5.13429 122.475 5.05914 122.904 5.03343C123.12 5.01365 123.288 5.01563 123.401 5.01167C123.452 5.01167 123.496 5.00969 123.529 5.00969C123.565 5.00376 123.579 5.00574 123.579 5.00772Z" fill="white"/>
<path d="M111.672 19.6075C111.66 19.6114 111.587 19.471 111.5 19.2297C111.411 18.9884 111.314 18.6443 111.253 18.2567C111.192 17.867 111.18 17.5111 111.192 17.2539C111.202 16.9968 111.227 16.8386 111.241 16.8406C111.273 16.8426 111.229 17.4755 111.352 18.2408C111.467 19.0082 111.7 19.5976 111.672 19.6075Z" fill="white"/>
<path d="M131.028 12.9445C131.028 12.9722 128.698 12.9939 125.826 12.9939C122.953 12.9939 120.625 12.9722 120.625 12.9445C120.625 12.9168 122.953 12.895 125.826 12.895C128.698 12.895 131.028 12.9168 131.028 12.9445Z" fill="white"/>
<path d="M122.149 24.8031C122.149 24.807 122.119 24.811 122.062 24.8169C121.993 24.8228 121.91 24.8307 121.809 24.8387C121.698 24.8485 121.564 24.8565 121.407 24.8584C121.251 24.8624 121.071 24.8703 120.873 24.8644C120.478 24.8644 120.007 24.8367 119.485 24.7813C118.965 24.72 118.395 24.629 117.808 24.4926C117.221 24.3521 116.669 24.1801 116.176 24.0021C115.686 23.8181 115.253 23.6322 114.897 23.4582C114.717 23.3751 114.56 23.2881 114.422 23.2149C114.282 23.1417 114.165 23.0745 114.072 23.0172C113.985 22.9638 113.914 22.9202 113.854 22.8846C113.805 22.853 113.781 22.8352 113.781 22.8332C113.783 22.8312 113.811 22.8431 113.864 22.8688C113.926 22.9005 114.001 22.94 114.09 22.9855C114.187 23.0369 114.305 23.1002 114.448 23.1675C114.588 23.2347 114.746 23.3197 114.926 23.3969C115.282 23.563 115.717 23.743 116.206 23.919C116.696 24.0911 117.244 24.2592 117.83 24.3976C118.415 24.5341 118.979 24.627 119.495 24.6923C120.011 24.7516 120.48 24.7872 120.873 24.7971C121.071 24.807 121.249 24.8031 121.405 24.805C121.562 24.807 121.696 24.805 121.807 24.8011C121.908 24.7991 121.991 24.7991 122.06 24.7971C122.119 24.7991 122.149 24.8011 122.149 24.8031Z" fill="white"/>
<path d="M137.033 31.6006C137.033 31.6026 137.019 31.6085 136.987 31.6204C136.951 31.6342 136.906 31.65 136.851 31.6718C136.722 31.7173 136.546 31.7806 136.323 31.8597C136.093 31.9427 135.812 32.0377 135.48 32.1366C135.15 32.2355 134.776 32.36 134.353 32.4649C134.143 32.5202 133.922 32.5796 133.692 32.6389C133.463 32.6982 133.219 32.7477 132.97 32.805C132.472 32.9257 131.934 33.0206 131.368 33.1274C130.233 33.3193 128.977 33.4795 127.652 33.5645C126.325 33.6416 125.059 33.6357 123.908 33.5863C123.335 33.5487 122.787 33.521 122.279 33.4636C122.023 33.4359 121.778 33.4181 121.543 33.3865C121.307 33.3549 121.082 33.3232 120.866 33.2935C120.435 33.2401 120.048 33.163 119.707 33.1057C119.367 33.0503 119.075 32.989 118.837 32.9356C118.606 32.8842 118.424 32.8426 118.291 32.813C118.234 32.7991 118.187 32.7872 118.149 32.7793C118.117 32.7714 118.102 32.7655 118.102 32.7635C118.102 32.7615 118.119 32.7635 118.151 32.7694C118.189 32.7754 118.236 32.7833 118.295 32.7932C118.428 32.8189 118.612 32.8525 118.845 32.896C119.083 32.9435 119.375 32.9989 119.717 33.0503C120.058 33.1037 120.445 33.1749 120.876 33.2223C121.092 33.25 121.317 33.2777 121.553 33.3074C121.788 33.3371 122.033 33.3529 122.288 33.3786C122.797 33.434 123.341 33.4577 123.914 33.4933C125.061 33.5388 126.325 33.5427 127.646 33.4656C128.967 33.3806 130.221 33.2223 131.354 33.0364C131.918 32.9316 132.456 32.8406 132.954 32.724C133.204 32.6686 133.445 32.6211 133.676 32.5638C133.906 32.5044 134.125 32.449 134.337 32.3956C134.76 32.2948 135.134 32.1761 135.466 32.0832C135.798 31.9902 136.081 31.8992 136.313 31.8241C136.538 31.7529 136.716 31.6955 136.847 31.654C136.904 31.6362 136.95 31.6223 136.987 31.6125C137.017 31.6026 137.033 31.5986 137.033 31.6006Z" fill="white"/>
<path d="M21.4219 113.384L21.4555 119.974C21.4555 119.974 32.3964 113.776 29.1845 107.882L21.4219 113.384Z" fill="#FF735D"/>
<path d="M22.489 98.1618C22.489 98.1618 14.6156 95.2782 8.62891 100.638L14.7678 104.103L22.489 98.1618Z" fill="#FF735D"/>
<path d="M14.7656 104.103C15.0148 104.429 21.4208 113.386 21.4208 113.386L38.1545 101.526C41.0756 99.4552 41.5997 95.3276 39.2877 92.5924C37.1795 90.0985 33.483 89.7029 30.8942 91.6945L14.7656 104.103Z" fill="#F5F5F5"/>
<path d="M14.7659 104.103C14.762 104.103 14.8075 104.063 14.9004 103.988C15.0033 103.905 15.1417 103.794 15.3197 103.654C15.7034 103.353 16.2532 102.922 16.9533 102.372C18.3951 101.249 20.4638 99.6391 23.0151 97.6535C24.3026 96.6567 25.7108 95.565 27.2218 94.3921C27.9793 93.8067 28.7625 93.2015 29.5694 92.5766C29.9728 92.2641 30.3822 91.9476 30.7976 91.6273C31.2267 91.3167 31.6796 91.0142 32.1879 90.8124C32.4332 90.6918 32.7021 90.6245 32.9632 90.5336C33.2341 90.4782 33.5011 90.3951 33.782 90.3714C34.3358 90.2863 34.9073 90.2962 35.473 90.3714C36.6062 90.5217 37.7236 91.0023 38.6314 91.7716C39.0982 92.1434 39.4779 92.6181 39.826 93.1106C40.1563 93.6188 40.4173 94.1746 40.5973 94.764C40.9434 95.9447 40.9395 97.2441 40.5518 98.4465C40.176 99.5917 39.4838 100.63 38.5582 101.36C37.6287 102.072 36.6912 102.697 35.7795 103.355C33.9521 104.649 32.1859 105.897 30.4989 107.091C27.1249 109.472 24.0693 111.626 21.4725 113.46L21.3993 113.511L21.3479 113.438C19.3088 110.558 17.6554 108.225 16.5024 106.597C15.9447 105.802 15.5076 105.179 15.203 104.744C15.0626 104.54 14.9538 104.382 14.8707 104.263C14.7976 104.156 14.762 104.101 14.7659 104.103C14.7699 104.103 14.8154 104.16 14.8965 104.269C14.9835 104.388 15.1021 104.546 15.2544 104.75C15.5709 105.183 16.0238 105.8 16.6033 106.591C17.7662 108.195 19.4354 110.495 21.4942 113.333L21.3676 113.311C23.9565 111.468 27.0023 109.298 30.3664 106.903C32.0514 105.707 33.8156 104.455 35.6411 103.158C36.5449 102.503 37.5021 101.864 38.404 101.17C39.294 100.468 39.9545 99.471 40.3165 98.3734C40.6883 97.2164 40.6922 95.9684 40.3619 94.8352C40.1879 94.2695 39.9387 93.7355 39.6223 93.247C39.288 92.7743 38.9241 92.3175 38.4752 91.9595C37.603 91.2198 36.5311 90.7551 35.4413 90.6067C34.8974 90.5336 34.3456 90.5217 33.8136 90.6028C33.5446 90.6245 33.2856 90.7036 33.0265 90.757C32.7753 90.8441 32.5162 90.9073 32.2789 91.024C31.2979 91.4176 30.5286 92.1434 29.7118 92.7427C28.9088 93.3578 28.1276 93.9551 27.3721 94.5326C25.8611 95.6856 24.4529 96.7615 23.1654 97.7425C20.5904 99.7004 18.5019 101.289 17.0463 102.394C16.3264 102.938 15.7627 103.363 15.3672 103.662C15.1812 103.8 15.0349 103.909 14.9241 103.99C14.8233 104.065 14.7699 104.103 14.7659 104.103Z" fill="#1A2E35"/>
<path d="M22.7826 103.591L12.3242 111.11C12.3242 111.11 12.7751 112.259 13.0619 112.142C13.3012 112.046 21.1786 106.68 23.7339 104.94C24.1512 104.655 24.2145 104.067 23.8683 103.697C23.5835 103.393 23.1208 103.347 22.7826 103.591Z" fill="#FF735D"/>
<path d="M33.6334 98.8698C33.7579 100.796 32.2964 102.459 30.3701 102.584C28.4437 102.709 26.7804 101.247 26.6558 99.3208C26.5312 97.3944 27.9928 95.7311 29.9191 95.6065C31.8474 95.4819 33.5107 96.9435 33.6334 98.8698Z" fill="white"/>
<path d="M33.6332 98.8698C33.6055 98.8737 33.5996 98.5593 33.4255 98.0391C33.2515 97.5289 32.85 96.7912 32.0292 96.2552C31.6238 95.9941 31.1214 95.7825 30.5538 95.7232C29.9922 95.6678 29.3672 95.7271 28.7877 95.9941C28.2062 96.2473 27.6663 96.6903 27.2985 97.2757C26.9187 97.8552 26.7328 98.5791 26.7724 99.3108C26.8258 100.043 27.1046 100.737 27.5556 101.263C27.9946 101.797 28.588 102.167 29.1971 102.343C29.8062 102.533 30.4352 102.513 30.985 102.384C31.5388 102.252 32.0095 101.979 32.3793 101.668C33.1249 101.031 33.4275 100.248 33.5343 99.7202C33.6411 99.1823 33.6075 98.8698 33.6332 98.8698C33.6411 98.8698 33.651 98.9449 33.6609 99.0933C33.6727 99.2396 33.6688 99.4592 33.6253 99.738C33.5442 100.286 33.2574 101.113 32.4901 101.797C32.1103 102.131 31.6179 102.43 31.0344 102.578C30.4549 102.722 29.7884 102.752 29.1378 102.556C28.4871 102.374 27.8522 101.985 27.3795 101.415C26.897 100.855 26.5944 100.112 26.537 99.3286C26.4935 98.5454 26.6972 97.7702 27.1046 97.1531C27.5002 96.5281 28.0797 96.0614 28.7007 95.7964C29.3217 95.5175 29.9862 95.4621 30.5795 95.5313C31.1768 95.6025 31.7029 95.8359 32.1242 96.1187C32.9726 96.6982 33.3642 97.4814 33.5145 98.0134C33.5936 98.2824 33.6273 98.5 33.6332 98.6483C33.6411 98.7927 33.6431 98.8698 33.6332 98.8698Z" fill="#1A2E35"/>
<path d="M38.938 100.863C44.5588 95.6085 43.5561 89.521 43.5561 89.521C35.9971 87.5353 30.8945 91.6945 30.8945 91.6945C35.9259 92.4025 38.6176 95.4483 38.938 100.863Z" fill="#FF735D"/>
<path d="M98.64 78.493L100.58 96.4371L112.136 100.29L112.605 105.879L96.2944 104.787C96.2944 104.787 91.2689 104.91 90.1732 98.2863L89.9062 80.8782L98.64 78.493Z" fill="#FFBF9D"/>
<path d="M122.621 105.782C122.406 106.025 122.064 106.13 121.759 106.019C121.698 105.998 121.636 105.968 121.575 105.928C121.168 105.669 121.448 104.773 121.448 104.773L119.409 103.864C119.409 103.864 116.168 104.918 114.87 105.841C113.573 106.765 111.312 105.141 111.312 105.141L111.641 100.371L116.498 97.8611C116.498 97.8611 116.201 98.0094 116.646 97.4161C117.091 96.8248 118.258 97.4003 118.258 97.4003C118.537 97.1234 119.372 97.2184 119.372 97.2184L122.706 98.5237C123.393 98.7926 123.921 99.3583 124.144 100.062L124.991 102.748C124.991 102.748 125.321 104.609 125.095 104.961C124.755 105.493 124.174 105.203 124.174 105.203C124.174 105.203 123.717 106.247 123.42 106.209C123.124 106.174 122.621 105.782 122.621 105.782Z" fill="#FFBF9D"/>
<path d="M115.814 105.309C115.818 105.315 115.902 105.28 116.06 105.206C116.238 105.127 116.469 105.025 116.758 104.896C117.369 104.637 118.273 104.277 119.43 103.937L119.378 103.933C119.986 104.21 120.67 104.52 121.41 104.856L121.36 104.748C121.309 104.92 121.275 105.094 121.263 105.278C121.253 105.46 121.259 105.661 121.37 105.853C121.429 105.948 121.528 106.021 121.617 106.057C121.706 106.106 121.805 106.142 121.912 106.154C122.123 106.178 122.341 106.122 122.519 106C122.565 105.97 122.606 105.934 122.646 105.899L122.673 105.869L122.687 105.855L122.695 105.847C122.725 105.843 122.434 105.871 122.559 105.859L122.561 105.861L122.565 105.865L122.624 105.911C122.705 105.97 122.788 106.027 122.873 106.081C122.96 106.134 123.049 106.185 123.146 106.231C123.195 106.253 123.245 106.274 123.3 106.29C123.352 106.306 123.413 106.324 123.508 106.304C123.65 106.251 123.72 106.16 123.791 106.079C123.858 105.994 123.919 105.905 123.975 105.814C124.085 105.632 124.18 105.444 124.271 105.248L124.125 105.301C124.388 105.422 124.732 105.442 124.989 105.24C125.106 105.145 125.215 105.019 125.248 104.85C125.28 104.7 125.282 104.56 125.282 104.419C125.27 103.858 125.193 103.3 125.1 102.732L125.098 102.726L125.096 102.718C124.952 102.262 124.799 101.777 124.645 101.285C124.548 100.98 124.453 100.677 124.358 100.377C124.261 100.084 124.188 99.7657 124.018 99.4809C123.856 99.1981 123.636 98.9548 123.381 98.7649C123.13 98.5672 122.824 98.4544 122.553 98.3516C121.447 97.9224 120.393 97.513 119.408 97.1313L119.394 97.1254L119.382 97.1234C119.175 97.1036 118.975 97.1016 118.775 97.1234C118.577 97.1491 118.368 97.1788 118.19 97.339L118.318 97.333C117.994 97.0878 117.573 96.9751 117.197 97.1036C116.821 97.2302 116.584 97.5308 116.42 97.8295L116.457 97.7919C115.063 98.5078 113.928 99.0913 113.113 99.5086C112.737 99.7083 112.435 99.8665 112.207 99.9872C112.001 100.1 111.895 100.161 111.899 100.169C111.902 100.177 112.015 100.13 112.229 100.031C112.46 99.9199 112.769 99.7756 113.154 99.5916C113.975 99.1902 115.124 98.6304 116.532 97.9422L116.556 97.9303L116.572 97.9026C116.718 97.6396 116.946 97.3667 117.254 97.2737C117.557 97.1689 117.925 97.2717 118.196 97.4794L118.263 97.5308L118.326 97.4735C118.431 97.3785 118.617 97.335 118.795 97.3192C118.977 97.3014 119.173 97.3054 119.361 97.3251L119.335 97.3192C120.318 97.7068 121.37 98.1222 122.474 98.5573C122.756 98.666 123.019 98.7649 123.249 98.9449C123.48 99.117 123.678 99.3405 123.822 99.5956C123.973 99.8448 124.042 100.145 124.143 100.448C124.238 100.749 124.333 101.051 124.428 101.356C124.582 101.846 124.736 102.331 124.878 102.788L124.875 102.774C124.967 103.33 125.045 103.887 125.057 104.423C125.058 104.556 125.055 104.69 125.031 104.805C125.017 104.906 124.94 104.999 124.853 105.07C124.683 105.212 124.42 105.201 124.218 105.112L124.115 105.066L124.07 105.165C123.987 105.351 123.894 105.537 123.789 105.707C123.692 105.869 123.557 106.061 123.445 106.108C123.439 106.11 123.399 106.112 123.356 106.094C123.314 106.083 123.271 106.065 123.229 106.047C123.144 106.009 123.061 105.962 122.98 105.913C122.899 105.863 122.82 105.81 122.743 105.752L122.685 105.711L122.681 105.709L122.679 105.707C122.802 105.695 122.511 105.721 122.541 105.719L122.535 105.725L122.523 105.737L122.501 105.76C122.47 105.79 122.438 105.818 122.402 105.841C122.264 105.938 122.092 105.984 121.93 105.966C121.849 105.958 121.771 105.93 121.698 105.891C121.617 105.857 121.566 105.818 121.526 105.758C121.38 105.493 121.449 105.108 121.528 104.807L121.548 104.728L121.479 104.698C120.733 104.372 120.045 104.069 119.434 103.802L119.408 103.79L119.382 103.798C118.219 104.162 117.325 104.544 116.718 104.827C116.416 104.971 116.186 105.088 116.034 105.175C115.89 105.254 115.811 105.303 115.814 105.309Z" fill="#FF9A6C"/>
<path d="M118.524 98.7689C118.51 98.7907 118.876 99.0557 119.54 99.3899C120.203 99.7242 121.174 100.11 122.323 100.345L122.23 100.238C122.244 100.422 122.258 100.618 122.284 100.814C122.444 102.117 122.897 103.237 123.316 103.978C123.526 104.352 123.723 104.635 123.868 104.825C124.014 105.013 124.105 105.11 124.117 105.1C124.149 105.078 123.838 104.653 123.462 103.901C123.088 103.152 122.671 102.054 122.517 100.784C122.491 100.592 122.477 100.403 122.463 100.223L122.456 100.132L122.369 100.114C121.241 99.8903 120.278 99.5383 119.606 99.2455C118.933 98.9568 118.54 98.7412 118.524 98.7689Z" fill="#FF9A6C"/>
<path d="M121.255 101.637C121.197 101.633 121.17 102.641 121.595 103.79C122.01 104.943 122.681 105.697 122.722 105.655C122.78 105.614 122.216 104.823 121.815 103.709C121.405 102.6 121.326 101.631 121.255 101.637Z" fill="#FF9A6C"/>
<path d="M111 103.583C110.996 103.589 111.028 103.62 111.093 103.676C111.159 103.733 111.259 103.808 111.398 103.897C111.675 104.071 112.112 104.295 112.711 104.411C113.302 104.526 114.068 104.526 114.847 104.222C115.62 103.923 116.4 103.326 116.89 102.447L116.744 102.495C117.472 102.845 118.31 103.124 119.202 103.27C119.522 103.324 119.841 103.357 120.155 103.375C120.468 103.389 120.788 103.411 121.109 103.318C121.257 103.276 121.441 103.191 121.54 103.029C121.639 102.873 121.658 102.685 121.615 102.517C121.571 102.349 121.457 102.2 121.308 102.115C121.184 102.046 121.059 101.979 120.939 101.912C119.962 101.383 119.058 100.95 118.288 100.612C117.519 100.274 116.886 100.027 116.443 99.8685C116.002 99.7083 115.753 99.6351 115.747 99.649C115.741 99.6648 115.978 99.7677 116.409 99.9536C116.841 100.139 117.462 100.408 118.219 100.764C118.977 101.12 119.869 101.565 120.834 102.103C120.954 102.171 121.075 102.24 121.198 102.309C121.295 102.366 121.368 102.463 121.397 102.576C121.425 102.689 121.409 102.815 121.348 102.91C121.289 103.007 121.182 103.061 121.045 103.1C120.78 103.175 120.478 103.161 120.169 103.144C119.863 103.126 119.552 103.092 119.24 103.041C118.371 102.898 117.555 102.629 116.841 102.293L116.744 102.248L116.692 102.341C116.235 103.169 115.504 103.747 114.774 104.044C114.038 104.346 113.31 104.364 112.735 104.273C112.153 104.18 111.72 103.984 111.435 103.834C111.153 103.676 111.01 103.569 111 103.583Z" fill="#FF9A6C"/>
<path d="M124.939 170.64C124.954 170.64 124.97 170.48 124.925 170.193C124.877 169.911 124.761 169.495 124.472 169.056C124.399 168.949 124.323 168.833 124.203 168.728C124.088 168.623 123.888 168.542 123.696 168.613C123.602 168.645 123.507 168.732 123.473 168.839C123.437 168.947 123.455 169.054 123.483 169.141C123.546 169.321 123.639 169.45 123.718 169.598C123.894 169.893 124.039 170.187 124.262 170.52C124.375 170.69 124.63 170.83 124.863 170.791C125.093 170.761 125.277 170.65 125.445 170.534C125.767 170.298 126.052 170.031 126.297 169.748C126.42 169.606 126.531 169.46 126.633 169.311C126.73 169.165 126.843 169.015 126.887 168.809C126.93 168.611 126.855 168.35 126.63 168.261C126.402 168.178 126.216 168.293 126.09 168.384C125.832 168.597 125.678 168.817 125.52 169.028C125.221 169.452 125.055 169.841 124.962 170.112C124.871 170.385 124.85 170.543 124.865 170.547C124.911 170.567 125.065 169.936 125.672 169.141C125.823 168.953 126.01 168.724 126.22 168.564C126.327 168.487 126.459 168.439 126.541 168.479C126.626 168.508 126.673 168.637 126.645 168.759C126.62 168.886 126.523 169.022 126.424 169.165C126.325 169.305 126.216 169.442 126.099 169.576C125.864 169.843 125.593 170.096 125.289 170.316C125.142 170.421 124.982 170.508 124.834 170.526C124.685 170.543 124.567 170.484 124.47 170.357C124.284 170.087 124.104 169.752 123.932 169.473C123.849 169.327 123.75 169.187 123.706 169.066C123.661 168.937 123.687 168.856 123.776 168.821C123.979 168.736 124.179 168.967 124.318 169.163C124.893 169.978 124.885 170.656 124.939 170.64Z" fill="#1A2E35"/>
<path d="M113.338 171.036L107.579 183.519L98.2852 179.226L104.242 163.777L113.338 171.036Z" fill="#FFBF9D"/>
<path d="M108.668 182.685L105.303 189.101C105.303 189.101 113.916 198.006 113.108 199.998L92.8594 190.289L98.4228 177.418L108.668 182.685Z" fill="#FF735D"/>
<path d="M99.4647 185.222C99.0217 185.141 98.5391 185.452 98.4402 185.891C98.3413 186.33 98.6538 186.824 99.0949 186.911C99.5359 187 100.127 186.644 100.177 186.197C100.226 185.75 99.8286 185.191 99.3777 185.21" fill="#E1E1E1"/>
<g opacity="0.6">
<g opacity="0.6">
<g opacity="0.6">
<g opacity="0.6">
<g opacity="0.6">
<g opacity="0.6">
<g opacity="0.6">
<g opacity="0.6">
<g opacity="0.6">
<g opacity="0.6">
<g opacity="0.6">
<g opacity="0.6">
<path opacity="0.6" d="M92.8594 190.291L93.7019 188.677L112.801 198.59C112.801 198.59 113.515 199.415 113.108 200L92.8594 190.291Z" fill="white"/>
</g>
</g>
</g>
</g>
</g>
</g>
</g>
</g>
</g>
</g>
</g>
</g>
<path d="M105.68 189.156C105.628 189.253 105.114 189.061 104.475 189.146C103.835 189.213 103.378 189.522 103.307 189.439C103.226 189.376 103.655 188.855 104.43 188.766C105.203 188.671 105.745 189.077 105.68 189.156Z" fill="#1A2E35"/>
<path d="M107.381 191.053C107.357 191.159 106.849 191.122 106.313 191.379C105.769 191.62 105.469 192.032 105.372 191.98C105.271 191.951 105.48 191.339 106.153 191.033C106.823 190.72 107.425 190.958 107.381 191.053Z" fill="#1A2E35"/>
<path d="M107.37 194.174C107.271 194.152 107.37 193.592 107.882 193.171C108.393 192.748 108.962 192.758 108.964 192.86C108.982 192.969 108.541 193.115 108.126 193.466C107.702 193.808 107.473 194.211 107.37 194.174Z" fill="#1A2E35"/>
<path d="M106.647 186.686C106.562 186.757 106.174 186.403 105.597 186.172C105.025 185.93 104.499 185.909 104.489 185.8C104.465 185.701 105.066 185.539 105.743 185.82C106.419 186.092 106.732 186.63 106.647 186.686Z" fill="#1A2E35"/>
<path d="M110.565 181.02L125.746 143.027C125.746 143.027 125.404 136.544 124.211 134.497C123.017 132.45 86.8536 120.508 86.8536 120.508C86.8536 120.508 77.6413 118.291 71.5004 120.508C65.3595 122.725 60.7533 130.403 61.6057 134.667C62.4581 138.931 66.378 142.388 66.378 142.388L92.6524 142.855L107.147 148.143L97.3852 176.119L110.565 181.02Z" fill="#1A2E35"/>
<path d="M124.067 155.058L124.409 168.801L114.175 169.05L112.699 152.56L124.067 155.058Z" fill="#FFBF9D"/>
<path d="M125.02 167.573L124.834 174.815C124.834 174.815 136.495 179.004 136.648 181.148L114.194 181.376L113.504 167.371L125.02 167.573Z" fill="#FF735D"/>
<path d="M117.883 173.914C117.449 174.036 117.155 174.529 117.26 174.966C117.364 175.405 117.863 175.709 118.298 175.593C118.733 175.478 119.107 174.898 118.952 174.473C118.798 174.05 118.195 173.724 117.799 173.941" fill="#E1E1E1"/>
<g opacity="0.6">
<g opacity="0.6">
<g opacity="0.6">
<g opacity="0.6">
<g opacity="0.6">
<g opacity="0.6">
<g opacity="0.6">
<g opacity="0.6">
<g opacity="0.6">
<g opacity="0.6">
<g opacity="0.6">
<g opacity="0.6">
<path opacity="0.6" d="M114.191 181.376L114.235 179.556L135.747 180.019C135.747 180.019 136.752 180.444 136.645 181.148L114.191 181.376Z" fill="white"/>
</g>
</g>
</g>
</g>
</g>
</g>
</g>
</g>
</g>
</g>
</g>
</g>
<path d="M125.198 174.697C125.196 174.805 124.648 174.861 124.112 175.219C123.566 175.563 123.293 176.042 123.192 175.998C123.091 175.978 123.247 175.32 123.904 174.898C124.555 174.473 125.219 174.596 125.198 174.697Z" fill="#1A2E35"/>
<path d="M127.56 175.648C127.586 175.755 127.113 175.945 126.745 176.413C126.364 176.87 126.275 177.373 126.166 177.369C126.063 177.386 125.98 176.746 126.449 176.172C126.911 175.597 127.556 175.543 127.56 175.648Z" fill="#1A2E35"/>
<path d="M128.925 178.452C128.826 178.476 128.668 177.93 128.943 177.327C129.214 176.722 129.728 176.479 129.775 176.57C129.839 176.659 129.508 176.985 129.291 177.483C129.061 177.978 129.034 178.441 128.925 178.452Z" fill="#1A2E35"/>
<path d="M124.971 172.052C124.925 172.153 124.421 172.007 123.802 172.054C123.181 172.09 122.702 172.304 122.643 172.209C122.578 172.13 123.044 171.72 123.776 171.673C124.506 171.623 125.024 171.965 124.971 172.052Z" fill="#1A2E35"/>
<path d="M118.09 116.905C118.09 116.905 124.221 116.414 124.903 123.068C125.586 129.721 126.256 160.767 126.256 160.767L111.927 161.962L109.71 130.233L86.8516 120.51C86.8516 120.51 113.996 116.052 118.09 116.905Z" fill="#1A2E35"/>
<path d="M92.8177 107.928C92.8177 107.928 96.5398 118.362 95.8298 119.525C95.1217 120.688 85.5514 125.472 85.5514 125.472L61.6049 134.669C61.6049 134.669 59.1445 130.757 59.1445 124.747C59.1445 118.738 67.4728 107.928 67.4728 107.928H92.8177Z" fill="#1A2E35"/>
<path d="M85.7188 119.976C85.7168 119.98 85.7544 120 85.8316 120.038C85.9186 120.077 86.0313 120.131 86.1717 120.196C86.4882 120.336 86.9312 120.534 87.4988 120.785C88.6736 121.297 90.3626 122.033 92.4768 122.953C96.7487 124.792 102.733 127.369 109.661 130.35L109.584 130.241C109.802 133.376 110.037 136.76 110.279 140.262C110.86 148.448 111.398 155.997 111.823 161.968L111.831 162.077L111.938 162.067C116.297 161.685 119.873 161.371 122.376 161.151C123.609 161.036 124.576 160.945 125.25 160.882C125.569 160.848 125.818 160.823 126.002 160.805C126.172 160.785 126.259 160.773 126.257 160.767C126.257 160.761 126.168 160.763 125.998 160.773C125.814 160.785 125.563 160.801 125.244 160.821C124.568 160.87 123.599 160.941 122.365 161.032C119.859 161.23 116.279 161.513 111.918 161.857L112.033 161.956C111.623 155.983 111.105 148.434 110.544 140.246C110.296 136.744 110.059 133.36 109.837 130.225L109.832 130.146L109.76 130.116C102.818 127.169 96.818 124.622 92.5381 122.807C90.412 121.915 88.7131 121.203 87.5304 120.706C86.9569 120.471 86.5079 120.287 86.1875 120.154C86.0432 120.097 85.9285 120.053 85.8395 120.018C85.7604 119.988 85.7208 119.974 85.7188 119.976Z" fill="#375A64"/>
<path d="M66.6759 121.021C66.6818 121.038 66.9211 120.971 67.3483 120.837C67.823 120.682 68.4282 120.489 69.152 120.255C70.6729 119.773 72.7832 119.1 75.1861 118.73C77.5891 118.36 79.8101 118.475 81.3627 118.809C82.9231 119.132 83.819 119.577 83.8388 119.527C83.8447 119.514 83.6291 119.391 83.2158 119.213C82.8044 119.033 82.1874 118.813 81.4042 118.626C79.8398 118.238 77.5792 118.092 75.1466 118.465C72.7159 118.839 70.6017 119.545 69.0927 120.075C68.3372 120.342 67.732 120.574 67.3147 120.738C66.8954 120.904 66.67 121.005 66.6759 121.021Z" fill="#375A64"/>
<path d="M70.0586 115.52C70.0645 115.562 70.8596 115.408 72.153 115.509C72.7978 115.554 73.5652 115.653 74.4195 115.752C75.2719 115.853 76.2094 115.967 77.1785 116.151C79.1246 116.497 80.7978 117.176 81.8697 117.892C82.9515 118.596 83.4598 119.239 83.4974 119.203C83.5073 119.195 83.3985 119.023 83.1493 118.752C82.9001 118.483 82.5164 118.111 81.9765 117.736C80.9105 116.962 79.1978 116.238 77.2279 115.888C76.247 115.702 75.3016 115.594 74.4453 115.507C73.5889 115.422 72.8176 115.34 72.161 115.321C71.5063 115.297 70.9743 115.335 70.6124 115.39C70.2504 115.445 70.0566 115.505 70.0586 115.52Z" fill="#375A64"/>
<path d="M80.6359 31.6738C77.8808 31.205 75.4581 32.2671 73.1342 33.8196C70.8104 35.3722 69.0601 37.7178 68.0495 40.3225C66.9854 43.0676 66.7263 46.1549 67.5451 48.983C68.3639 51.8112 70.3001 54.3427 72.9246 55.6757C76.5083 57.4953 81.0927 56.8604 84.2986 54.4377C87.5046 52.0129 89.3379 48.004 89.4922 43.9872C89.599 41.2204 88.9365 38.3882 87.3899 36.0901C85.8433 33.7939 83.377 32.0772 80.6359 31.6738Z" fill="#1A2E35"/>
<path d="M72.7996 41.0444C73.2031 39.9902 73.0468 38.8135 73.2051 37.6961C73.5571 35.2357 75.5388 33.2639 77.831 32.3047C79.963 31.4127 82.5677 31.6066 85.1368 32.4372C86.897 33.0068 88.5563 33.9996 89.7291 35.4296C91.2876 37.3282 91.8354 40.01 91.1492 42.3695L78.5628 40.5361C77.384 41.5111 76.1776 42.502 74.7477 43.0459C74.3284 43.2061 73.8775 43.3247 73.4345 43.2555C72.9915 43.1843 72.5603 42.8837 72.4555 42.4486C72.3428 41.97 72.6256 41.5013 72.7996 41.0444Z" fill="#1A2E35"/>
<path d="M85.4067 35.9121L74.4184 38.24C73.3563 38.3112 72.5237 39.1833 72.5039 40.2493L72.6364 64.0318C72.6463 65.6555 73.1902 67.2318 74.185 68.5173L75.2332 69.8681C77.6223 72.9495 82.4639 72.639 84.2873 69.1937C84.4159 68.9524 84.5029 68.7428 84.5405 68.5707C84.5781 68.3571 84.6334 68.2147 84.6433 68.0348L84.853 65.7168C84.9598 63.5987 84.9756 61.4488 84.9756 61.4686C84.9756 61.4686 89.473 60.901 90.624 55.1062C91.1976 52.2246 91.2352 47.4662 91.1422 43.57C91.0572 40.0595 88.9054 35.6788 85.4067 35.9121Z" fill="#FFBF9D"/>
<path d="M89.2921 48.4234C89.2901 48.819 88.9539 49.1433 88.5425 49.1492C88.1311 49.1552 87.7969 48.8407 87.7969 48.4452C87.7989 48.0496 88.1351 47.7253 88.5465 47.7193C88.9598 47.7134 89.2941 48.0279 89.2921 48.4234Z" fill="#1A2E35"/>
<path d="M90.0125 45.9987C89.9156 46.0916 89.3658 45.6506 88.5608 45.6229C87.7578 45.5814 87.1507 45.973 87.0676 45.8721C87.0261 45.8266 87.1269 45.6546 87.392 45.4766C87.653 45.3005 88.0921 45.1364 88.5925 45.1562C89.0928 45.1779 89.5082 45.3796 89.7435 45.5774C89.9828 45.7772 90.06 45.9572 90.0125 45.9987Z" fill="#1A2E35"/>
<path d="M81.8565 48.0378C81.8545 48.4333 81.5183 48.7577 81.1069 48.7636C80.6956 48.7695 80.3613 48.4551 80.3633 48.0595C80.3653 47.664 80.7015 47.3396 81.1129 47.3317C81.5242 47.3277 81.8585 47.6422 81.8565 48.0378Z" fill="#1A2E35"/>
<path d="M82.3718 45.8029C82.2749 45.8958 81.7251 45.4548 80.9202 45.4271C80.1172 45.3856 79.5101 45.7772 79.427 45.6763C79.3855 45.6308 79.4863 45.4588 79.7513 45.2808C80.0124 45.1047 80.4495 44.9386 80.9518 44.9604C81.4522 44.9821 81.8675 45.1838 82.1029 45.3816C82.3422 45.5814 82.4193 45.7614 82.3718 45.8029Z" fill="#1A2E35"/>
<path d="M84.7867 51.922C84.7848 51.8766 85.2891 51.8093 86.102 51.7361C86.3076 51.7223 86.5034 51.6906 86.545 51.5502C86.5984 51.4039 86.5212 51.1784 86.4322 50.9351C86.2582 50.4308 86.0762 49.9008 85.8844 49.347C85.1269 47.0864 84.587 45.2313 84.678 45.2017C84.7689 45.172 85.4572 46.9796 86.2147 49.2402C86.3966 49.7979 86.5707 50.328 86.7348 50.8363C86.8041 51.0736 86.9267 51.3426 86.81 51.6471C86.7487 51.7994 86.5944 51.9042 86.4599 51.9339C86.3274 51.9695 86.2107 51.9675 86.1099 51.9695C85.2931 51.9833 84.7887 51.9675 84.7867 51.922Z" fill="#1A2E35"/>
<path d="M84.9732 61.4647C84.9732 61.4647 81.0414 61.5656 77.2461 59.0795C77.2461 59.0795 79.0518 63.1913 84.9079 62.8728L84.9732 61.4647Z" fill="#FF9A6C"/>
<path d="M84.3707 53.8484C84.0957 53.4548 83.5974 53.2254 83.0911 53.259C82.741 53.2827 82.381 53.437 82.1576 53.7139C81.9341 53.9888 81.8747 54.3922 82.0567 54.6711C82.2624 54.9856 82.7133 55.0726 83.1009 54.9796C83.4886 54.8847 83.8287 54.6454 84.1531 54.4061C84.2421 54.3388 84.3351 54.2696 84.3924 54.1767C84.4498 54.0837 84.4676 53.9591 84.4023 53.878" fill="#FF9A6C"/>
<path d="M82.3973 52.3868C82.5278 52.3848 82.4961 53.257 83.22 53.9057C83.9419 54.5564 84.8773 54.4951 84.8793 54.6177C84.8892 54.6731 84.6657 54.7799 84.2722 54.774C83.8865 54.772 83.3288 54.6256 82.8858 54.2301C82.4447 53.8326 82.2687 53.3183 82.2529 52.9584C82.2311 52.5925 82.3379 52.3789 82.3973 52.3868Z" fill="#1A2E35"/>
<path d="M82.3296 43.4137C82.2425 43.6293 81.4415 43.4948 80.4942 43.5719C79.5449 43.6293 78.7716 43.8765 78.6549 43.6748C78.6035 43.5779 78.7439 43.3781 79.0603 43.1784C79.3728 42.9786 79.8673 42.7967 80.4369 42.7551C81.0064 42.7156 81.5207 42.8243 81.8589 42.9786C82.201 43.1329 82.3691 43.3109 82.3296 43.4137Z" fill="#1A2E35"/>
<path d="M89.9192 42.4704C89.7708 42.6483 89.223 42.4367 88.5565 42.4011C87.892 42.3438 87.3204 42.4763 87.1978 42.2805C87.1444 42.1856 87.2413 42.0056 87.4945 41.8434C87.7436 41.6812 88.157 41.5547 88.6139 41.5863C89.0707 41.6179 89.4623 41.7999 89.6858 41.9957C89.9152 42.1935 89.9864 42.3853 89.9192 42.4704Z" fill="#1A2E35"/>
<path d="M70.7885 39.3475C71.9277 36.0011 76.9018 31.4424 80.4221 31.7588L85.9856 35.2476C85.6058 37.1601 84.0928 38.7996 82.216 39.3316C81.2152 39.6145 80.0147 39.6738 79.4056 40.5183C78.7846 41.3806 79.1109 42.6602 78.5314 43.5502C77.7265 44.7843 75.5964 44.6815 74.9853 46.0224C74.7183 46.6078 74.837 47.3158 74.5601 47.8973C74.1903 48.6706 72.1947 49.6219 71.3818 49.345C70.569 49.0701 70.5947 47.6777 70.3416 46.944C69.9104 45.6881 70.1102 45.0473 70.2743 44.3532C70.6619 42.7116 70.2446 40.9435 70.7885 39.3475Z" fill="#1A2E35"/>
<path d="M73.7751 50.0808C73.7909 49.6457 73.3281 48.6034 72.9029 48.5203C71.7657 48.2968 69.697 48.3087 69.5645 51.216C69.3845 55.1893 73.4112 54.5524 73.423 54.4377C73.4349 54.3487 73.7217 51.5799 73.7751 50.0808Z" fill="#FFBF9D"/>
<path d="M72.2813 52.8772C72.2635 52.8634 72.2101 52.9227 72.0914 52.9702C71.9747 53.0177 71.777 53.0454 71.5732 52.9564C71.1599 52.7823 70.8375 52.1 70.8514 51.384C70.8573 51.0221 70.9483 50.682 71.0907 50.4011C71.2252 50.1163 71.4229 49.9205 71.6365 49.8928C71.8482 49.8533 71.9925 49.9878 72.036 50.1005C72.0835 50.2152 72.0558 50.2923 72.0756 50.3002C72.0855 50.3101 72.1646 50.237 72.1389 50.0728C72.125 49.9937 72.0835 49.8968 71.9945 49.8157C71.9035 49.7346 71.7651 49.6871 71.6168 49.697C71.3102 49.7049 71.0215 49.9739 70.8652 50.2805C70.6932 50.587 70.5824 50.9707 70.5745 51.3781C70.5626 52.1791 70.9404 52.9484 71.506 53.1403C71.7829 53.2253 72.0202 53.1522 72.1448 53.0632C72.2694 52.9722 72.2931 52.8852 72.2813 52.8772Z" fill="#FF9A6C"/>
<path d="M69.9341 38.3151C69.948 37.0711 68.3934 36.2582 67.1831 35.9774C65.9727 35.6965 64.6911 36.0644 63.6014 36.6617C62.9625 37.0117 62.3218 37.5081 62.1774 38.2221C62.035 38.9361 62.7213 39.7845 63.4016 39.5294C62.0963 39.9764 61.4357 41.7188 62.1141 42.9193C62.7944 44.1198 64.6278 44.4481 65.682 43.5601C65.3418 44.6992 64.5981 45.7138 63.6152 46.3803C65.6602 46.6711 67.8298 45.7989 69.1035 44.1732C70.3791 42.5475 70.7074 40.2315 69.9341 38.3151Z" fill="#1A2E35"/>
<path d="M67.1732 44.636C67.1455 44.6399 67.0387 44.189 67.0249 43.4434C67.0091 42.6997 67.1198 41.6594 67.4818 40.5756C67.8496 39.4918 68.3895 38.5979 68.8523 38.0145C69.3151 37.429 69.6731 37.1344 69.6929 37.1541C69.7661 37.2056 68.433 38.5267 67.7309 40.6587C67.0012 42.7808 67.2642 44.6399 67.1732 44.636Z" fill="#FF735D"/>
<path d="M84.8281 34.0451C85.194 35.6629 87.6524 37.7376 88.7322 38.9974C90.791 41.4004 91.1985 42.1994 91.1787 47.5729C92.1517 45.7178 92.8954 43.8983 92.8202 41.8058C92.7451 39.7114 91.9737 37.615 90.5181 36.1079C89.0625 34.5989 86.9008 33.7445 84.8281 34.0451Z" fill="#1A2E35"/>
<path d="M101.684 78.2616C101.684 78.2616 97.4001 71.12 96.2115 69.6762C95.096 68.3215 93.6602 67.5225 92.703 67.1032C92.169 66.8698 91.6093 66.7096 91.0357 66.6107L84.875 65.2461C84.875 65.2461 84.8632 69.4508 80.4587 69.7098C76.0543 69.9709 72.344 63.834 72.344 63.834C72.344 63.834 65.2281 64.9356 63.5232 65.8097C61.8204 66.6859 59.1445 67.7974 57.6711 75.1724L56.6367 82.3852L68.9087 83.5205L70.0834 101.755L76.169 105.994C76.169 105.994 93.0412 110.38 94.119 110.669C95.1969 110.96 95.5549 83.5205 95.5549 83.5205C95.5549 83.5205 99.8901 80.718 101.684 78.2616Z" fill="#FF735D"/>
<path d="M93.6082 75.1961C93.624 75.1902 93.7071 75.3781 93.8455 75.7222C93.9859 76.0663 94.1639 76.5726 94.3637 77.2055C94.7632 78.4713 95.2023 80.2592 95.4495 82.2725C95.6947 84.2878 95.7007 86.1291 95.6176 87.4542C95.578 88.1168 95.5266 88.6508 95.4732 89.0186C95.4238 89.3865 95.3862 89.5882 95.3704 89.5862C95.3526 89.5843 95.3565 89.3786 95.3783 89.0107C95.402 88.6428 95.4277 88.1069 95.4455 87.4483C95.4831 86.1291 95.4495 84.3037 95.2082 82.3042C94.961 80.3066 94.5536 78.5267 94.1995 77.255C94.0235 76.6201 93.8693 76.1059 93.7585 75.7538C93.6458 75.3998 93.5924 75.2021 93.6082 75.1961Z" fill="#1A2E35"/>
<path d="M93.0852 105.064L69.9791 100.035L68.9111 83.5205L58.6367 82.5711C58.6367 82.5711 59.0164 93.8601 59.412 97.2164C59.9796 102.044 62.8335 108.63 64.5027 109.947C66.1719 111.262 94.1215 110.669 94.1215 110.669L93.0852 105.064Z" fill="#FFBF9D"/>
<path d="M106.201 108.058C106.039 108.381 105.701 108.59 105.341 108.559C105.27 108.553 105.195 108.539 105.117 108.513C104.607 108.349 104.655 107.309 104.655 107.309L102.206 106.909C102.206 106.909 99.022 108.962 97.8888 110.323C96.7555 111.684 93.866 110.582 93.866 110.582L92.8633 105.363L97.3706 101.287C97.3706 101.287 97.0937 101.53 97.4042 100.766C97.7147 100.003 99.1308 100.292 99.1308 100.292C99.3503 99.914 100.276 99.7795 100.276 99.7795L104.229 100.234C105.044 100.327 105.772 100.786 106.211 101.478L107.882 104.125C107.882 104.125 108.764 106.029 108.624 106.472C108.41 107.141 107.702 106.992 107.702 106.992C107.702 106.992 107.509 108.244 107.178 108.288C106.85 108.337 106.201 108.058 106.201 108.058Z" fill="#FFBF9D"/>
<path d="M97.7852 104.311C97.7892 104.352 98.3152 104.303 99.1597 104.34C100.002 104.382 101.167 104.53 102.385 104.943C102.995 105.149 103.556 105.396 104.049 105.655C104.527 105.924 105.026 106.146 105.178 106.494C105.255 106.664 105.22 106.838 105.135 106.965C105.051 107.091 104.937 107.176 104.836 107.216C104.628 107.301 104.494 107.244 104.49 107.267C104.48 107.273 104.612 107.376 104.868 107.309C104.99 107.275 105.135 107.192 105.249 107.046C105.366 106.905 105.435 106.656 105.342 106.427C105.257 106.195 105.059 106.017 104.85 105.871C104.634 105.731 104.409 105.586 104.158 105.45C103.659 105.173 103.088 104.914 102.465 104.704C101.219 104.279 100.018 104.156 99.1617 104.16C98.3014 104.17 97.7793 104.283 97.7852 104.311Z" fill="#FF9A6C"/>
<path d="M97.5078 106.83C97.5118 106.905 99.1217 106.838 101.097 106.953C103.075 107.062 104.665 107.311 104.679 107.236C104.685 107.204 104.293 107.099 103.651 106.986C103.008 106.874 102.11 106.759 101.113 106.702C100.116 106.646 99.2126 106.658 98.56 106.698C97.9053 106.737 97.5058 106.797 97.5078 106.83Z" fill="#FF9A6C"/>
<path d="M106.174 107.958C106.188 107.956 106.206 107.809 106.224 107.536C106.24 107.263 106.257 106.87 106.226 106.379C106.21 106.134 106.182 105.865 106.115 105.578C106.052 105.29 105.915 104.985 105.727 104.716C105.371 104.176 104.875 103.618 104.246 103.199C103.619 102.786 102.99 102.436 102.355 102.244C101.724 102.054 101.135 102.006 100.649 101.985C100.16 101.967 99.7665 101.979 99.4936 101.989C99.2226 102.001 99.0723 102.014 99.0703 102.032C99.0683 102.072 99.6735 102.093 100.637 102.163C101.115 102.206 101.689 102.271 102.286 102.467C102.879 102.657 103.497 103.009 104.104 103.409C104.711 103.816 105.174 104.326 105.538 104.85C105.919 105.349 105.99 105.92 106.05 106.397C106.145 107.352 106.121 107.959 106.174 107.958Z" fill="#FF9A6C"/>
<path d="M100.465 100.786C100.465 100.824 101.056 100.84 102.002 100.948C102.911 101.087 104.367 101.154 105.196 102.408C106.094 103.549 106.857 104.625 107.191 105.509C107.545 106.387 107.514 106.994 107.565 106.988C107.579 106.988 107.603 106.84 107.589 106.569C107.577 106.298 107.519 105.905 107.359 105.446C107.055 104.514 106.297 103.397 105.393 102.25C105.164 101.961 104.913 101.688 104.624 101.472C104.335 101.253 104.001 101.124 103.695 101.035C103.072 100.859 102.498 100.808 102.019 100.768C101.058 100.707 100.465 100.755 100.465 100.786Z" fill="#FF9A6C"/>
<path d="M98.7525 109.482C98.7584 109.488 98.8375 109.427 98.9879 109.302C99.1579 109.166 99.3775 108.99 99.6504 108.77C100.234 108.319 101.102 107.677 102.249 106.981L102.194 106.99C102.924 107.115 103.748 107.255 104.64 107.408L104.557 107.305C104.551 107.505 104.563 107.7 104.603 107.902C104.644 108.102 104.708 108.316 104.88 108.492C104.969 108.577 105.099 108.626 105.204 108.64C105.313 108.668 105.431 108.679 105.548 108.66C105.781 108.626 106.001 108.503 106.157 108.323C106.197 108.28 106.232 108.23 106.264 108.179L106.286 108.139L106.298 108.12L106.304 108.11V108.108C106.335 108.096 106.031 108.207 106.159 108.161L106.161 108.163L106.167 108.165L106.244 108.197C106.347 108.238 106.452 108.276 106.561 108.31C106.669 108.343 106.778 108.373 106.895 108.393C106.954 108.403 107.014 108.41 107.077 108.412C107.136 108.414 107.207 108.416 107.304 108.369C107.443 108.27 107.492 108.155 107.544 108.045C107.593 107.934 107.633 107.821 107.664 107.708C107.731 107.481 107.781 107.253 107.82 107.016L107.678 107.115C107.997 107.17 108.37 107.095 108.59 106.805C108.689 106.67 108.77 106.502 108.758 106.312C108.75 106.14 108.712 105.99 108.671 105.839C108.499 105.238 108.258 104.663 107.997 104.079L107.993 104.073L107.989 104.065C107.704 103.614 107.403 103.138 107.097 102.653C106.907 102.353 106.719 102.054 106.531 101.759C106.343 101.472 106.175 101.15 105.91 100.893C105.657 100.636 105.35 100.436 105.022 100.304C104.696 100.163 104.334 100.128 104.013 100.094C102.704 99.9476 101.454 99.8072 100.287 99.6747L100.271 99.6727L100.258 99.6747C100.028 99.7143 99.8146 99.7677 99.6049 99.8468C99.3992 99.9298 99.1836 100.023 99.0373 100.244L99.1738 100.201C98.7545 100.029 98.2699 100.027 97.904 100.272C97.5362 100.513 97.3661 100.905 97.2751 101.273L97.3048 101.221C96.0113 102.386 94.9552 103.336 94.1997 104.014C93.8516 104.334 93.5728 104.591 93.3631 104.785C93.1733 104.963 93.0764 105.06 93.0823 105.068C93.0882 105.076 93.197 104.991 93.3987 104.827C93.6163 104.643 93.907 104.4 94.2689 104.093C95.0383 103.428 96.1122 102.501 97.4294 101.362L97.4511 101.344L97.459 101.31C97.5421 100.986 97.7082 100.63 98.0128 100.442C98.3075 100.242 98.7327 100.248 99.0828 100.397L99.1698 100.432L99.2212 100.353C99.3063 100.221 99.4942 100.122 99.682 100.052C99.8719 99.9813 100.084 99.9318 100.291 99.8982H100.262C101.428 100.037 102.676 100.183 103.986 100.337C104.32 100.375 104.63 100.404 104.929 100.533C105.226 100.654 105.501 100.836 105.73 101.069C105.963 101.294 106.122 101.597 106.315 101.894C106.501 102.19 106.691 102.489 106.881 102.788C107.188 103.27 107.488 103.749 107.773 104.2L107.765 104.186C108.022 104.758 108.265 105.335 108.43 105.907C108.469 106.049 108.503 106.193 108.509 106.324C108.523 106.437 108.465 106.557 108.392 106.66C108.25 106.86 107.963 106.923 107.722 106.886L107.599 106.866L107.579 106.984C107.542 107.208 107.494 107.433 107.433 107.647C107.374 107.849 107.285 108.094 107.178 108.175C107.172 108.177 107.13 108.191 107.079 108.187C107.031 108.187 106.98 108.179 106.929 108.171C106.826 108.153 106.723 108.128 106.622 108.096C106.521 108.064 106.42 108.031 106.321 107.991L106.248 107.961L106.244 107.96H106.242C106.371 107.912 106.066 108.023 106.096 108.013L106.092 108.021L106.084 108.037L106.066 108.068C106.041 108.108 106.015 108.147 105.983 108.183C105.861 108.327 105.69 108.424 105.51 108.45C105.421 108.466 105.33 108.458 105.241 108.434C105.145 108.42 105.079 108.393 105.018 108.341C104.785 108.098 104.751 107.665 104.751 107.319V107.228L104.668 107.214C103.774 107.073 102.949 106.945 102.218 106.83L102.186 106.824L102.16 106.84C101.013 107.562 100.161 108.227 99.5911 108.701C99.3082 108.94 99.0946 109.134 98.9542 109.269C98.8178 109.403 98.7466 109.476 98.7525 109.482Z" fill="#FF9A6C"/>
<path d="M131.502 92.8752L101.069 93.1224C100.082 93.1224 99.1385 93.5971 98.9902 94.5721L95.6636 116.753H79.9879C79.4836 116.753 79.0742 117.162 79.0742 117.666C79.0742 118.171 79.4836 118.58 79.9879 118.58H95.3887H98.3118H130.053L133.474 95.1694C133.66 93.965 132.725 92.8752 131.502 92.8752Z" fill="#E1E1E1"/>
<path d="M131.503 92.8752C131.503 92.8752 131.669 92.8534 131.982 92.9207C132.286 92.9919 132.767 93.1798 133.145 93.692C133.333 93.9432 133.477 94.2774 133.52 94.6631C133.57 95.0547 133.457 95.468 133.408 95.915C133.281 96.8109 133.133 97.8433 132.969 99.0042C132.298 103.654 131.333 110.357 130.146 118.596L130.135 118.677H130.053C117.099 118.685 100.073 118.695 81.4819 118.707C81.0448 118.707 80.6097 118.707 80.1746 118.707C79.9729 118.714 79.692 118.703 79.4824 118.576C79.2668 118.457 79.0987 118.258 79.0137 118.026C78.8317 117.561 79.0493 116.994 79.4864 116.762C79.694 116.636 79.9729 116.626 80.1726 116.634H80.8174C82.5321 116.634 84.229 116.634 85.9042 116.634C89.2545 116.636 92.5178 116.636 95.6624 116.638L95.5457 116.739C96.7422 108.794 97.8597 101.385 98.8624 94.7363C98.898 94.315 99.0878 93.8601 99.426 93.5773C99.7563 93.2846 100.176 93.1284 100.589 93.0631C101.012 92.9978 101.416 93.0334 101.817 93.0196C102.219 93.0176 102.616 93.0137 103.012 93.0117C104.592 93.0018 106.121 92.9899 107.594 92.98C110.539 92.9622 113.262 92.9444 115.737 92.9286C120.677 92.9029 124.617 92.8831 127.328 92.8693C128.675 92.8673 129.717 92.8653 130.429 92.8633C130.777 92.8653 131.042 92.8653 131.23 92.8673C131.412 92.8693 131.503 92.8752 131.503 92.8752C131.503 92.8752 131.412 92.8831 131.232 92.8871C131.046 92.891 130.779 92.897 130.431 92.9029C129.719 92.9128 128.677 92.9286 127.33 92.9484C124.619 92.9781 120.679 93.0216 115.739 93.0769C113.264 93.1007 110.541 93.1284 107.596 93.158C106.123 93.1719 104.594 93.1857 103.014 93.2015C102.618 93.2055 102.221 93.2094 101.819 93.2134C101.42 93.2272 101.006 93.1956 100.623 93.2569C100.235 93.3182 99.8532 93.4646 99.5605 93.7256C99.2619 93.9867 99.1037 94.3486 99.0661 94.764C98.0733 101.413 96.9677 108.826 95.783 116.77L95.7672 116.871H95.6644C92.5197 116.873 89.2564 116.873 85.9061 116.875C84.231 116.875 82.5341 116.875 80.8194 116.875H80.1746C79.9472 116.869 79.7791 116.877 79.607 116.974C79.2728 117.15 79.1066 117.585 79.2471 117.939C79.3103 118.115 79.4389 118.268 79.605 118.359C79.7771 118.455 79.9472 118.465 80.1766 118.459C80.6117 118.459 81.0468 118.459 81.4839 118.459C100.075 118.471 117.099 118.481 130.055 118.489L129.962 118.57C131.183 110.335 132.178 103.638 132.866 98.9904C133.04 97.8314 133.194 96.801 133.329 95.9051C133.382 95.4562 133.497 95.0448 133.453 94.673C133.414 94.2992 133.281 93.9729 133.099 93.7276C132.739 93.2233 132.273 93.0295 131.974 92.9523C131.669 92.8732 131.503 92.8891 131.503 92.8752Z" fill="#1A2E35"/>
<path d="M113.09 105.448C113.09 106.5 113.942 107.352 114.994 107.352C116.047 107.352 116.899 106.5 116.899 105.448C116.899 104.396 116.047 103.543 114.994 103.543C113.944 103.541 113.09 104.396 113.09 105.448Z" fill="white"/>
<path d="M96.8998 118.378C96.9433 118.386 97.9124 112.738 99.0635 105.764C100.215 98.7887 101.114 93.1303 101.071 93.1244C101.027 93.1165 100.06 98.7649 98.9072 105.738C97.7562 112.71 96.8583 118.37 96.8998 118.378Z" fill="#1A2E35"/>
</svg>
