<svg width="172" height="200" viewBox="0 0 172 200" fill="none" xmlns="http://www.w3.org/2000/svg">
<path d="M117.362 30.0549L109.338 45.278L105.222 43.7825L106.559 47.8438L98.5156 72.0756C98.5156 72.0736 94.0668 41.2858 117.362 30.0549Z" fill="#233862"/>
<path d="M103.977 43.5144C103.977 43.5144 95.1046 76.2207 94.25 107.434C94.25 107.434 101.608 109.999 113.168 107.968C124.788 105.926 103.977 43.5144 103.977 43.5144Z" fill="#233862"/>
<path d="M61.4932 88.8676C63.8747 88.8236 67.226 89.1169 68.334 87.9062C69.5886 86.5322 71.0716 86.7333 71.0716 86.7333L70.772 85.1624L70.4139 83.2877C70.4139 83.2877 70.2777 83.116 69.7897 83.1223C69.7897 83.1223 68.0638 83.1956 67.2406 82.9023C65.2361 82.186 57.258 86.9658 57.5261 88.2916C57.6267 88.7901 60.4794 88.8865 61.4932 88.8676Z" fill="#E2915A"/>
<path d="M104.978 42.8714C104.978 42.8714 91.5012 70.7079 87.3289 73.6968C83.1586 76.6857 68.2916 83.1453 68.2916 83.1453C68.2916 83.1453 67.902 84.0711 68.2622 85.4263C68.6372 86.838 69.3807 87.236 69.3807 87.236C69.3807 87.236 90.167 85.3802 95.0012 82.3724C99.8333 79.3647 110.49 67.3734 110.49 67.3734L104.978 42.8714Z" fill="#233862"/>
<path d="M144.426 198.949H152.402C153.405 198.404 154.302 197.156 154.585 195.294C154.974 192.724 157.854 191.322 158.478 189.221C159.1 187.121 155.908 184.163 155.908 184.163L155.374 183.474L154.819 182.76L149.524 184.006C149.524 184.006 149.392 185.267 149.313 186.873C149.254 188.032 149.225 189.37 149.29 190.545C149.445 193.348 148.506 196.366 146.016 196.911C144.175 197.315 144.256 198.406 144.426 198.949Z" fill="#233862"/>
<path d="M98.1328 198.949H116.374C117.252 197.878 116.927 193.928 116.795 192.638C116.768 192.378 116.749 192.227 116.749 192.227C116.749 192.227 110.52 187.244 109.665 191.06C109.64 191.18 109.607 191.297 109.573 191.412C108.495 194.981 103.66 196.603 100.868 197.055C99.0523 197.348 98.38 198.291 98.1328 198.949Z" fill="#233862"/>
<path d="M101.609 97.1285C101.609 97.1285 102.556 108.929 103.666 123.116C105.176 142.385 106.994 166.054 107.175 170.538C107.485 178.324 108.733 190.78 108.733 190.78C108.733 190.78 111.69 193.739 117.608 192.491C117.608 192.491 122.882 174.713 124.388 155.899C124.411 155.591 124.434 155.281 124.457 154.969C125.858 135.819 128.036 95.4926 128.036 95.4926L101.609 97.1285Z" fill="#F99746"/>
<path d="M101.609 97.1285C101.609 97.1285 102.556 108.929 103.666 123.116L124.385 155.899C124.409 155.591 124.432 155.281 124.455 154.969C125.856 135.819 128.034 95.4926 128.034 95.4926L101.609 97.1285Z" fill="#ED7D2B"/>
<path d="M105.926 98.5297C105.926 98.5297 122.975 141.267 134.183 161.351C145.393 181.436 148.895 187.041 148.895 187.041C148.895 187.041 155.317 184.473 155.902 182.72C155.902 182.72 151.614 143.946 144.107 134.493C139.866 129.152 134.883 113.125 134.648 107.52C134.416 101.915 133.13 90.8218 133.13 90.8218L105.926 98.5297Z" fill="#F99746"/>
<path d="M110.172 36.2275C116.835 38.3304 128.361 32.6563 128.361 32.6563C128.361 32.6563 122.218 28.0462 122.54 18.4615L117.39 22.6129L113.89 25.4322C113.89 25.4322 113.904 27.0953 114.286 30.0067C114.355 30.5387 114.436 31.1105 114.535 31.7242C114.612 32.2122 114.397 32.7066 113.976 32.9663C111.546 34.4681 110.172 36.2275 110.172 36.2275Z" fill="#FFB27D"/>
<path d="M100.873 98.1108C101.074 98.2763 101.306 98.3768 101.572 98.3768C104.073 98.3433 111.371 99.732 117.543 99.0994C122.748 98.5988 127.354 97.0573 132.299 94.8412C132.957 94.548 134.467 93.7395 134.434 93.0064C134.411 92.2021 134.331 91.0375 134.23 89.5672C133.881 84.4628 133.271 75.6803 133.866 65.549C133.973 63.6618 134.029 61.7914 134.036 59.9482C134.086 46.2184 131.363 34.1413 125.892 30.0527C125.892 30.0527 122.078 32.1934 119.437 33.0375C116.85 33.8648 115.516 33.6972 114.175 32.8071C114.175 32.8071 111.563 34.1057 110.445 35.3226C107.86 38.1398 105.841 41.8827 104.507 47.2531C103.372 51.8234 102.31 58.4862 101.941 67.0277C101.78 70.8985 100.707 97.9768 100.873 98.1108Z" fill="white"/>
<path d="M133.227 52.7409L125.894 30.0549C125.894 30.0549 108.287 36.6946 107.472 61.5547C107.152 67.2205 105.792 90.4364 108.251 109.677C108.251 109.677 121.968 115.022 138.786 104.474L133.227 52.7409Z" fill="#2B478B"/>
<path d="M113.891 25.4301C113.891 25.4301 113.905 27.0931 114.286 30.0046C118.164 29.3385 122.562 23.0737 122.562 23.0737C120.589 22.504 118.859 22.4014 117.389 22.6108L113.891 25.4301Z" fill="#ED975D"/>
<path d="M111.005 25.2542C111.005 25.2542 123.004 27.2482 124.131 19.756C125.258 12.2638 127.564 7.47567 119.951 5.88591C112.337 4.29615 110.414 6.93109 109.432 9.33982C108.447 11.7485 107.913 24.542 111.005 25.2542Z" fill="#FFB27D"/>
<path d="M163.659 122.171L139.159 125.662C135.971 126.117 132.99 123.88 132.536 120.692L131.024 110.075C130.569 106.887 132.806 103.906 135.994 103.452L160.494 99.9603C163.682 99.5058 166.662 101.743 167.117 104.931L168.629 115.548C169.083 118.736 166.847 121.716 163.659 122.171Z" fill="#233862"/>
<path d="M134.25 109.606L135.781 120.344C136.078 122.424 137.444 124.1 139.241 124.894C139.836 125.158 140.481 125.325 141.149 125.376C141.151 125.376 141.151 125.376 141.151 125.376H141.154C141.57 125.409 141.998 125.396 142.429 125.336L166.885 121.85C170.085 121.394 172.331 118.403 171.874 115.202L170.345 104.461C169.889 101.261 166.898 99.0157 163.697 99.4723L155.277 100.672L154.95 98.381C154.799 97.3212 153.815 96.5839 152.757 96.7347L151.834 96.8667L146.71 97.5977L145.437 97.7799C144.926 97.8511 144.471 98.1213 144.159 98.536C143.847 98.9507 143.717 99.4618 143.791 99.9729L144.117 102.264L139.239 102.958C139.046 102.985 138.858 103.023 138.674 103.067C138.671 103.069 138.671 103.069 138.669 103.069H138.667C136.782 103.529 135.297 104.891 134.608 106.615V106.617C134.242 107.536 134.101 108.558 134.25 109.606ZM154.073 100.844L145.322 102.093L144.995 99.8011C144.938 99.4074 145.215 99.0387 145.611 98.9822L147.808 98.668L151.84 98.092L152.927 97.937C153.002 97.9265 153.074 97.9286 153.145 97.9391C153.449 97.9873 153.7 98.2302 153.746 98.5507L154.073 100.844Z" fill="#2B478B"/>
<path d="M145.027 90.5558C145.027 90.5558 146.313 92.2691 146.366 92.954C146.711 97.5956 144.592 98.2386 150.081 100.817C150.081 100.817 152.425 101.711 152.465 99.8912C152.505 98.071 150.838 98.0417 151.143 95.4926C151.495 92.554 151.46 92.5268 149.531 90.9915L148.253 88.8802L145.027 90.5558Z" fill="#FFB27D"/>
<path d="M148.299 91.8691C146.23 92.2713 143.989 92.11 143.989 92.11C143.989 92.11 137.847 73.1397 137.058 71.4054C136.268 69.6732 118.816 49.1613 118.816 49.1613L125.896 30.0549C125.896 30.0549 130.047 32.4845 134.438 40.0584C139.86 49.4127 145.819 64.4787 146.879 66.9273C150.046 74.2477 151.146 90.6626 151.146 90.6626C151.146 90.6626 149.925 91.5528 148.299 91.8691Z" fill="#2B478B"/>
<path d="M124.14 19.0333C124.14 19.0333 122.909 18.8281 123.108 17.1315C123.307 15.4349 123.305 13.2189 121.924 13.6315C120.546 14.0441 120.477 15.148 119.909 14.5049C119.342 13.8598 119.333 11.1432 115.23 10.9547C111.127 10.7662 109.46 12.1947 107.552 11.3547C105.643 10.5148 105.543 7.62854 105.543 7.62854C105.543 7.62854 106.085 8.65906 106.904 8.9879C106.904 8.9879 103.721 4.63334 107.407 1.64862C111.094 -1.33611 114.851 0.6181 116.983 0.745867C121.684 1.03073 124.719 1.31139 126.254 4.40085C127.789 7.48821 127.154 16.0612 124.14 19.0333Z" fill="#2B478B"/>
<path d="M147.056 92.598C147.056 92.598 145.816 93.8903 145.739 94.4265C145.487 96.1524 144.911 96.896 145.2 97.0845C145.799 97.4741 146.595 96.1964 146.974 95.0507C147.354 93.905 147.056 92.598 147.056 92.598Z" fill="#FFB27D"/>
<path d="M125.896 30.0549L117.874 45.278L113.758 43.7825L115.094 47.8438L107.051 72.0756C107.051 72.0736 102.6 41.2858 125.896 30.0549Z" fill="#233862"/>
<path d="M110.172 21.0022C110.172 21.0022 110.639 22.238 111.808 22.2715C112.976 22.305 113.877 21.1698 113.877 21.1698C113.877 21.1698 111.341 20.5812 110.172 21.0022Z" fill="white"/>
<path d="M47.5589 135.852L71.9226 130.208C75.0938 129.472 77.0878 126.278 76.3526 123.107L73.9062 112.549C73.171 109.377 69.9768 107.383 66.8057 108.119L42.4419 113.763C39.2708 114.499 37.2768 117.693 38.0119 120.864L40.4584 131.422C41.1936 134.594 44.3877 136.588 47.5589 135.852Z" fill="#F99746"/>
<path d="M69.2643 110.596C67.9866 109.222 66.089 108.481 64.1452 108.734H64.1431C64.141 108.734 64.141 108.736 64.1389 108.734C63.9483 108.759 63.7577 108.793 63.565 108.837L58.7141 109.962L58.1862 107.683C58.0689 107.174 57.7589 106.74 57.3149 106.464C56.8709 106.187 56.343 106.099 55.8362 106.217L54.5711 106.51L49.4771 107.689L48.5597 107.903C47.5082 108.148 46.8485 109.201 47.0935 110.255L47.6213 112.534L39.2474 114.473C36.0657 115.211 34.0654 118.417 34.8006 121.601L37.2764 132.281C38.0137 135.463 41.2204 137.463 44.4041 136.726L68.7239 131.092C69.1533 130.993 69.5596 130.849 69.9408 130.664H69.9429C69.945 130.664 69.945 130.664 69.945 130.662C70.5566 130.371 71.1033 129.977 71.5683 129.512C72.9737 128.109 73.6482 126.031 73.1706 123.962L70.697 113.282C70.4519 112.243 69.9471 111.33 69.2643 110.596ZM48.2895 109.979C48.2162 109.66 48.3649 109.34 48.633 109.183C48.6958 109.147 48.7629 109.118 48.8383 109.101L49.9191 108.85L53.928 107.922L56.1126 107.415C56.5064 107.323 56.9002 107.57 56.9902 107.961L57.5181 110.24L48.8152 112.255L48.2895 109.979Z" fill="#ED7D2B"/>
<path d="M53.2846 96.8541C53.2846 96.8541 52.5494 99.4639 52.8008 100.295C54.512 105.93 57.4716 109.616 49.5165 108.665C49.5165 108.665 49.8454 108.338 48.3226 105.473C46.5653 102.166 46.5946 102.118 48.1697 99.4262L48.7122 96.3514L53.2846 96.8541Z" fill="#FFB27D"/>
<path d="M63.2943 90.1453C60.8919 89.9987 57.9658 89.3703 56.8976 88.101C55.6869 86.662 54.4805 86.2746 54.4805 86.2746L54.8491 84.7015L55.2911 82.8227C55.2911 82.8227 55.4356 82.6552 55.9278 82.6824C55.9278 82.6824 57.8108 83.1076 58.5104 82.5672C59.2079 82.0268 60.4876 82.3557 61.2752 82.8793C62.2764 83.5454 63.6294 83.4364 63.5959 83.7632C63.5959 83.7632 61.6103 84.7392 61.7967 84.9047C63.6148 86.5196 68.4029 87.1605 68.0929 88.4215C67.9693 88.9179 64.3186 90.2081 63.2943 90.1453Z" fill="#FFB27D"/>
<path d="M29.8224 28.7814L29.8161 30.0863C29.8161 30.0863 30.1722 34.1685 25.1432 34.7655C20.1142 35.3645 15.9921 35.2849 16.1283 32.1347C16.5807 29.6946 17.3934 25.9077 17.4269 23.8885C17.4395 23.1387 17.3871 22.3427 17.2489 21.4442L26.9927 21.2494L29.8622 21.7186L29.8224 28.7814Z" fill="#FFB27D"/>
<path d="M29.8594 21.7185L29.8217 28.7814C28.787 29.2631 27.6183 29.5563 26.3092 29.5563C21.8311 29.5563 18.9364 26.2721 17.4241 23.8906C17.4367 23.1407 17.3843 22.3448 17.2461 21.4463L26.9899 21.2515L29.8594 21.7185Z" fill="#E2915A"/>
<path d="M16.5014 19.8775C17.6324 25.9621 25.4828 25.761 28.8739 25.3798C29.829 25.273 30.4301 25.1515 30.4301 25.1515C31.5067 24.8646 32.1078 23.168 32.3864 20.9478C32.9394 16.5534 32.2398 10.1001 31.4983 8.44961C30.3798 5.96548 28.2748 3.28027 20.37 5.21773C12.4631 7.15728 15.052 12.0816 16.5014 19.8775Z" fill="#FFB27D"/>
<path d="M10.0781 200H21.2023C21.1185 199.416 20.8357 197.642 20.3142 196.008C20.134 195.438 19.9225 194.885 19.6837 194.405C18.6029 192.246 11.7307 193.62 11.7307 193.62C11.7307 193.62 11.0919 194.167 10.5934 196.255C10.3756 197.174 10.1808 198.396 10.0781 200Z" fill="#233862"/>
<path d="M43.6926 196.49C43.722 198.002 43.9126 199.434 44.4634 200H66.4666C66.1881 199.204 65.3942 198.006 63.1363 197.639C60.5705 197.225 56.5678 195.989 54.2324 193.519C53.4009 192.642 52.7809 191.607 52.5086 190.396C51.4739 185.788 43.9503 191.808 43.9503 191.808C43.9503 191.808 43.6445 194.238 43.6926 196.49Z" fill="#233862"/>
<path d="M29.0588 146.671C29.3646 148.359 29.5594 149.743 29.6117 150.734C30.3113 164.378 41.0961 195.574 43.0252 196.301C46.0099 197.428 50.7101 195.034 53.1691 194.25C54.1891 193.926 54.8761 192.897 54.6499 191.854C49.3088 167.3 47.3462 131.944 46.632 111.011C46.2717 100.467 44.462 93.1844 44.462 93.1844C44.462 93.1844 18.1566 86.1656 18.0017 95.0444C17.8613 102.899 26.7129 133.71 29.0588 146.671Z" fill="#2B478B"/>
<path d="M29.0588 146.671L46.632 111.009C46.2717 100.465 44.462 93.1824 44.462 93.1824C44.462 93.1824 18.1566 86.1635 18.0017 95.0423C17.8613 102.899 26.7129 133.71 29.0588 146.671Z" fill="#233862"/>
<path d="M34.9102 95.0737L21.0045 195.859C21.0045 195.859 14.8968 197.332 10.1485 196.154C10.1485 196.154 6.07666 142.553 6.41598 129.594C6.75529 116.635 3.49409 94.9187 7.15954 92.5226C10.8271 90.1264 34.9102 95.0737 34.9102 95.0737Z" fill="#2B478B"/>
<path d="M31.8028 9.40052C29.6308 10.0854 25.0375 9.38586 23.1168 10.94C21.1961 12.4963 23.0267 15.0558 20.8316 15.969L20.8232 15.9732C20.3792 16.1575 19.8618 16.0319 19.5623 15.6569C18.9549 14.8987 18.1129 14.1426 17.3442 14.4547C16.7137 14.7123 16.6823 15.5271 16.9588 16.3188C17.1934 16.9849 17.1264 17.7326 16.7221 18.3107C16.5483 18.5621 16.4331 18.8364 16.4833 19.1129C16.6656 20.1162 17.1641 21.4232 17.3463 22.0914L17.3966 22.793C17.3966 22.793 13.7206 18.8134 12.1707 15.4642C11.1087 13.1665 11.1297 4.57678 16.3262 2.06752C16.3053 2.05076 16.2864 2.03191 16.276 2.01096C16.1629 1.80989 15.8508 1.85597 15.8508 1.85597C16.2969 1.65489 16.9923 1.78266 16.9923 1.78266C16.9777 1.77218 17.0049 1.73867 17.0677 1.69259C17.1578 1.08517 17.7694 0.651603 17.7694 0.651603C17.562 0.951123 17.4741 1.25274 17.4364 1.47266C18.802 0.752141 23.0037 -0.841808 26.334 0.607617C28.5877 1.58786 30.6508 2.10941 32.0563 2.3796C33.2125 2.60372 34.0314 3.63424 33.9896 4.80928C33.9351 6.46187 33.3591 8.8329 31.8028 9.40052Z" fill="#233862"/>
<path d="M14.9414 33.8857L18.144 102.581C18.144 102.581 44.8662 103.016 44.1017 96.9693C43.3393 90.9223 34.471 35.9887 34.471 35.9887" fill="#E9F3FE"/>
<path d="M23.7539 76.9182C23.7539 76.9182 22.3967 95.2664 19.791 106.784C19.791 106.784 4.19716 107.612 0.496094 101.59C0.496094 101.59 3.42636 76.803 3.42636 71.7761C3.42636 70.0083 3.29022 67.6058 3.07448 64.9206C2.74983 60.853 2.24713 56.1403 1.76958 52.0371C1.10561 46.321 0.496094 41.778 0.496094 41.778L13.3524 31.3304L23.7539 76.9182Z" fill="#22407A"/>
<path d="M54.6911 98.626C54.6911 98.626 51.7818 100.448 47.201 99.8367C45.5338 103.925 41.6002 105.316 41.6002 104.945C41.6002 104.901 40.7184 97.2206 39.6732 88.1722C39.5706 87.2673 39.4659 86.3499 39.3591 85.4262C39.3507 85.3466 39.3402 85.2691 39.3318 85.1895C39.1559 83.6731 38.982 82.142 38.804 80.615C37.5494 69.7171 36.3429 59.2695 36.3429 59.2695C33.6095 42.532 31.293 31.4686 31.293 31.4686C37.1263 32.076 41.0619 34.1538 42.6328 36.8746C47.289 44.9449 50.6591 65.1301 52.6343 80.238C52.6385 80.2757 52.6427 80.3155 52.649 80.3532C52.9883 82.9609 53.2878 85.4178 53.5433 87.6297C53.5601 87.7679 53.5747 87.9062 53.5894 88.0402C54.3183 94.3741 54.6911 98.626 54.6911 98.626Z" fill="#22407A"/>
<path d="M27.6406 20.8787C27.6406 20.8787 27.8941 21.6641 29.8755 21.3772C29.8755 21.3772 31.5386 21.1363 31.415 20.2608C31.415 20.2608 29.7435 19.7686 27.6406 20.8787Z" fill="white"/>
<path d="M14.1878 31.2487C14.1543 30.5931 17.2605 29.6882 17.2605 29.6882C17.2605 29.6882 20.8149 34.6167 26.6713 34.7005C26.6713 34.7005 25.0019 37.9491 23.0351 38.789C23.033 38.789 14.3805 35.1424 14.1878 31.2487Z" fill="#D9E9F9"/>
<path d="M26.668 34.5853C26.668 34.5853 29.77 32.7463 29.7805 30.7523C29.7805 30.7523 31.7849 30.5009 32.6584 31.4728C32.6584 31.4728 33.3936 34.889 32.4175 36.8747C32.4196 36.8747 27.9519 36.1939 26.668 34.5853Z" fill="#D9E9F9"/>
<path d="M24.5631 34.2899L28.769 33.2825C28.769 33.2825 29.3178 33.3306 29.3031 34.0156C29.2884 34.7005 28.1176 36.7029 27.6002 36.862C27.0829 37.0212 23.5682 35.6765 24.5631 34.2899Z" fill="#BA4C43"/>
<path d="M14.6762 30.9115C14.6427 30.2559 16.7456 28.9049 16.7456 28.9049C16.7456 28.9049 20.8132 33.6595 26.6695 33.7454C26.6695 33.7454 25.0002 36.994 23.0334 37.834C23.0334 37.834 14.871 34.8052 14.6762 30.9115Z" fill="#E9F3FE"/>
<path d="M26.668 33.7433C26.668 33.7433 29.8056 32.0802 29.8161 30.0862C29.8161 30.0862 31.7095 30.9198 32.5851 31.8917C32.5851 31.8917 33.3956 34.0491 32.4196 36.0326C32.4196 36.0326 27.9519 35.354 26.668 33.7433Z" fill="#E9F3FE"/>
<path d="M34.3566 91.3475C34.1932 93.3163 33.4392 95.1595 32.2411 96.5126L30.356 98.6407C29.8826 99.1748 29.1475 99.1099 28.76 98.5024L26.4853 94.9333C25.8758 93.9761 25.5951 92.7592 25.7019 91.5381C25.9449 88.8152 26.3973 83.5683 26.7681 78.5058C27.0697 74.4026 27.3189 70.4188 27.3587 67.9954C27.4844 60.2602 26.4706 35.6074 26.4706 35.6074L27.9829 35.687C27.9829 35.687 31.6483 45.2172 33.4894 58.2222C33.944 61.4227 34.2854 64.8326 34.4362 68.3661C34.4362 68.364 35.0897 82.4436 34.3566 91.3475Z" fill="#C65447"/>
<path d="M34.3566 91.3475C34.1932 93.3163 33.4392 95.1595 32.2411 96.5126L30.356 98.6407C29.8826 99.1748 29.1475 99.1099 28.76 98.5024L26.4853 94.9333C25.8758 93.9761 25.5951 92.7592 25.7019 91.5381C25.9449 88.8152 26.3973 83.5683 26.7681 78.5058C31.0032 72.6997 32.7752 64.7216 33.4874 58.2222C33.9419 61.4227 34.2833 64.8326 34.4341 68.3661C34.4362 68.364 35.0897 82.4436 34.3566 91.3475Z" fill="#BA4C43"/>
<path d="M16.7453 28.9049C16.7453 28.9049 25.0732 63.7854 23.7474 76.9266C23.7474 76.9266 20.6852 62.8847 13.3166 51.3836C13.3166 51.3836 16.006 49.0188 15.8593 48.1475C15.8593 48.1475 13.8632 47.5547 11.9258 47.9548C11.9258 47.9548 12.1394 32.9181 13.348 31.3304C14.5586 29.7406 16.7453 28.9049 16.7453 28.9049Z" fill="#233862"/>
<path d="M29.816 30.0883C28.5677 30.1889 38.0685 64.1729 38.7723 75.0666C38.7723 75.0666 37.9366 55.6271 38.0204 50.0263C38.0204 50.0263 34.5623 48.1957 34.5623 47.5526C34.5623 46.9096 38.2529 45.1732 38.2529 45.1732C38.2529 45.1732 35.9153 33.2029 34.6419 31.8833C33.3642 30.5617 29.816 30.0883 29.816 30.0883Z" fill="#233862"/>
<path d="M47.2104 101.219C47.2104 101.219 46.6344 102 47.0009 103.961C47.3675 105.921 47.1643 107.004 47.6712 106.665C48.1781 106.328 49.2253 103.973 49.2253 103.973L47.2104 101.219Z" fill="#FFB27D"/>
<path d="M22.7359 82.2928C13.0403 80.8454 6.55766 71.7844 3.07443 64.9227C2.74978 60.8551 2.24709 56.1424 1.76953 52.0392L4.03792 45.567L22.7359 82.2928Z" fill="#233862"/>
<path d="M53.5917 88.0423C51.6605 88.4885 45.8042 89.5839 39.6734 88.1722C39.5708 87.2674 39.4661 86.3499 39.3593 85.4262C39.3509 85.3467 39.3404 85.2692 39.332 85.1896C39.5331 84.402 39.7363 83.6166 39.9374 82.829C43.4059 84.0711 51.1599 86.7919 53.5456 87.6297C53.5624 87.77 53.577 87.9083 53.5917 88.0423Z" fill="#233862"/>
<path d="M13.3486 31.3283C13.3527 31.3304 4.82795 32.4049 0.940472 37.8319C-2.9491 43.2609 5.40185 72.8234 22.7342 82.2907C31.0705 86.8442 55.1285 87.8706 55.1285 87.8706C55.1285 87.8706 56.4501 88.0025 56.9758 85.3404C57.1581 84.4125 56.9758 82.829 56.9758 82.829C56.9758 82.829 29.5918 72.5615 27.1851 70.5843C24.7764 68.6091 13.3486 31.3283 13.3486 31.3283Z" fill="#22407A"/>
</svg>
