<svg width="300" height="163" viewBox="0 0 300 163" fill="none" xmlns="http://www.w3.org/2000/svg">
<path d="M128.066 67.3958C128.329 66.9998 127.687 66.3195 127.206 65.8083C126.673 65.2431 123.428 63.8032 122.874 63.6286C122.321 63.454 117.566 64.0804 115.742 64.6582C113.919 65.2377 112.724 64.9803 112.724 64.9803C112.249 64.8777 111.533 64.741 110.978 64.6204L110.309 68.8519C114.576 68.8375 118.529 69.1939 118.932 69.1867C120.215 69.1669 122.577 67.8458 123.122 67.6532C123.669 67.4606 124.771 67.6262 125.51 67.9808C126.248 68.3353 128.403 69.1813 128.765 68.9923C129.128 68.8105 128.066 67.3958 128.066 67.3958Z" fill="#F48C7F"/>
<path d="M116.794 64.3882L92.7978 58.3676C92.7978 58.3676 87.5259 48.2882 79.79 37.4529C77.2612 39.9565 75.8554 43.8029 73.3086 46.2813L86.7322 64.5466C87.4143 65.3007 117.246 68.5801 117.246 68.5801L116.794 64.3882Z" fill="#F48C7F"/>
<path d="M81.5528 56.3787C81.5528 56.3787 74.6502 47.1578 72.1304 42.7949C69.6106 38.432 73.8475 41.2722 78.1744 40.1239C79.8141 39.6883 78.4552 30.7411 81.5528 33.8621C86.6357 38.9828 91.7312 50.0773 91.7312 50.0773L81.5528 56.3787Z" fill="#B75742"/>
<path d="M90.8613 150.749C90.8613 150.749 90.4959 156.809 90.4923 156.821C90.3573 157.59 89.8281 159.492 89.8281 160.191C89.8281 162.819 102.307 157.961 99.5097 156.796C99.2559 156.69 97.9312 155.894 97.8466 155C97.7188 153.621 97.393 150.835 97.393 150.835L90.8613 150.749Z" fill="#F7A491"/>
<path d="M98.9867 156.278C98.9867 156.278 96.0565 157.082 94.5572 157.282C93.0561 157.484 91.078 155.792 90.0179 156.247C88.8498 156.749 88.8948 161.278 88.8948 161.278C88.8948 161.278 104.604 162.567 109.023 161.233C110.771 160.707 104.975 158.15 98.9867 156.278Z" fill="#B75742"/>
<path d="M112.041 150.749C112.041 150.749 111.676 156.809 111.672 156.821C111.537 157.59 111.008 159.492 111.008 160.191C111.008 162.819 123.486 157.961 120.689 156.796C120.436 156.69 118.548 156.357 118.463 155.463C118.335 154.084 118.096 149.823 118.096 149.823L112.041 150.749Z" fill="#F7A491"/>
<path d="M120.166 156.278C120.166 156.278 117.236 157.082 115.737 157.282C114.236 157.484 112.258 155.792 111.198 156.247C110.029 156.749 110.074 161.278 110.074 161.278C110.074 161.278 125.784 162.567 130.203 161.233C131.952 160.707 126.155 158.15 120.166 156.278Z" fill="#B75742"/>
<path d="M71.8493 85.7384L101.675 85.8662C101.675 85.8662 115.147 85.5134 117.278 90.1716C119.408 94.8315 118.902 154.001 118.902 154.001C118.902 154.001 111.711 155.07 111.342 154.676L103.245 119.252C102.379 116.25 102.084 113.111 102.375 109.999L103.149 101.759L90.8417 102.387C90.8417 102.387 76.889 102.166 72.2885 97.5385C67.6916 92.9128 71.8493 85.7384 71.8493 85.7384Z" fill="#3C8F7C"/>
<path d="M51.628 82.45L83.6984 84.4173C83.6984 84.4173 97.4999 85.5387 99.631 90.1968C101.76 94.8567 98.2721 154.536 98.2721 154.536C98.2721 154.536 90.2662 155.029 90.2824 154.678C90.3022 154.26 86.9976 127.341 85.1635 118.817C84.5822 116.112 84.3788 113.34 84.557 110.577L85.7143 101.023C85.7143 101.023 55.9261 100.854 54.4466 99.3654C49.8479 94.7397 51.628 82.45 51.628 82.45Z" fill="#50BFA5"/>
<path d="M80.8054 33.2519C76.3417 31.8984 67.9776 31.1911 67.9776 31.1911C67.9776 31.1911 62.7345 30.3379 61.0319 30.7069C58.5246 31.2505 53.8179 31.4988 53.3787 42.381C53.0655 50.1691 52.1782 69.4369 51.2891 82.4483L83.2101 84.385C81.7684 64.3684 85.0334 34.5335 80.8054 33.2519Z" fill="#F47458"/>
<path d="M72.3408 21.891L67.3281 31.1101C67.3281 31.1101 71.1043 37.8416 74.6771 38.0216C77.6739 38.1728 77.2041 33.7415 77.2041 33.7415C77.2041 33.7415 77.6757 28.0124 79.1138 25.4458C80.5519 22.8792 72.3408 21.891 72.3408 21.891Z" fill="#F7A491"/>
<path d="M72.8008 25.5844C73.9257 26.7849 75.8066 28.367 77.8441 29.3732C78.1411 27.935 78.5533 26.4483 79.1148 25.4458C79.779 24.2615 78.3877 23.4137 76.6958 22.8432C74.4297 22.242 72.3418 21.891 72.3418 21.891L71.3789 23.6621C71.6255 24.2849 72.4264 25.1848 72.8008 25.5844Z" fill="#F47458"/>
<path d="M74.9154 6.35979C74.7084 6.2122 69.7641 17.7369 71.9096 21.8838C74.055 26.0308 79.7193 28.7684 82.5811 26.7687C85.7471 24.5567 89.2083 11.6551 85.3907 6.94115C81.575 2.22725 74.9154 6.35979 74.9154 6.35979Z" fill="#F7A491"/>
<path d="M85.3633 0.0313785C81.4755 -0.242205 78.4661 1.3435 77.3232 2.05805C75.5971 1.78987 73.0701 2.08145 69.6449 5.31225C65.4331 9.2846 66.0919 15.1648 68.7251 18.6944C71.3602 22.224 70.4782 25.2082 70.4782 25.2082L71.4394 23.8061C72.1575 22.7406 72.6633 21.54 72.8757 20.2711C73.0035 19.5098 73.0664 18.6674 72.9441 17.9241C72.6183 15.9658 75.4801 15.523 76.5942 14.2793C77.451 13.3218 78.1853 10.7893 79.5605 9.19461L80.9824 8.08048C80.9824 8.08048 83.8802 6.88895 86.0653 8.06068C88.2503 9.23241 90.3508 0.382357 85.3633 0.0313785Z" fill="#F7CC7F"/>
<path d="M75.8467 16.3654C75.4652 17.8323 74.468 18.8438 73.6203 18.6242C72.7725 18.4047 72.3964 17.0349 72.7779 15.568C73.1595 14.0993 74.1566 13.0896 75.0044 13.3092C75.8503 13.5288 76.2283 14.8985 75.8467 16.3654Z" fill="#F7A491"/>
<path d="M79.8818 21.1243L84.5633 22.17C84.5633 22.17 84.0575 23.9231 81.9859 23.5235C79.4607 23.0358 79.8818 21.1243 79.8818 21.1243Z" fill="white"/>
<path d="M104.512 64.8507L79.8557 58.3279C79.8557 58.3279 72.3088 49.7965 65.2136 39.9781C62.6794 42.0732 61.5994 47.606 59.0508 49.6777L75.3326 65.8821C75.8977 66.6326 103.263 68.5711 103.263 68.5711L104.512 64.8507Z" fill="#F7A491"/>
<path d="M64.6804 57.995C64.6804 57.995 56.2983 47.3432 54.2518 43.1603C52.2053 38.9774 54.3922 32.3556 58.4563 31.5726C62.5187 30.7897 74.2846 49.8973 74.2846 49.8973L64.6804 57.995Z" fill="#B75742"/>
<path d="M119.797 68.204C120.059 67.853 119.505 67.1906 119.089 66.6921C118.628 66.1413 115.713 64.6348 115.212 64.444C114.712 64.2532 110.291 64.5682 108.576 65.002C106.863 65.4357 105.774 65.1333 105.774 65.1333C105.34 65.0128 104.688 64.8472 104.183 64.705L102.863 68.5423C106.801 68.7637 110.896 69.3397 111.271 69.3559C112.455 69.4081 114.707 68.3192 115.221 68.1716C115.736 68.024 116.744 68.2382 117.406 68.6053C118.069 68.9725 120.007 69.8725 120.353 69.7177C120.698 69.5665 119.797 68.204 119.797 68.204Z" fill="#F7A491"/>
<path d="M66.2676 109.913H63.125V155.873H66.2676V109.913Z" fill="#13375B"/>
<path d="M48.8097 157.921H80.0359C81.474 157.921 82.6404 159.088 82.6404 160.526C82.6404 160.778 82.437 160.981 82.185 160.981H46.6624C46.4104 160.981 46.207 160.778 46.207 160.526C46.207 159.088 47.3716 157.921 48.8097 157.921Z" fill="#13375B"/>
<path d="M62.8782 155.873H66.703C67.8351 155.873 68.7512 156.791 68.7512 157.921C68.7512 159.053 67.8333 159.971 66.703 159.971H62.8782C61.7461 159.971 60.8281 159.053 60.8281 157.921C60.8299 156.791 61.7479 155.873 62.8782 155.873Z" fill="#13375B"/>
<path d="M84.9243 104.623L82.7752 95.6792C81.2723 89.4246 75.7341 84.8727 69.3049 84.6135L42.0906 83.5138L41.25 80.7438L69.4147 81.8831C77.0588 82.1927 83.6464 87.6049 85.4337 95.0439L87.7177 104.547C86.9438 104.578 86.0006 104.603 84.9243 104.623Z" fill="#355389"/>
<path d="M48.4237 99.8586C48.4237 99.8586 85.8128 100.498 89.7095 99.8586C93.6081 99.2178 95.2946 104.106 94.1319 106.666C92.9691 109.225 89.7689 110.215 85.0568 110.447C80.3447 110.68 41.1324 111.785 40.0272 110.739C39.1237 109.884 27.2372 69.2443 22.9121 54.3826C22.0482 51.4128 23.7526 48.308 26.7207 47.4368C29.6761 46.5693 32.7773 48.245 33.67 51.1932L48.4237 99.8586Z" fill="#F7CC7F"/>
<path d="M166.514 43.7039H135.324C134.498 43.7039 133.754 44.2024 133.441 44.9656L123.837 68.3893H106.641C106.16 68.3893 105.77 68.7781 105.77 69.2587C105.77 69.7393 106.16 70.128 106.641 70.128H155.581C156.928 70.128 158.146 69.3379 158.699 68.1104L168.37 46.5675C168.974 45.2248 167.99 43.7039 166.514 43.7039Z" fill="#86B1F2"/>
<path d="M149.72 57.3434C149.51 58.3964 148.592 59.0983 147.67 58.9147C146.749 58.7311 146.173 57.7286 146.383 56.6757C146.594 55.6245 147.512 54.9208 148.433 55.1043C149.355 55.2897 149.931 56.2923 149.72 57.3434Z" fill="white"/>
<path d="M101.449 75.3603H223.508C223.931 75.3603 224.273 75.0183 224.273 74.5953V70.8966C224.273 70.4736 223.931 70.1316 223.508 70.1316H101.449C101.026 70.1316 100.684 70.4736 100.684 70.8966V74.5953C100.684 75.0165 101.026 75.3603 101.449 75.3603Z" fill="#13375B"/>
<path d="M212.671 161.397H216.393L208.375 75.3603H204.652L212.671 161.397Z" fill="#13375B"/>
<path d="M181.05 161.397H177.328L185.348 75.3603H189.069L181.05 161.397Z" fill="#13375B"/>
<path d="M141.811 161.397H145.534L137.515 75.3603H133.793L141.811 161.397Z" fill="#13375B"/>
<path d="M110.187 161.397H106.465L114.485 75.3603H118.206L110.187 161.397Z" fill="#13375B"/>
<path d="M299.352 162.173H0.64796C0.289782 162.173 0 161.883 0 161.525V161.199C0 160.841 0.289782 160.551 0.64796 160.551H299.35C299.708 160.551 299.998 160.841 299.998 161.199V161.525C300 161.883 299.708 162.173 299.352 162.173Z" fill="#2E3552"/>
</svg>
